{"glyphs":{"0":{"ha":694,"x_min":42,"x_max":651,"o":"m 344 6 q 181 31 215 13 q 107 119 146 49 q 54 251 69 189 q 42 519 42 313 q 54 731 42 640 q 101 878 67 821 q 203 969 142 940 q 385 1001 267 1000 q 586 893 538 979 q 643 708 635 807 q 651 482 651 611 q 633 244 651 349 q 541 70 617 135 q 344 6 465 6 m 389 94 q 476 125 429 94 q 556 210 524 156 q 596 342 590 267 q 599 415 599 369 l 599 444 q 598 463 599 453 q 599 485 597 474 q 601 624 601 538 q 597 703 601 668 q 590 746 592 739 q 546 872 582 808 q 513 906 533 893 q 467 921 492 918 q 419 924 436 924 q 372 921 406 924 q 279 892 324 921 q 249 862 261 879 q 221 810 238 844 q 196 701 196 760 q 197 635 196 661 l 199 515 l 201 381 q 210 276 204 311 q 233 219 215 242 q 274 164 256 194 l 294 133 q 389 94 324 94 m 390 428 q 342 449 363 428 q 322 508 322 469 q 341 564 322 550 q 390 578 360 578 q 461 488 461 578 q 439 445 461 463 q 390 428 417 428 z "},"1":{"ha":694,"x_min":64,"x_max":646,"o":"m 86 0 q 65 40 72 0 q 65 46 65 43 q 65 53 64 49 q 82 88 65 83 q 157 104 121 93 q 194 115 165 107 q 263 146 260 114 q 264 206 264 168 q 263 285 264 250 l 263 410 q 260 540 264 478 l 258 610 q 260 681 258 657 l 264 815 l 142 776 q 89 767 97 767 q 74 774 74 767 q 69 790 69 781 q 72 861 68 844 q 108 888 78 875 q 401 972 244 894 q 436 978 419 978 q 460 973 451 978 q 468 960 468 968 q 465 843 468 913 l 464 793 l 456 665 l 456 568 l 460 483 q 463 361 463 439 q 464 293 464 346 q 474 107 464 154 q 639 88 639 100 l 643 28 q 613 0 646 0 q 507 6 554 0 q 429 11 483 8 q 250 3 363 7 l 196 4 q 86 0 147 4 z "},"2":{"ha":694,"x_min":44,"x_max":651,"o":"m 71 1 q 44 17 44 1 q 51 37 44 26 q 66 56 58 47 q 78 69 74 65 q 174 183 85 78 q 314 354 264 289 l 347 396 q 445 527 406 469 q 518 658 485 585 q 533 736 533 692 q 487 836 533 803 q 383 869 440 869 q 294 860 329 869 q 215 833 258 851 q 159 797 192 822 q 119 768 126 772 l 113 765 q 106 769 110 765 q 100 774 103 772 q 88 783 94 779 q 76 790 81 786 q 72 799 72 796 q 75 808 71 801 q 143 886 100 843 q 205 931 160 903 q 299 979 250 958 q 383 1000 349 1000 q 497 969 447 1000 q 574 890 547 939 q 601 786 601 840 q 581 678 601 726 q 521 569 560 629 q 499 535 518 565 q 383 376 474 493 q 282 249 293 260 q 269 235 275 242 q 271 228 264 228 q 291 227 275 228 q 347 226 307 226 q 396 228 379 226 q 607 233 536 228 q 644 227 638 236 q 651 206 651 218 q 650 190 650 194 l 650 43 q 639 10 650 17 q 596 4 628 4 q 544 3 567 4 l 438 1 q 385 3 397 1 l 165 4 q 90 3 97 4 q 71 1 85 1 z "},"3":{"ha":694,"x_min":46,"x_max":656,"o":"m 278 -40 q 171 2 219 -40 q 93 94 122 44 q 53 172 64 143 q 46 194 46 185 q 51 203 46 201 q 57 207 56 206 q 70 215 58 210 q 86 222 82 221 q 93 224 89 224 q 108 204 104 224 q 122 167 111 199 q 158 94 132 135 q 233 30 185 54 q 347 6 282 6 q 434 21 394 6 q 497 49 474 36 q 526 64 521 61 q 563 103 542 74 q 599 178 583 132 q 614 281 614 225 q 551 417 608 369 q 404 451 510 451 q 254 436 361 451 q 192 431 218 431 l 189 431 q 179 439 182 431 q 178 465 178 446 q 182 474 178 469 q 192 484 186 479 q 207 496 199 489 q 312 583 218 507 q 454 699 406 660 q 460 708 460 704 q 418 718 460 718 q 288 715 401 717 q 101 713 174 714 q 83 721 86 713 q 80 742 79 729 q 81 761 81 756 l 82 889 l 81 958 q 114 986 81 986 q 144 983 122 986 q 178 981 167 981 q 265 986 204 981 q 372 992 332 992 l 524 990 q 567 989 544 989 q 581 976 579 989 q 583 926 583 964 l 582 756 q 574 731 582 740 q 553 710 567 721 q 532 693 540 700 q 386 583 494 667 q 366 566 378 575 q 342 546 354 557 q 328 535 336 542 q 310 522 321 529 q 293 504 293 513 q 297 499 293 499 q 315 499 300 499 q 353 499 331 500 q 434 495 385 499 q 504 489 483 492 q 565 467 531 486 q 627 403 599 449 q 656 281 656 357 q 639 172 656 218 q 624 130 636 165 q 592 67 613 94 q 540 19 571 40 q 454 -22 488 -11 q 278 -40 407 -40 z "},"4":{"ha":694,"x_min":40,"x_max":653,"o":"m 489 8 q 475 16 478 8 q 472 58 472 24 l 472 125 q 476 179 474 158 q 479 304 479 221 q 472 334 479 326 q 449 342 464 342 l 413 340 q 300 335 349 335 q 269 336 278 335 l 236 338 q 126 333 179 338 l 72 332 q 46 341 51 332 q 40 367 40 350 q 44 399 40 390 q 64 429 47 408 q 122 510 89 460 q 176 583 139 535 q 310 756 228 644 q 391 872 361 828 q 438 940 421 917 l 463 978 q 500 1001 479 1001 l 510 1001 q 522 1004 517 1001 q 547 1001 533 1003 q 565 993 561 1000 q 569 965 569 986 q 567 890 569 949 q 560 458 560 731 q 564 419 560 428 q 579 410 568 410 q 605 412 585 410 q 639 414 625 414 q 648 407 646 414 q 650 386 650 400 q 651 367 650 372 q 652 363 651 364 q 653 360 653 361 q 649 349 653 353 q 639 344 644 344 l 632 344 q 613 343 625 344 q 583 342 601 342 q 563 333 567 342 q 558 307 558 325 l 558 300 l 557 321 q 553 210 556 321 q 551 49 551 99 l 551 35 q 537 11 551 15 q 508 8 522 7 q 489 8 493 8 m 118 397 q 130 400 122 397 q 151 403 138 403 q 182 401 171 403 l 222 400 q 272 402 232 400 q 369 404 313 404 l 442 404 q 467 416 460 404 q 476 458 474 428 q 478 563 478 489 l 478 625 l 481 694 l 483 867 q 485 892 483 879 q 488 918 488 906 l 486 921 l 486 922 q 439 851 482 922 l 407 800 l 315 672 q 221 549 276 618 q 200 524 221 549 q 135 447 174 482 q 116 427 121 435 q 111 407 111 419 q 118 397 111 397 z "},"5":{"ha":694,"x_min":50,"x_max":660,"o":"m 346 -56 q 109 47 161 -56 q 57 219 57 149 q 56 300 57 290 q 53 336 53 314 q 71 375 53 375 l 163 376 q 186 369 182 376 q 190 343 190 363 q 192 317 190 326 q 229 262 196 285 q 321 239 263 239 q 377 252 350 239 q 436 292 404 265 q 472 340 465 318 q 479 411 479 363 q 390 506 468 500 q 294 490 328 501 q 236 458 261 479 q 194 438 210 436 l 67 439 q 53 485 53 439 q 56 525 53 494 q 60 567 60 563 q 54 782 63 600 q 51 863 53 822 q 50 936 50 903 q 67 985 50 972 q 114 999 85 999 q 137 997 126 999 q 157 996 147 996 q 263 999 190 996 q 333 1001 313 1001 q 397 1003 350 1003 l 518 1001 q 596 1000 549 1000 q 633 992 624 1000 q 643 968 643 983 l 642 944 l 639 881 l 636 810 q 594 781 636 781 q 554 783 582 781 q 514 785 546 785 q 354 782 465 785 l 253 779 q 201 766 214 779 q 189 728 189 753 l 186 638 q 185 594 186 604 l 185 538 q 244 582 221 571 q 406 624 318 619 q 573 569 511 618 q 651 436 635 521 q 657 336 660 367 q 649 281 656 313 q 631 178 647 271 q 539 15 614 85 q 346 -56 464 -56 z "},"6":{"ha":694,"x_min":22,"x_max":671,"o":"m 333 -46 q 199 7 272 -46 q 74 176 126 60 q 22 468 22 292 q 78 758 22 644 q 208 923 133 872 q 343 974 283 974 q 526 898 460 974 q 624 751 593 822 q 629 732 629 738 q 593 690 629 706 q 450 590 571 679 q 431 585 440 585 q 416 592 421 585 q 411 608 411 600 q 403 626 408 613 q 379 651 397 640 q 328 661 361 661 q 284 631 301 661 q 261 558 267 601 q 254 457 254 507 q 293 493 268 478 q 421 531 351 531 q 538 505 481 531 q 633 429 596 479 q 671 308 671 379 q 614 72 671 150 q 487 -26 557 -7 q 333 -46 417 -46 m 350 190 q 402 231 383 190 q 421 314 421 271 q 396 364 421 344 q 351 383 371 383 q 295 356 319 383 q 271 292 271 328 q 292 222 271 253 q 350 190 313 190 z "},"7":{"ha":694,"x_min":71,"x_max":694,"o":"m 113 -25 q 99 -15 108 -25 q 81 0 89 -6 q 71 15 71 6 q 93 57 71 24 q 182 206 97 63 l 222 272 q 304 407 238 304 l 286 407 q 220 404 261 407 q 167 399 179 401 q 151 406 154 399 q 149 431 149 414 l 149 528 q 154 563 149 551 q 175 574 160 574 l 411 574 q 467 660 435 607 q 549 788 504 714 q 594 867 594 861 q 589 871 594 871 q 578 869 585 871 q 563 867 571 867 q 528 869 553 867 q 464 871 504 871 q 285 858 424 871 q 122 840 147 844 q 103 838 108 838 q 79 860 79 838 l 81 894 q 79 914 81 908 l 79 917 q 86 934 79 929 q 106 940 93 939 l 142 942 q 250 946 233 946 q 335 949 271 946 q 436 951 404 951 q 474 950 464 951 q 533 947 504 947 q 639 950 581 947 q 675 951 656 951 q 692 938 689 951 q 694 908 694 925 q 693 883 693 892 q 683 841 693 861 q 640 774 672 821 q 499 574 610 735 l 599 574 q 633 567 626 576 q 640 535 640 558 l 640 431 q 630 408 640 414 q 589 401 619 401 l 519 401 l 469 406 q 426 408 450 408 l 383 407 q 235 164 338 339 l 185 81 q 172 58 179 69 q 156 32 164 46 q 118 -24 125 -19 q 113 -25 117 -25 z "},"8":{"ha":694,"x_min":28,"x_max":667,"o":"m 335 -8 q 105 60 182 -8 q 28 249 28 129 q 160 476 28 367 q 293 556 218 522 q 279 569 279 569 q 262 581 276 574 q 239 596 247 588 q 201 622 232 601 q 149 689 171 643 q 128 803 128 735 q 167 922 128 874 q 265 994 207 971 q 379 1017 322 1017 q 481 997 425 1017 q 578 931 536 978 q 621 807 621 885 q 563 611 621 703 q 506 544 540 572 q 586 483 549 522 q 667 281 667 397 q 623 126 667 192 q 504 26 579 61 q 335 -8 429 -8 m 378 590 q 411 609 399 600 q 439 636 424 618 q 490 710 475 675 q 506 789 506 746 q 472 917 506 872 q 368 961 438 961 q 303 942 336 961 q 250 892 271 924 q 229 826 229 861 q 247 734 229 772 q 301 649 264 696 q 335 615 318 628 q 378 590 351 601 m 343 49 q 456 85 410 49 q 526 175 503 121 q 549 281 549 229 q 528 391 549 343 q 468 465 507 439 q 430 490 444 482 q 389 507 415 499 q 320 478 340 488 q 274 447 300 468 q 163 236 163 360 q 212 90 163 132 q 343 49 261 49 z "},"9":{"ha":694,"x_min":29,"x_max":665,"o":"m 349 -44 q 229 -15 281 -44 q 146 53 178 14 q 81 149 114 93 q 60 211 60 185 q 72 242 60 232 q 96 253 85 253 q 124 255 107 253 q 156 257 140 257 q 183 249 172 257 q 207 222 194 240 q 258 174 229 192 q 350 156 288 156 q 434 192 404 156 q 476 286 464 229 q 489 418 492 343 q 432 361 461 386 q 322 304 364 304 q 196 320 257 304 q 82 401 135 336 q 29 599 29 465 q 84 833 29 744 q 213 959 139 922 q 347 996 286 996 q 535 901 464 996 q 635 686 606 806 q 665 488 665 567 q 611 158 665 251 q 549 60 581 101 q 467 -13 518 18 q 349 -44 417 -44 m 314 465 q 380 485 346 465 q 438 535 414 504 q 464 597 461 567 q 458 694 464 653 q 417 773 451 736 q 311 810 383 810 q 245 790 279 810 q 188 729 211 769 q 165 632 165 689 q 211 506 165 547 q 314 465 257 465 z "},"\r":{"ha":833,"x_min":0,"x_max":0,"o":""}," ":{"ha":361,"x_min":0,"x_max":0,"o":""},"A":{"ha":660,"x_min":3,"x_max":667,"o":"m 15 0 q 8 18 3 0 q 10 25 8 22 q 11 32 10 28 q 15 44 13 36 l 28 96 q 38 125 31 104 q 47 164 44 146 q 74 265 54 197 l 85 304 q 118 425 111 390 l 138 499 q 154 557 151 544 q 182 661 164 599 l 192 700 l 200 729 q 224 797 214 776 q 244 855 226 806 q 267 933 261 904 q 287 983 276 967 q 315 1000 297 1000 q 329 988 322 1000 q 343 957 336 975 q 353 931 350 939 q 392 799 364 904 l 403 760 q 449 624 404 749 l 475 547 l 500 482 q 550 349 539 372 q 607 171 599 201 q 638 81 617 135 q 663 19 660 26 q 667 6 667 10 q 651 0 667 0 l 574 0 q 565 2 568 0 q 558 13 561 4 q 543 63 553 28 q 526 125 531 97 q 513 175 522 146 q 497 219 504 204 q 475 279 485 246 l 463 319 q 452 338 456 335 q 440 342 449 342 q 397 340 411 342 l 338 338 q 235 336 326 336 l 150 336 l 147 336 q 135 321 139 336 l 132 307 l 126 281 q 108 200 124 272 q 94 139 104 176 q 82 93 92 111 q 75 74 79 89 q 68 49 71 58 q 58 13 64 38 q 56 6 57 11 q 51 1 54 1 q 43 0 49 0 l 15 0 m 281 431 q 328 433 297 433 l 403 432 q 421 442 421 432 q 411 472 421 449 q 386 550 403 493 q 361 629 374 596 q 331 728 347 671 q 313 801 315 785 q 285 875 292 875 q 271 838 281 875 l 263 807 q 238 713 253 769 q 210 618 222 657 q 187 527 201 582 q 164 451 172 472 q 161 442 161 443 q 170 429 161 432 q 188 427 179 426 q 200 428 197 428 l 281 431 z "},"Á":{"ha":660,"x_min":3,"x_max":667,"o":"m 15 0 q 8 18 3 0 q 10 25 8 22 q 11 32 10 28 q 15 44 13 36 l 28 96 q 38 125 31 104 q 47 164 44 146 q 74 265 54 197 l 85 304 q 118 425 111 390 l 138 499 q 154 557 151 544 q 182 661 164 599 l 192 700 l 200 729 q 224 797 214 776 q 244 855 226 806 q 267 933 261 904 q 287 983 276 967 q 315 1000 297 1000 q 329 988 322 1000 q 343 957 336 975 q 353 931 350 939 q 392 799 364 904 l 403 760 q 449 624 404 749 l 475 547 l 500 482 q 550 349 539 372 q 607 171 599 201 q 638 81 617 135 q 663 19 660 26 q 667 6 667 10 q 651 0 667 0 l 574 0 q 565 2 568 0 q 558 13 561 4 q 543 63 553 28 q 526 125 531 97 q 513 175 522 146 q 497 219 504 204 q 475 279 485 246 l 463 319 q 452 338 456 335 q 440 342 449 342 q 397 340 411 342 l 338 338 q 235 336 326 336 l 150 336 l 147 336 q 135 321 139 336 l 132 307 l 126 281 q 108 200 124 272 q 94 139 104 176 q 82 93 92 111 q 75 74 79 89 q 68 49 71 58 q 58 13 64 38 q 56 6 57 11 q 51 1 54 1 q 43 0 49 0 l 15 0 m 281 431 q 328 433 297 433 l 403 432 q 421 442 421 432 q 411 472 421 449 q 386 550 403 493 q 361 629 374 596 q 331 728 347 671 q 313 801 315 785 q 285 875 292 875 q 271 838 281 875 l 263 807 q 238 713 253 769 q 210 618 222 657 q 187 527 201 582 q 164 451 172 472 q 161 442 161 443 q 170 429 161 432 q 188 427 179 426 q 200 428 197 428 l 281 431 z "},"Ă":{"ha":660,"x_min":3,"x_max":667,"o":"m 15 0 q 8 18 3 0 q 10 25 8 22 q 11 32 10 28 q 15 44 13 36 l 28 96 q 38 125 31 104 q 47 164 44 146 q 74 265 54 197 l 85 304 q 118 425 111 390 l 138 499 q 154 557 151 544 q 182 661 164 599 l 192 700 l 200 729 q 224 797 214 776 q 244 855 226 806 q 267 933 261 904 q 287 983 276 967 q 315 1000 297 1000 q 329 988 322 1000 q 343 957 336 975 q 353 931 350 939 q 392 799 364 904 l 403 760 q 449 624 404 749 l 475 547 l 500 482 q 550 349 539 372 q 607 171 599 201 q 638 81 617 135 q 663 19 660 26 q 667 6 667 10 q 651 0 667 0 l 574 0 q 565 2 568 0 q 558 13 561 4 q 543 63 553 28 q 526 125 531 97 q 513 175 522 146 q 497 219 504 204 q 475 279 485 246 l 463 319 q 452 338 456 335 q 440 342 449 342 q 397 340 411 342 l 338 338 q 235 336 326 336 l 150 336 l 147 336 q 135 321 139 336 l 132 307 l 126 281 q 108 200 124 272 q 94 139 104 176 q 82 93 92 111 q 75 74 79 89 q 68 49 71 58 q 58 13 64 38 q 56 6 57 11 q 51 1 54 1 q 43 0 49 0 l 15 0 m 281 431 q 328 433 297 433 l 403 432 q 421 442 421 432 q 411 472 421 449 q 386 550 403 493 q 361 629 374 596 q 331 728 347 671 q 313 801 315 785 q 285 875 292 875 q 271 838 281 875 l 263 807 q 238 713 253 769 q 210 618 222 657 q 187 527 201 582 q 164 451 172 472 q 161 442 161 443 q 170 429 161 432 q 188 427 179 426 q 200 428 197 428 l 281 431 z "},"Ắ":{"ha":660,"x_min":3,"x_max":667,"o":"m 15 0 q 8 18 3 0 q 10 25 8 22 q 11 32 10 28 q 15 44 13 36 l 28 96 q 38 125 31 104 q 47 164 44 146 q 74 265 54 197 l 85 304 q 118 425 111 390 l 138 499 q 154 557 151 544 q 182 661 164 599 l 192 700 l 200 729 q 224 797 214 776 q 244 855 226 806 q 267 933 261 904 q 287 983 276 967 q 315 1000 297 1000 q 329 988 322 1000 q 343 957 336 975 q 353 931 350 939 q 392 799 364 904 l 403 760 q 449 624 404 749 l 475 547 l 500 482 q 550 349 539 372 q 607 171 599 201 q 638 81 617 135 q 663 19 660 26 q 667 6 667 10 q 651 0 667 0 l 574 0 q 565 2 568 0 q 558 13 561 4 q 543 63 553 28 q 526 125 531 97 q 513 175 522 146 q 497 219 504 204 q 475 279 485 246 l 463 319 q 452 338 456 335 q 440 342 449 342 q 397 340 411 342 l 338 338 q 235 336 326 336 l 150 336 l 147 336 q 135 321 139 336 l 132 307 l 126 281 q 108 200 124 272 q 94 139 104 176 q 82 93 92 111 q 75 74 79 89 q 68 49 71 58 q 58 13 64 38 q 56 6 57 11 q 51 1 54 1 q 43 0 49 0 l 15 0 m 281 431 q 328 433 297 433 l 403 432 q 421 442 421 432 q 411 472 421 449 q 386 550 403 493 q 361 629 374 596 q 331 728 347 671 q 313 801 315 785 q 285 875 292 875 q 271 838 281 875 l 263 807 q 238 713 253 769 q 210 618 222 657 q 187 527 201 582 q 164 451 172 472 q 161 442 161 443 q 170 429 161 432 q 188 427 179 426 q 200 428 197 428 l 281 431 z "},"Ặ":{"ha":660,"x_min":3,"x_max":667,"o":"m 15 0 q 8 18 3 0 q 10 25 8 22 q 11 32 10 28 q 15 44 13 36 l 28 96 q 38 125 31 104 q 47 164 44 146 q 74 265 54 197 l 85 304 q 118 425 111 390 l 138 499 q 154 557 151 544 q 182 661 164 599 l 192 700 l 200 729 q 224 797 214 776 q 244 855 226 806 q 267 933 261 904 q 287 983 276 967 q 315 1000 297 1000 q 329 988 322 1000 q 343 957 336 975 q 353 931 350 939 q 392 799 364 904 l 403 760 q 449 624 404 749 l 475 547 l 500 482 q 550 349 539 372 q 607 171 599 201 q 638 81 617 135 q 663 19 660 26 q 667 6 667 10 q 651 0 667 0 l 574 0 q 565 2 568 0 q 558 13 561 4 q 543 63 553 28 q 526 125 531 97 q 513 175 522 146 q 497 219 504 204 q 475 279 485 246 l 463 319 q 452 338 456 335 q 440 342 449 342 q 397 340 411 342 l 338 338 q 235 336 326 336 l 150 336 l 147 336 q 135 321 139 336 l 132 307 l 126 281 q 108 200 124 272 q 94 139 104 176 q 82 93 92 111 q 75 74 79 89 q 68 49 71 58 q 58 13 64 38 q 56 6 57 11 q 51 1 54 1 q 43 0 49 0 l 15 0 m 281 431 q 328 433 297 433 l 403 432 q 421 442 421 432 q 411 472 421 449 q 386 550 403 493 q 361 629 374 596 q 331 728 347 671 q 313 801 315 785 q 285 875 292 875 q 271 838 281 875 l 263 807 q 238 713 253 769 q 210 618 222 657 q 187 527 201 582 q 164 451 172 472 q 161 442 161 443 q 170 429 161 432 q 188 427 179 426 q 200 428 197 428 l 281 431 m 307 -225 q 249 -201 275 -225 q 222 -140 222 -176 q 246 -84 222 -110 q 301 -58 269 -58 q 369 -78 339 -58 q 399 -133 399 -99 q 369 -200 399 -175 q 307 -225 339 -225 z "},"Ằ":{"ha":660,"x_min":3,"x_max":667,"o":"m 15 0 q 8 18 3 0 q 10 25 8 22 q 11 32 10 28 q 15 44 13 36 l 28 96 q 38 125 31 104 q 47 164 44 146 q 74 265 54 197 l 85 304 q 118 425 111 390 l 138 499 q 154 557 151 544 q 182 661 164 599 l 192 700 l 200 729 q 224 797 214 776 q 244 855 226 806 q 267 933 261 904 q 287 983 276 967 q 315 1000 297 1000 q 329 988 322 1000 q 343 957 336 975 q 353 931 350 939 q 392 799 364 904 l 403 760 q 449 624 404 749 l 475 547 l 500 482 q 550 349 539 372 q 607 171 599 201 q 638 81 617 135 q 663 19 660 26 q 667 6 667 10 q 651 0 667 0 l 574 0 q 565 2 568 0 q 558 13 561 4 q 543 63 553 28 q 526 125 531 97 q 513 175 522 146 q 497 219 504 204 q 475 279 485 246 l 463 319 q 452 338 456 335 q 440 342 449 342 q 397 340 411 342 l 338 338 q 235 336 326 336 l 150 336 l 147 336 q 135 321 139 336 l 132 307 l 126 281 q 108 200 124 272 q 94 139 104 176 q 82 93 92 111 q 75 74 79 89 q 68 49 71 58 q 58 13 64 38 q 56 6 57 11 q 51 1 54 1 q 43 0 49 0 l 15 0 m 281 431 q 328 433 297 433 l 403 432 q 421 442 421 432 q 411 472 421 449 q 386 550 403 493 q 361 629 374 596 q 331 728 347 671 q 313 801 315 785 q 285 875 292 875 q 271 838 281 875 l 263 807 q 238 713 253 769 q 210 618 222 657 q 187 527 201 582 q 164 451 172 472 q 161 442 161 443 q 170 429 161 432 q 188 427 179 426 q 200 428 197 428 l 281 431 z "},"Ẳ":{"ha":660,"x_min":3,"x_max":667,"o":"m 15 0 q 8 18 3 0 q 10 25 8 22 q 11 32 10 28 q 15 44 13 36 l 28 96 q 38 125 31 104 q 47 164 44 146 q 74 265 54 197 l 85 304 q 118 425 111 390 l 138 499 q 154 557 151 544 q 182 661 164 599 l 192 700 l 200 729 q 224 797 214 776 q 244 855 226 806 q 267 933 261 904 q 287 983 276 967 q 315 1000 297 1000 q 329 988 322 1000 q 343 957 336 975 q 353 931 350 939 q 392 799 364 904 l 403 760 q 449 624 404 749 l 475 547 l 500 482 q 550 349 539 372 q 607 171 599 201 q 638 81 617 135 q 663 19 660 26 q 667 6 667 10 q 651 0 667 0 l 574 0 q 565 2 568 0 q 558 13 561 4 q 543 63 553 28 q 526 125 531 97 q 513 175 522 146 q 497 219 504 204 q 475 279 485 246 l 463 319 q 452 338 456 335 q 440 342 449 342 q 397 340 411 342 l 338 338 q 235 336 326 336 l 150 336 l 147 336 q 135 321 139 336 l 132 307 l 126 281 q 108 200 124 272 q 94 139 104 176 q 82 93 92 111 q 75 74 79 89 q 68 49 71 58 q 58 13 64 38 q 56 6 57 11 q 51 1 54 1 q 43 0 49 0 l 15 0 m 281 431 q 328 433 297 433 l 403 432 q 421 442 421 432 q 411 472 421 449 q 386 550 403 493 q 361 629 374 596 q 331 728 347 671 q 313 801 315 785 q 285 875 292 875 q 271 838 281 875 l 263 807 q 238 713 253 769 q 210 618 222 657 q 187 527 201 582 q 164 451 172 472 q 161 442 161 443 q 170 429 161 432 q 188 427 179 426 q 200 428 197 428 l 281 431 m 286 1189 q 269 1203 278 1189 q 260 1224 260 1217 q 268 1242 260 1235 q 292 1257 276 1249 q 327 1280 315 1268 q 339 1315 339 1292 q 328 1347 339 1335 q 296 1360 317 1360 q 259 1347 276 1360 q 238 1333 242 1333 q 201 1360 228 1333 q 194 1367 201 1360 q 192 1382 186 1375 q 231 1415 208 1400 q 270 1434 247 1426 q 311 1442 293 1442 q 362 1431 338 1442 q 401 1400 386 1421 q 422 1314 422 1372 q 381 1224 422 1260 q 286 1189 340 1189 z "},"Ẵ":{"ha":660,"x_min":3,"x_max":667,"o":"m 15 0 q 8 18 3 0 q 10 25 8 22 q 11 32 10 28 q 15 44 13 36 l 28 96 q 38 125 31 104 q 47 164 44 146 q 74 265 54 197 l 85 304 q 118 425 111 390 l 138 499 q 154 557 151 544 q 182 661 164 599 l 192 700 l 200 729 q 224 797 214 776 q 244 855 226 806 q 267 933 261 904 q 287 983 276 967 q 315 1000 297 1000 q 329 988 322 1000 q 343 957 336 975 q 353 931 350 939 q 392 799 364 904 l 403 760 q 449 624 404 749 l 475 547 l 500 482 q 550 349 539 372 q 607 171 599 201 q 638 81 617 135 q 663 19 660 26 q 667 6 667 10 q 651 0 667 0 l 574 0 q 565 2 568 0 q 558 13 561 4 q 543 63 553 28 q 526 125 531 97 q 513 175 522 146 q 497 219 504 204 q 475 279 485 246 l 463 319 q 452 338 456 335 q 440 342 449 342 q 397 340 411 342 l 338 338 q 235 336 326 336 l 150 336 l 147 336 q 135 321 139 336 l 132 307 l 126 281 q 108 200 124 272 q 94 139 104 176 q 82 93 92 111 q 75 74 79 89 q 68 49 71 58 q 58 13 64 38 q 56 6 57 11 q 51 1 54 1 q 43 0 49 0 l 15 0 m 281 431 q 328 433 297 433 l 403 432 q 421 442 421 432 q 411 472 421 449 q 386 550 403 493 q 361 629 374 596 q 331 728 347 671 q 313 801 315 785 q 285 875 292 875 q 271 838 281 875 l 263 807 q 238 713 253 769 q 210 618 222 657 q 187 527 201 582 q 164 451 172 472 q 161 442 161 443 q 170 429 161 432 q 188 427 179 426 q 200 428 197 428 l 281 431 z "},"Ǎ":{"ha":660,"x_min":3,"x_max":667,"o":"m 15 0 q 8 18 3 0 q 10 25 8 22 q 11 32 10 28 q 15 44 13 36 l 28 96 q 38 125 31 104 q 47 164 44 146 q 74 265 54 197 l 85 304 q 118 425 111 390 l 138 499 q 154 557 151 544 q 182 661 164 599 l 192 700 l 200 729 q 224 797 214 776 q 244 855 226 806 q 267 933 261 904 q 287 983 276 967 q 315 1000 297 1000 q 329 988 322 1000 q 343 957 336 975 q 353 931 350 939 q 392 799 364 904 l 403 760 q 449 624 404 749 l 475 547 l 500 482 q 550 349 539 372 q 607 171 599 201 q 638 81 617 135 q 663 19 660 26 q 667 6 667 10 q 651 0 667 0 l 574 0 q 565 2 568 0 q 558 13 561 4 q 543 63 553 28 q 526 125 531 97 q 513 175 522 146 q 497 219 504 204 q 475 279 485 246 l 463 319 q 452 338 456 335 q 440 342 449 342 q 397 340 411 342 l 338 338 q 235 336 326 336 l 150 336 l 147 336 q 135 321 139 336 l 132 307 l 126 281 q 108 200 124 272 q 94 139 104 176 q 82 93 92 111 q 75 74 79 89 q 68 49 71 58 q 58 13 64 38 q 56 6 57 11 q 51 1 54 1 q 43 0 49 0 l 15 0 m 281 431 q 328 433 297 433 l 403 432 q 421 442 421 432 q 411 472 421 449 q 386 550 403 493 q 361 629 374 596 q 331 728 347 671 q 313 801 315 785 q 285 875 292 875 q 271 838 281 875 l 263 807 q 238 713 253 769 q 210 618 222 657 q 187 527 201 582 q 164 451 172 472 q 161 442 161 443 q 170 429 161 432 q 188 427 179 426 q 200 428 197 428 l 281 431 z "},"Â":{"ha":660,"x_min":3,"x_max":667,"o":"m 15 0 q 8 18 3 0 q 10 25 8 22 q 11 32 10 28 q 15 44 13 36 l 28 96 q 38 125 31 104 q 47 164 44 146 q 74 265 54 197 l 85 304 q 118 425 111 390 l 138 499 q 154 557 151 544 q 182 661 164 599 l 192 700 l 200 729 q 224 797 214 776 q 244 855 226 806 q 267 933 261 904 q 287 983 276 967 q 315 1000 297 1000 q 329 988 322 1000 q 343 957 336 975 q 353 931 350 939 q 392 799 364 904 l 403 760 q 449 624 404 749 l 475 547 l 500 482 q 550 349 539 372 q 607 171 599 201 q 638 81 617 135 q 663 19 660 26 q 667 6 667 10 q 651 0 667 0 l 574 0 q 565 2 568 0 q 558 13 561 4 q 543 63 553 28 q 526 125 531 97 q 513 175 522 146 q 497 219 504 204 q 475 279 485 246 l 463 319 q 452 338 456 335 q 440 342 449 342 q 397 340 411 342 l 338 338 q 235 336 326 336 l 150 336 l 147 336 q 135 321 139 336 l 132 307 l 126 281 q 108 200 124 272 q 94 139 104 176 q 82 93 92 111 q 75 74 79 89 q 68 49 71 58 q 58 13 64 38 q 56 6 57 11 q 51 1 54 1 q 43 0 49 0 l 15 0 m 281 431 q 328 433 297 433 l 403 432 q 421 442 421 432 q 411 472 421 449 q 386 550 403 493 q 361 629 374 596 q 331 728 347 671 q 313 801 315 785 q 285 875 292 875 q 271 838 281 875 l 263 807 q 238 713 253 769 q 210 618 222 657 q 187 527 201 582 q 164 451 172 472 q 161 442 161 443 q 170 429 161 432 q 188 427 179 426 q 200 428 197 428 l 281 431 z "},"Ấ":{"ha":660,"x_min":3,"x_max":667,"o":"m 15 0 q 8 18 3 0 q 10 25 8 22 q 11 32 10 28 q 15 44 13 36 l 28 96 q 38 125 31 104 q 47 164 44 146 q 74 265 54 197 l 85 304 q 118 425 111 390 l 138 499 q 154 557 151 544 q 182 661 164 599 l 192 700 l 200 729 q 224 797 214 776 q 244 855 226 806 q 267 933 261 904 q 287 983 276 967 q 315 1000 297 1000 q 329 988 322 1000 q 343 957 336 975 q 353 931 350 939 q 392 799 364 904 l 403 760 q 449 624 404 749 l 475 547 l 500 482 q 550 349 539 372 q 607 171 599 201 q 638 81 617 135 q 663 19 660 26 q 667 6 667 10 q 651 0 667 0 l 574 0 q 565 2 568 0 q 558 13 561 4 q 543 63 553 28 q 526 125 531 97 q 513 175 522 146 q 497 219 504 204 q 475 279 485 246 l 463 319 q 452 338 456 335 q 440 342 449 342 q 397 340 411 342 l 338 338 q 235 336 326 336 l 150 336 l 147 336 q 135 321 139 336 l 132 307 l 126 281 q 108 200 124 272 q 94 139 104 176 q 82 93 92 111 q 75 74 79 89 q 68 49 71 58 q 58 13 64 38 q 56 6 57 11 q 51 1 54 1 q 43 0 49 0 l 15 0 m 281 431 q 328 433 297 433 l 403 432 q 421 442 421 432 q 411 472 421 449 q 386 550 403 493 q 361 629 374 596 q 331 728 347 671 q 313 801 315 785 q 285 875 292 875 q 271 838 281 875 l 263 807 q 238 713 253 769 q 210 618 222 657 q 187 527 201 582 q 164 451 172 472 q 161 442 161 443 q 170 429 161 432 q 188 427 179 426 q 200 428 197 428 l 281 431 z "},"Ậ":{"ha":660,"x_min":3,"x_max":667,"o":"m 15 0 q 8 18 3 0 q 10 25 8 22 q 11 32 10 28 q 15 44 13 36 l 28 96 q 38 125 31 104 q 47 164 44 146 q 74 265 54 197 l 85 304 q 118 425 111 390 l 138 499 q 154 557 151 544 q 182 661 164 599 l 192 700 l 200 729 q 224 797 214 776 q 244 855 226 806 q 267 933 261 904 q 287 983 276 967 q 315 1000 297 1000 q 329 988 322 1000 q 343 957 336 975 q 353 931 350 939 q 392 799 364 904 l 403 760 q 449 624 404 749 l 475 547 l 500 482 q 550 349 539 372 q 607 171 599 201 q 638 81 617 135 q 663 19 660 26 q 667 6 667 10 q 651 0 667 0 l 574 0 q 565 2 568 0 q 558 13 561 4 q 543 63 553 28 q 526 125 531 97 q 513 175 522 146 q 497 219 504 204 q 475 279 485 246 l 463 319 q 452 338 456 335 q 440 342 449 342 q 397 340 411 342 l 338 338 q 235 336 326 336 l 150 336 l 147 336 q 135 321 139 336 l 132 307 l 126 281 q 108 200 124 272 q 94 139 104 176 q 82 93 92 111 q 75 74 79 89 q 68 49 71 58 q 58 13 64 38 q 56 6 57 11 q 51 1 54 1 q 43 0 49 0 l 15 0 m 281 431 q 328 433 297 433 l 403 432 q 421 442 421 432 q 411 472 421 449 q 386 550 403 493 q 361 629 374 596 q 331 728 347 671 q 313 801 315 785 q 285 875 292 875 q 271 838 281 875 l 263 807 q 238 713 253 769 q 210 618 222 657 q 187 527 201 582 q 164 451 172 472 q 161 442 161 443 q 170 429 161 432 q 188 427 179 426 q 200 428 197 428 l 281 431 m 307 -225 q 249 -201 275 -225 q 222 -140 222 -176 q 246 -84 222 -110 q 301 -58 269 -58 q 369 -78 339 -58 q 399 -133 399 -99 q 369 -200 399 -175 q 307 -225 339 -225 z "},"Ầ":{"ha":660,"x_min":3,"x_max":667,"o":"m 15 0 q 8 18 3 0 q 10 25 8 22 q 11 32 10 28 q 15 44 13 36 l 28 96 q 38 125 31 104 q 47 164 44 146 q 74 265 54 197 l 85 304 q 118 425 111 390 l 138 499 q 154 557 151 544 q 182 661 164 599 l 192 700 l 200 729 q 224 797 214 776 q 244 855 226 806 q 267 933 261 904 q 287 983 276 967 q 315 1000 297 1000 q 329 988 322 1000 q 343 957 336 975 q 353 931 350 939 q 392 799 364 904 l 403 760 q 449 624 404 749 l 475 547 l 500 482 q 550 349 539 372 q 607 171 599 201 q 638 81 617 135 q 663 19 660 26 q 667 6 667 10 q 651 0 667 0 l 574 0 q 565 2 568 0 q 558 13 561 4 q 543 63 553 28 q 526 125 531 97 q 513 175 522 146 q 497 219 504 204 q 475 279 485 246 l 463 319 q 452 338 456 335 q 440 342 449 342 q 397 340 411 342 l 338 338 q 235 336 326 336 l 150 336 l 147 336 q 135 321 139 336 l 132 307 l 126 281 q 108 200 124 272 q 94 139 104 176 q 82 93 92 111 q 75 74 79 89 q 68 49 71 58 q 58 13 64 38 q 56 6 57 11 q 51 1 54 1 q 43 0 49 0 l 15 0 m 281 431 q 328 433 297 433 l 403 432 q 421 442 421 432 q 411 472 421 449 q 386 550 403 493 q 361 629 374 596 q 331 728 347 671 q 313 801 315 785 q 285 875 292 875 q 271 838 281 875 l 263 807 q 238 713 253 769 q 210 618 222 657 q 187 527 201 582 q 164 451 172 472 q 161 442 161 443 q 170 429 161 432 q 188 427 179 426 q 200 428 197 428 l 281 431 z "},"Ẩ":{"ha":660,"x_min":3,"x_max":667,"o":"m 15 0 q 8 18 3 0 q 10 25 8 22 q 11 32 10 28 q 15 44 13 36 l 28 96 q 38 125 31 104 q 47 164 44 146 q 74 265 54 197 l 85 304 q 118 425 111 390 l 138 499 q 154 557 151 544 q 182 661 164 599 l 192 700 l 200 729 q 224 797 214 776 q 244 855 226 806 q 267 933 261 904 q 287 983 276 967 q 315 1000 297 1000 q 329 988 322 1000 q 343 957 336 975 q 353 931 350 939 q 392 799 364 904 l 403 760 q 449 624 404 749 l 475 547 l 500 482 q 550 349 539 372 q 607 171 599 201 q 638 81 617 135 q 663 19 660 26 q 667 6 667 10 q 651 0 667 0 l 574 0 q 565 2 568 0 q 558 13 561 4 q 543 63 553 28 q 526 125 531 97 q 513 175 522 146 q 497 219 504 204 q 475 279 485 246 l 463 319 q 452 338 456 335 q 440 342 449 342 q 397 340 411 342 l 338 338 q 235 336 326 336 l 150 336 l 147 336 q 135 321 139 336 l 132 307 l 126 281 q 108 200 124 272 q 94 139 104 176 q 82 93 92 111 q 75 74 79 89 q 68 49 71 58 q 58 13 64 38 q 56 6 57 11 q 51 1 54 1 q 43 0 49 0 l 15 0 m 281 431 q 328 433 297 433 l 403 432 q 421 442 421 432 q 411 472 421 449 q 386 550 403 493 q 361 629 374 596 q 331 728 347 671 q 313 801 315 785 q 285 875 292 875 q 271 838 281 875 l 263 807 q 238 713 253 769 q 210 618 222 657 q 187 527 201 582 q 164 451 172 472 q 161 442 161 443 q 170 429 161 432 q 188 427 179 426 q 200 428 197 428 l 281 431 m 286 1193 q 269 1207 278 1193 q 260 1228 260 1221 q 268 1246 260 1239 q 292 1261 276 1253 q 327 1284 315 1272 q 339 1319 339 1296 q 328 1351 339 1339 q 296 1364 317 1364 q 259 1351 276 1364 q 238 1338 242 1338 q 201 1364 228 1338 q 194 1372 201 1364 q 192 1386 186 1379 q 231 1419 208 1404 q 270 1438 247 1431 q 311 1446 293 1446 q 362 1435 338 1446 q 401 1404 386 1425 q 422 1318 422 1376 q 381 1228 422 1264 q 286 1193 340 1193 z "},"Ẫ":{"ha":660,"x_min":3,"x_max":667,"o":"m 15 0 q 8 18 3 0 q 10 25 8 22 q 11 32 10 28 q 15 44 13 36 l 28 96 q 38 125 31 104 q 47 164 44 146 q 74 265 54 197 l 85 304 q 118 425 111 390 l 138 499 q 154 557 151 544 q 182 661 164 599 l 192 700 l 200 729 q 224 797 214 776 q 244 855 226 806 q 267 933 261 904 q 287 983 276 967 q 315 1000 297 1000 q 329 988 322 1000 q 343 957 336 975 q 353 931 350 939 q 392 799 364 904 l 403 760 q 449 624 404 749 l 475 547 l 500 482 q 550 349 539 372 q 607 171 599 201 q 638 81 617 135 q 663 19 660 26 q 667 6 667 10 q 651 0 667 0 l 574 0 q 565 2 568 0 q 558 13 561 4 q 543 63 553 28 q 526 125 531 97 q 513 175 522 146 q 497 219 504 204 q 475 279 485 246 l 463 319 q 452 338 456 335 q 440 342 449 342 q 397 340 411 342 l 338 338 q 235 336 326 336 l 150 336 l 147 336 q 135 321 139 336 l 132 307 l 126 281 q 108 200 124 272 q 94 139 104 176 q 82 93 92 111 q 75 74 79 89 q 68 49 71 58 q 58 13 64 38 q 56 6 57 11 q 51 1 54 1 q 43 0 49 0 l 15 0 m 281 431 q 328 433 297 433 l 403 432 q 421 442 421 432 q 411 472 421 449 q 386 550 403 493 q 361 629 374 596 q 331 728 347 671 q 313 801 315 785 q 285 875 292 875 q 271 838 281 875 l 263 807 q 238 713 253 769 q 210 618 222 657 q 187 527 201 582 q 164 451 172 472 q 161 442 161 443 q 170 429 161 432 q 188 427 179 426 q 200 428 197 428 l 281 431 z "},"Ȁ":{"ha":660,"x_min":-18,"x_max":667,"o":"m 15 0 q 8 18 3 0 q 10 25 8 22 q 11 32 10 28 q 15 44 13 36 l 28 96 q 38 125 31 104 q 47 164 44 146 q 74 265 54 197 l 85 304 q 118 425 111 390 l 138 499 q 154 557 151 544 q 182 661 164 599 l 192 700 l 200 729 q 224 797 214 776 q 244 855 226 806 q 267 933 261 904 q 287 983 276 967 q 315 1000 297 1000 q 329 988 322 1000 q 343 957 336 975 q 353 931 350 939 q 392 799 364 904 l 403 760 q 449 624 404 749 l 475 547 l 500 482 q 550 349 539 372 q 607 171 599 201 q 638 81 617 135 q 663 19 660 26 q 667 6 667 10 q 651 0 667 0 l 574 0 q 565 2 568 0 q 558 13 561 4 q 543 63 553 28 q 526 125 531 97 q 513 175 522 146 q 497 219 504 204 q 475 279 485 246 l 463 319 q 452 338 456 335 q 440 342 449 342 q 397 340 411 342 l 338 338 q 235 336 326 336 l 150 336 l 147 336 q 135 321 139 336 l 132 307 l 126 281 q 108 200 124 272 q 94 139 104 176 q 82 93 92 111 q 75 74 79 89 q 68 49 71 58 q 58 13 64 38 q 56 6 57 11 q 51 1 54 1 q 43 0 49 0 l 15 0 m 281 431 q 328 433 297 433 l 403 432 q 421 442 421 432 q 411 472 421 449 q 386 550 403 493 q 361 629 374 596 q 331 728 347 671 q 313 801 315 785 q 285 875 292 875 q 271 838 281 875 l 263 807 q 238 713 253 769 q 210 618 222 657 q 187 527 201 582 q 164 451 172 472 q 161 442 161 443 q 170 429 161 432 q 188 427 179 426 q 200 428 197 428 l 281 431 m 214 1021 q 190 1026 204 1021 q 169 1033 175 1032 q 97 1063 131 1051 q 51 1079 64 1075 q -17 1126 -10 1101 q -18 1142 -18 1132 q 7 1165 -18 1165 l 35 1163 q 83 1153 65 1158 l 114 1142 q 168 1122 146 1128 q 199 1110 190 1115 q 240 1094 214 1106 q 268 1075 267 1082 q 271 1061 271 1064 q 243 1031 271 1040 q 214 1021 228 1021 m 489 1021 q 465 1026 479 1021 q 444 1033 450 1032 q 326 1079 389 1057 q 258 1126 265 1101 q 257 1142 257 1132 q 282 1165 257 1165 l 310 1163 q 358 1153 340 1158 l 389 1142 q 443 1122 421 1128 q 474 1110 465 1115 q 515 1094 489 1106 q 543 1075 542 1082 q 546 1061 546 1064 q 518 1031 546 1040 q 489 1021 503 1021 z "},"Ä":{"ha":660,"x_min":3,"x_max":667,"o":"m 15 0 q 8 18 3 0 q 10 25 8 22 q 11 32 10 28 q 15 44 13 36 l 28 96 q 38 125 31 104 q 47 164 44 146 q 74 265 54 197 l 85 304 q 118 425 111 390 l 138 499 q 154 557 151 544 q 182 661 164 599 l 192 700 l 200 729 q 224 797 214 776 q 244 855 226 806 q 267 933 261 904 q 287 983 276 967 q 315 1000 297 1000 q 329 988 322 1000 q 343 957 336 975 q 353 931 350 939 q 392 799 364 904 l 403 760 q 449 624 404 749 l 475 547 l 500 482 q 550 349 539 372 q 607 171 599 201 q 638 81 617 135 q 663 19 660 26 q 667 6 667 10 q 651 0 667 0 l 574 0 q 565 2 568 0 q 558 13 561 4 q 543 63 553 28 q 526 125 531 97 q 513 175 522 146 q 497 219 504 204 q 475 279 485 246 l 463 319 q 452 338 456 335 q 440 342 449 342 q 397 340 411 342 l 338 338 q 235 336 326 336 l 150 336 l 147 336 q 135 321 139 336 l 132 307 l 126 281 q 108 200 124 272 q 94 139 104 176 q 82 93 92 111 q 75 74 79 89 q 68 49 71 58 q 58 13 64 38 q 56 6 57 11 q 51 1 54 1 q 43 0 49 0 l 15 0 m 281 431 q 328 433 297 433 l 403 432 q 421 442 421 432 q 411 472 421 449 q 386 550 403 493 q 361 629 374 596 q 331 728 347 671 q 313 801 315 785 q 285 875 292 875 q 271 838 281 875 l 263 807 q 238 713 253 769 q 210 618 222 657 q 187 527 201 582 q 164 451 172 472 q 161 442 161 443 q 170 429 161 432 q 188 427 179 426 q 200 428 197 428 l 281 431 m 457 1015 q 394 1042 417 1015 q 371 1118 371 1069 q 394 1162 371 1146 q 457 1178 417 1178 q 513 1155 493 1178 q 532 1090 532 1132 q 512 1035 532 1056 q 457 1015 492 1015 m 172 1010 q 105 1028 129 1010 q 81 1081 81 1047 q 103 1144 81 1121 q 167 1167 126 1167 q 226 1146 206 1167 q 247 1086 247 1125 q 228 1030 247 1050 q 172 1010 208 1010 z "},"Ạ":{"ha":660,"x_min":3,"x_max":667,"o":"m 15 0 q 8 18 3 0 q 10 25 8 22 q 11 32 10 28 q 15 44 13 36 l 28 96 q 38 125 31 104 q 47 164 44 146 q 74 265 54 197 l 85 304 q 118 425 111 390 l 138 499 q 154 557 151 544 q 182 661 164 599 l 192 700 l 200 729 q 224 797 214 776 q 244 855 226 806 q 267 933 261 904 q 287 983 276 967 q 315 1000 297 1000 q 329 988 322 1000 q 343 957 336 975 q 353 931 350 939 q 392 799 364 904 l 403 760 q 449 624 404 749 l 475 547 l 500 482 q 550 349 539 372 q 607 171 599 201 q 638 81 617 135 q 663 19 660 26 q 667 6 667 10 q 651 0 667 0 l 574 0 q 565 2 568 0 q 558 13 561 4 q 543 63 553 28 q 526 125 531 97 q 513 175 522 146 q 497 219 504 204 q 475 279 485 246 l 463 319 q 452 338 456 335 q 440 342 449 342 q 397 340 411 342 l 338 338 q 235 336 326 336 l 150 336 l 147 336 q 135 321 139 336 l 132 307 l 126 281 q 108 200 124 272 q 94 139 104 176 q 82 93 92 111 q 75 74 79 89 q 68 49 71 58 q 58 13 64 38 q 56 6 57 11 q 51 1 54 1 q 43 0 49 0 l 15 0 m 281 431 q 328 433 297 433 l 403 432 q 421 442 421 432 q 411 472 421 449 q 386 550 403 493 q 361 629 374 596 q 331 728 347 671 q 313 801 315 785 q 285 875 292 875 q 271 838 281 875 l 263 807 q 238 713 253 769 q 210 618 222 657 q 187 527 201 582 q 164 451 172 472 q 161 442 161 443 q 170 429 161 432 q 188 427 179 426 q 200 428 197 428 l 281 431 m 307 -225 q 249 -201 275 -225 q 222 -140 222 -176 q 246 -84 222 -110 q 301 -58 269 -58 q 369 -78 339 -58 q 399 -133 399 -99 q 369 -200 399 -175 q 307 -225 339 -225 z "},"À":{"ha":660,"x_min":3,"x_max":667,"o":"m 15 0 q 8 18 3 0 q 10 25 8 22 q 11 32 10 28 q 15 44 13 36 l 28 96 q 38 125 31 104 q 47 164 44 146 q 74 265 54 197 l 85 304 q 118 425 111 390 l 138 499 q 154 557 151 544 q 182 661 164 599 l 192 700 l 200 729 q 224 797 214 776 q 244 855 226 806 q 267 933 261 904 q 287 983 276 967 q 315 1000 297 1000 q 329 988 322 1000 q 343 957 336 975 q 353 931 350 939 q 392 799 364 904 l 403 760 q 449 624 404 749 l 475 547 l 500 482 q 550 349 539 372 q 607 171 599 201 q 638 81 617 135 q 663 19 660 26 q 667 6 667 10 q 651 0 667 0 l 574 0 q 565 2 568 0 q 558 13 561 4 q 543 63 553 28 q 526 125 531 97 q 513 175 522 146 q 497 219 504 204 q 475 279 485 246 l 463 319 q 452 338 456 335 q 440 342 449 342 q 397 340 411 342 l 338 338 q 235 336 326 336 l 150 336 l 147 336 q 135 321 139 336 l 132 307 l 126 281 q 108 200 124 272 q 94 139 104 176 q 82 93 92 111 q 75 74 79 89 q 68 49 71 58 q 58 13 64 38 q 56 6 57 11 q 51 1 54 1 q 43 0 49 0 l 15 0 m 281 431 q 328 433 297 433 l 403 432 q 421 442 421 432 q 411 472 421 449 q 386 550 403 493 q 361 629 374 596 q 331 728 347 671 q 313 801 315 785 q 285 875 292 875 q 271 838 281 875 l 263 807 q 238 713 253 769 q 210 618 222 657 q 187 527 201 582 q 164 451 172 472 q 161 442 161 443 q 170 429 161 432 q 188 427 179 426 q 200 428 197 428 l 281 431 z "},"Ả":{"ha":660,"x_min":3,"x_max":667,"o":"m 15 0 q 8 18 3 0 q 10 25 8 22 q 11 32 10 28 q 15 44 13 36 l 28 96 q 38 125 31 104 q 47 164 44 146 q 74 265 54 197 l 85 304 q 118 425 111 390 l 138 499 q 154 557 151 544 q 182 661 164 599 l 192 700 l 200 729 q 224 797 214 776 q 244 855 226 806 q 267 933 261 904 q 287 983 276 967 q 315 1000 297 1000 q 329 988 322 1000 q 343 957 336 975 q 353 931 350 939 q 392 799 364 904 l 403 760 q 449 624 404 749 l 475 547 l 500 482 q 550 349 539 372 q 607 171 599 201 q 638 81 617 135 q 663 19 660 26 q 667 6 667 10 q 651 0 667 0 l 574 0 q 565 2 568 0 q 558 13 561 4 q 543 63 553 28 q 526 125 531 97 q 513 175 522 146 q 497 219 504 204 q 475 279 485 246 l 463 319 q 452 338 456 335 q 440 342 449 342 q 397 340 411 342 l 338 338 q 235 336 326 336 l 150 336 l 147 336 q 135 321 139 336 l 132 307 l 126 281 q 108 200 124 272 q 94 139 104 176 q 82 93 92 111 q 75 74 79 89 q 68 49 71 58 q 58 13 64 38 q 56 6 57 11 q 51 1 54 1 q 43 0 49 0 l 15 0 m 281 431 q 328 433 297 433 l 403 432 q 421 442 421 432 q 411 472 421 449 q 386 550 403 493 q 361 629 374 596 q 331 728 347 671 q 313 801 315 785 q 285 875 292 875 q 271 838 281 875 l 263 807 q 238 713 253 769 q 210 618 222 657 q 187 527 201 582 q 164 451 172 472 q 161 442 161 443 q 170 429 161 432 q 188 427 179 426 q 200 428 197 428 l 281 431 m 286 1011 q 269 1025 278 1011 q 260 1046 260 1039 q 268 1064 260 1057 q 292 1079 276 1071 q 327 1102 315 1090 q 339 1138 339 1114 q 328 1169 339 1157 q 296 1182 317 1182 q 259 1169 276 1182 q 238 1156 242 1156 q 201 1182 228 1156 q 194 1190 201 1182 q 192 1204 186 1197 q 231 1238 208 1222 q 270 1256 247 1249 q 311 1264 293 1264 q 362 1253 338 1264 q 401 1222 386 1243 q 422 1136 422 1194 q 381 1047 422 1082 q 286 1011 340 1011 z "},"Ȃ":{"ha":660,"x_min":3,"x_max":667,"o":"m 15 0 q 8 18 3 0 q 10 25 8 22 q 11 32 10 28 q 15 44 13 36 l 28 96 q 38 125 31 104 q 47 164 44 146 q 74 265 54 197 l 85 304 q 118 425 111 390 l 138 499 q 154 557 151 544 q 182 661 164 599 l 192 700 l 200 729 q 224 797 214 776 q 244 855 226 806 q 267 933 261 904 q 287 983 276 967 q 315 1000 297 1000 q 329 988 322 1000 q 343 957 336 975 q 353 931 350 939 q 392 799 364 904 l 403 760 q 449 624 404 749 l 475 547 l 500 482 q 550 349 539 372 q 607 171 599 201 q 638 81 617 135 q 663 19 660 26 q 667 6 667 10 q 651 0 667 0 l 574 0 q 565 2 568 0 q 558 13 561 4 q 543 63 553 28 q 526 125 531 97 q 513 175 522 146 q 497 219 504 204 q 475 279 485 246 l 463 319 q 452 338 456 335 q 440 342 449 342 q 397 340 411 342 l 338 338 q 235 336 326 336 l 150 336 l 147 336 q 135 321 139 336 l 132 307 l 126 281 q 108 200 124 272 q 94 139 104 176 q 82 93 92 111 q 75 74 79 89 q 68 49 71 58 q 58 13 64 38 q 56 6 57 11 q 51 1 54 1 q 43 0 49 0 l 15 0 m 281 431 q 328 433 297 433 l 403 432 q 421 442 421 432 q 411 472 421 449 q 386 550 403 493 q 361 629 374 596 q 331 728 347 671 q 313 801 315 785 q 285 875 292 875 q 271 838 281 875 l 263 807 q 238 713 253 769 q 210 618 222 657 q 187 527 201 582 q 164 451 172 472 q 161 442 161 443 q 170 429 161 432 q 188 427 179 426 q 200 428 197 428 l 281 431 m 444 1014 q 413 1016 418 1014 q 404 1028 407 1018 q 367 1082 396 1064 q 300 1100 338 1100 q 248 1081 272 1100 q 215 1039 224 1061 q 204 1019 210 1024 q 182 1015 199 1014 q 137 1021 147 1018 q 126 1032 126 1024 q 134 1074 126 1047 q 156 1117 142 1100 q 223 1172 189 1160 q 308 1183 257 1183 q 403 1167 365 1183 q 464 1110 442 1151 q 481 1069 478 1086 q 485 1031 485 1051 q 477 1017 485 1021 q 444 1014 469 1014 z "},"Ā":{"ha":660,"x_min":3,"x_max":667,"o":"m 15 0 q 8 18 3 0 q 10 25 8 22 q 11 32 10 28 q 15 44 13 36 l 28 96 q 38 125 31 104 q 47 164 44 146 q 74 265 54 197 l 85 304 q 118 425 111 390 l 138 499 q 154 557 151 544 q 182 661 164 599 l 192 700 l 200 729 q 224 797 214 776 q 244 855 226 806 q 267 933 261 904 q 287 983 276 967 q 315 1000 297 1000 q 329 988 322 1000 q 343 957 336 975 q 353 931 350 939 q 392 799 364 904 l 403 760 q 449 624 404 749 l 475 547 l 500 482 q 550 349 539 372 q 607 171 599 201 q 638 81 617 135 q 663 19 660 26 q 667 6 667 10 q 651 0 667 0 l 574 0 q 565 2 568 0 q 558 13 561 4 q 543 63 553 28 q 526 125 531 97 q 513 175 522 146 q 497 219 504 204 q 475 279 485 246 l 463 319 q 452 338 456 335 q 440 342 449 342 q 397 340 411 342 l 338 338 q 235 336 326 336 l 150 336 l 147 336 q 135 321 139 336 l 132 307 l 126 281 q 108 200 124 272 q 94 139 104 176 q 82 93 92 111 q 75 74 79 89 q 68 49 71 58 q 58 13 64 38 q 56 6 57 11 q 51 1 54 1 q 43 0 49 0 l 15 0 m 281 431 q 328 433 297 433 l 403 432 q 421 442 421 432 q 411 472 421 449 q 386 550 403 493 q 361 629 374 596 q 331 728 347 671 q 313 801 315 785 q 285 875 292 875 q 271 838 281 875 l 263 807 q 238 713 253 769 q 210 618 222 657 q 187 527 201 582 q 164 451 172 472 q 161 442 161 443 q 170 429 161 432 q 188 427 179 426 q 200 428 197 428 l 281 431 z "},"Ą":{"ha":660,"x_min":3,"x_max":693,"o":"m 665 -129 q 682 -143 671 -129 q 693 -164 693 -157 q 653 -212 693 -190 q 571 -236 613 -233 q 492 -218 531 -236 q 468 -190 476 -211 q 460 -136 460 -168 q 472 -90 460 -111 q 511 -40 485 -69 q 571 0 526 -24 q 558 13 564 0 q 543 63 553 28 q 526 125 531 97 q 513 175 522 146 q 497 219 504 204 q 475 279 485 246 l 463 319 q 452 338 456 335 q 440 342 449 342 q 397 340 411 342 l 338 338 q 235 336 326 336 l 150 336 l 147 336 q 135 321 139 336 l 132 307 l 126 281 q 108 200 124 272 q 94 139 104 176 q 82 93 92 111 q 75 74 79 89 q 68 49 71 58 q 58 13 64 38 q 56 6 57 11 q 51 1 54 1 q 43 0 49 0 l 15 0 q 8 18 3 0 q 10 25 8 22 q 11 32 10 28 q 15 44 13 36 l 28 96 q 38 125 31 104 q 47 164 44 146 q 74 265 54 197 l 85 304 q 118 425 111 390 l 138 499 q 154 557 151 544 q 182 661 164 599 l 192 700 l 200 729 q 224 797 214 776 q 244 855 226 806 q 267 933 261 904 q 287 983 276 967 q 315 1000 297 1000 q 329 988 322 1000 q 343 957 336 975 q 353 931 350 939 q 392 799 364 904 l 403 760 q 449 624 404 749 l 475 547 l 500 482 q 550 349 539 372 q 607 171 599 201 q 638 81 617 135 q 663 19 660 26 q 667 6 667 10 q 665 3 667 3 l 667 1 q 580 -60 604 -37 q 556 -104 556 -82 q 568 -131 556 -115 q 594 -147 581 -147 q 647 -138 633 -147 q 665 -129 661 -129 m 403 432 q 421 442 421 432 q 411 472 421 449 q 386 550 403 493 q 361 629 374 596 q 331 728 347 671 q 313 801 315 785 q 285 875 292 875 q 271 838 281 875 l 263 807 q 238 713 253 769 q 210 618 222 657 q 187 527 201 582 q 164 451 172 472 q 161 442 161 443 q 170 429 161 432 q 188 427 179 426 q 200 428 197 428 l 281 431 q 328 433 297 433 l 403 432 z "},"Å":{"ha":660,"x_min":3,"x_max":667,"o":"m 663 19 q 667 6 667 10 q 651 0 667 0 l 574 0 q 565 2 568 0 q 558 13 561 4 q 543 63 553 28 q 526 125 531 97 q 513 175 522 146 q 497 219 504 204 q 475 279 485 246 l 463 319 q 452 338 456 335 q 440 342 449 342 q 397 340 411 342 l 338 338 q 235 336 326 336 l 150 336 l 147 336 q 135 321 139 336 l 132 307 l 126 281 q 108 200 124 272 q 94 139 104 176 q 82 93 92 111 q 75 74 79 89 q 68 49 71 58 q 58 13 64 38 q 56 6 57 11 q 51 1 54 1 q 43 0 49 0 l 15 0 q 8 18 3 0 q 10 25 8 22 q 11 32 10 28 q 15 44 13 36 l 28 96 q 38 125 31 104 q 47 164 44 146 q 74 265 54 197 l 85 304 q 118 425 111 390 l 138 499 q 154 557 151 544 q 182 661 164 599 l 192 700 l 200 729 q 224 797 214 776 q 244 855 226 806 q 267 933 261 904 q 280 972 274 958 q 296 993 286 986 q 230 1022 258 994 q 201 1088 201 1050 q 215 1140 203 1106 q 245 1178 224 1163 q 301 1193 267 1193 q 388 1158 365 1193 q 410 1093 410 1124 q 395 1044 410 1075 q 350 1000 381 1014 q 325 994 339 994 q 353 931 332 985 q 392 799 364 904 l 403 760 q 449 624 404 749 l 475 547 l 500 482 q 550 349 539 372 q 607 171 599 201 q 638 81 617 135 q 663 19 660 26 m 269 1093 q 280 1072 269 1081 q 304 1063 290 1063 l 319 1064 q 332 1071 321 1065 q 343 1093 343 1076 q 333 1114 343 1104 q 308 1124 324 1124 q 280 1115 290 1124 q 269 1093 269 1106 m 403 432 q 421 442 421 432 q 411 472 421 449 q 386 550 403 493 q 361 629 374 596 q 331 728 347 671 q 313 801 315 785 q 285 875 292 875 q 271 838 281 875 l 263 807 q 238 713 253 769 q 210 618 222 657 q 187 527 201 582 q 164 451 172 472 q 161 442 161 443 q 170 429 161 432 q 188 427 179 426 q 200 428 197 428 l 281 431 q 328 433 297 433 l 403 432 z "},"Ǻ":{"ha":660,"x_min":3,"x_max":667,"o":"m 189 1238 q 161 1268 161 1247 q 164 1282 161 1271 q 192 1301 165 1289 q 233 1317 218 1313 q 274 1333 244 1324 l 318 1349 l 349 1360 q 397 1369 367 1365 l 425 1372 q 450 1349 450 1372 q 449 1333 450 1339 q 420 1305 443 1318 q 381 1286 397 1292 q 303 1257 342 1275 q 263 1240 278 1246 q 242 1233 257 1239 q 218 1228 228 1228 q 189 1238 204 1228 m 663 19 q 667 6 667 10 q 651 0 667 0 l 574 0 q 565 2 568 0 q 558 13 561 4 q 543 63 553 28 q 526 125 531 97 q 513 175 522 146 q 497 219 504 204 q 475 279 485 246 l 463 319 q 452 338 456 335 q 440 342 449 342 q 397 340 411 342 l 338 338 q 235 336 326 336 l 150 336 l 147 336 q 135 321 139 336 l 132 307 l 126 281 q 108 200 124 272 q 94 139 104 176 q 82 93 92 111 q 75 74 79 89 q 68 49 71 58 q 58 13 64 38 q 56 6 57 11 q 51 1 54 1 q 43 0 49 0 l 15 0 q 8 18 3 0 q 10 25 8 22 q 11 32 10 28 q 15 44 13 36 l 28 96 q 38 125 31 104 q 47 164 44 146 q 74 265 54 197 l 85 304 q 118 425 111 390 l 138 499 q 154 557 151 544 q 182 661 164 599 l 192 700 l 200 729 q 224 797 214 776 q 244 855 226 806 q 267 933 261 904 q 280 972 274 958 q 296 993 286 986 q 230 1022 258 994 q 201 1088 201 1050 q 215 1140 203 1106 q 245 1178 224 1163 q 301 1193 267 1193 q 388 1158 365 1193 q 410 1093 410 1124 q 395 1044 410 1075 q 350 1000 381 1014 q 325 994 339 994 q 353 931 332 985 q 392 799 364 904 l 403 760 q 449 624 404 749 l 475 547 l 500 482 q 550 349 539 372 q 607 171 599 201 q 638 81 617 135 q 663 19 660 26 m 269 1093 q 280 1072 269 1081 q 304 1063 290 1063 l 319 1064 q 332 1071 321 1065 q 343 1093 343 1076 q 333 1114 343 1104 q 308 1124 324 1124 q 280 1115 290 1124 q 269 1093 269 1106 m 403 432 q 421 442 421 432 q 411 472 421 449 q 386 550 403 493 q 361 629 374 596 q 331 728 347 671 q 313 801 315 785 q 285 875 292 875 q 271 838 281 875 l 263 807 q 238 713 253 769 q 210 618 222 657 q 187 527 201 582 q 164 451 172 472 q 161 442 161 443 q 170 429 161 432 q 188 427 179 426 q 200 428 197 428 l 281 431 q 328 433 297 433 l 403 432 z "},"Ã":{"ha":660,"x_min":3,"x_max":667,"o":"m 15 0 q 8 18 3 0 q 10 25 8 22 q 11 32 10 28 q 15 44 13 36 l 28 96 q 38 125 31 104 q 47 164 44 146 q 74 265 54 197 l 85 304 q 118 425 111 390 l 138 499 q 154 557 151 544 q 182 661 164 599 l 192 700 l 200 729 q 224 797 214 776 q 244 855 226 806 q 267 933 261 904 q 287 983 276 967 q 315 1000 297 1000 q 329 988 322 1000 q 343 957 336 975 q 353 931 350 939 q 392 799 364 904 l 403 760 q 449 624 404 749 l 475 547 l 500 482 q 550 349 539 372 q 607 171 599 201 q 638 81 617 135 q 663 19 660 26 q 667 6 667 10 q 651 0 667 0 l 574 0 q 565 2 568 0 q 558 13 561 4 q 543 63 553 28 q 526 125 531 97 q 513 175 522 146 q 497 219 504 204 q 475 279 485 246 l 463 319 q 452 338 456 335 q 440 342 449 342 q 397 340 411 342 l 338 338 q 235 336 326 336 l 150 336 l 147 336 q 135 321 139 336 l 132 307 l 126 281 q 108 200 124 272 q 94 139 104 176 q 82 93 92 111 q 75 74 79 89 q 68 49 71 58 q 58 13 64 38 q 56 6 57 11 q 51 1 54 1 q 43 0 49 0 l 15 0 m 281 431 q 328 433 297 433 l 403 432 q 421 442 421 432 q 411 472 421 449 q 386 550 403 493 q 361 629 374 596 q 331 728 347 671 q 313 801 315 785 q 285 875 292 875 q 271 838 281 875 l 263 807 q 238 713 253 769 q 210 618 222 657 q 187 527 201 582 q 164 451 172 472 q 161 442 161 443 q 170 429 161 432 q 188 427 179 426 q 200 428 197 428 l 281 431 z "},"Æ":{"ha":1231,"x_min":31,"x_max":1163,"o":"m 39 0 q 31 6 31 0 q 36 18 31 7 l 39 25 l 49 44 q 60 73 54 60 q 71 96 67 86 q 86 126 75 106 q 104 164 97 147 q 150 265 110 182 q 226 425 208 379 q 249 475 238 451 q 271 519 261 499 q 282 541 278 532 q 290 557 286 550 l 357 700 l 369 725 q 408 797 389 764 q 423 823 413 804 q 442 858 433 842 l 463 899 l 479 933 q 509 983 494 967 q 542 1000 524 1000 q 556 979 551 1000 q 557 971 556 974 l 585 968 q 656 967 600 967 q 706 968 688 967 l 761 972 q 863 979 824 979 q 968 975 919 979 l 1018 974 q 1053 972 1043 974 q 1069 935 1068 972 l 1071 886 q 1072 842 1072 872 q 1071 778 1072 796 q 1056 756 1072 756 q 1038 759 1049 756 q 1024 764 1028 763 q 901 768 1001 768 l 849 769 q 796 771 831 771 q 758 769 771 771 q 717 768 746 768 l 611 768 q 599 758 599 768 l 601 740 q 608 656 601 715 l 613 607 l 622 525 q 629 481 624 513 q 667 479 640 479 q 710 478 679 478 l 764 478 q 853 481 794 478 q 911 483 897 483 q 950 481 931 483 q 979 479 969 479 l 993 481 q 1013 447 1013 481 l 1013 419 q 1010 390 1010 394 q 1011 372 1010 382 q 1013 346 1013 361 l 1013 338 q 1003 324 1013 324 q 991 326 997 324 q 976 328 985 328 q 930 329 964 328 q 838 331 896 331 q 730 325 775 331 q 675 319 685 319 q 657 321 660 319 q 649 322 650 321 l 665 183 q 681 185 675 183 l 719 186 l 882 188 q 963 186 932 188 l 1058 185 q 1110 186 1097 185 q 1146 178 1136 188 q 1160 149 1156 169 l 1160 32 q 1153 5 1163 10 q 1126 1 1144 0 q 1097 1 1108 1 q 994 3 1038 1 l 851 4 q 792 3 815 4 l 596 0 q 588 2 590 0 q 583 13 585 4 q 578 63 581 29 l 574 93 q 568 146 574 111 q 558 229 567 169 l 550 319 q 543 338 546 335 q 532 342 540 342 q 489 340 503 342 l 429 338 q 389 336 422 336 l 240 336 l 238 336 q 222 321 231 336 l 217 307 l 206 281 l 175 211 q 144 139 151 149 q 124 93 133 107 q 114 75 121 90 q 101 49 107 60 l 85 13 q 78 2 81 4 q 67 0 75 0 l 39 0 m 325 428 q 362 429 344 428 q 390 431 379 431 q 414 432 396 432 l 514 432 q 533 444 533 432 q 532 457 533 450 q 529 472 531 464 q 526 502 528 479 q 522 544 525 525 l 517 590 q 511 629 517 590 q 503 721 507 671 q 499 801 500 771 l 494 831 q 491 856 493 838 q 486 875 489 875 q 469 846 482 875 q 450 807 456 817 l 431 769 l 410 724 q 381 665 394 693 q 358 618 368 638 q 278 451 294 478 q 274 439 274 443 q 281 428 274 431 q 298 427 289 426 q 310 428 307 428 l 325 428 z "},"Ǽ":{"ha":1231,"x_min":31,"x_max":1163,"o":"m 39 0 q 31 6 31 0 q 36 18 31 7 l 39 25 l 49 44 q 60 73 54 60 q 71 96 67 86 q 86 126 75 106 q 104 164 97 147 q 150 265 110 182 q 226 425 208 379 q 249 475 238 451 q 271 519 261 499 q 282 541 278 532 q 290 557 286 550 l 357 700 l 369 725 q 408 797 389 764 q 423 823 413 804 q 442 858 433 842 l 463 899 l 479 933 q 509 983 494 967 q 542 1000 524 1000 q 556 979 551 1000 q 557 971 556 974 l 585 968 q 656 967 600 967 q 706 968 688 967 l 761 972 q 863 979 824 979 q 968 975 919 979 l 1018 974 q 1053 972 1043 974 q 1069 935 1068 972 l 1071 886 q 1072 842 1072 872 q 1071 778 1072 796 q 1056 756 1072 756 q 1038 759 1049 756 q 1024 764 1028 763 q 901 768 1001 768 l 849 769 q 796 771 831 771 q 758 769 771 771 q 717 768 746 768 l 611 768 q 599 758 599 768 l 601 740 q 608 656 601 715 l 613 607 l 622 525 q 629 481 624 513 q 667 479 640 479 q 710 478 679 478 l 764 478 q 853 481 794 478 q 911 483 897 483 q 950 481 931 483 q 979 479 969 479 l 993 481 q 1013 447 1013 481 l 1013 419 q 1010 390 1010 394 q 1011 372 1010 382 q 1013 346 1013 361 l 1013 338 q 1003 324 1013 324 q 991 326 997 324 q 976 328 985 328 q 930 329 964 328 q 838 331 896 331 q 730 325 775 331 q 675 319 685 319 q 657 321 660 319 q 649 322 650 321 l 665 183 q 681 185 675 183 l 719 186 l 882 188 q 963 186 932 188 l 1058 185 q 1110 186 1097 185 q 1146 178 1136 188 q 1160 149 1156 169 l 1160 32 q 1153 5 1163 10 q 1126 1 1144 0 q 1097 1 1108 1 q 994 3 1038 1 l 851 4 q 792 3 815 4 l 596 0 q 588 2 590 0 q 583 13 585 4 q 578 63 581 29 l 574 93 q 568 146 574 111 q 558 229 567 169 l 550 319 q 543 338 546 335 q 532 342 540 342 q 489 340 503 342 l 429 338 q 389 336 422 336 l 240 336 l 238 336 q 222 321 231 336 l 217 307 l 206 281 l 175 211 q 144 139 151 149 q 124 93 133 107 q 114 75 121 90 q 101 49 107 60 l 85 13 q 78 2 81 4 q 67 0 75 0 l 39 0 m 325 428 q 362 429 344 428 q 390 431 379 431 q 414 432 396 432 l 514 432 q 533 444 533 432 q 532 457 533 450 q 529 472 531 464 q 526 502 528 479 q 522 544 525 525 l 517 590 q 511 629 517 590 q 503 721 507 671 q 499 801 500 771 l 494 831 q 491 856 493 838 q 486 875 489 875 q 469 846 482 875 q 450 807 456 817 l 431 769 l 410 724 q 381 665 394 693 q 358 618 368 638 q 278 451 294 478 q 274 439 274 443 q 281 428 274 431 q 298 427 289 426 q 310 428 307 428 l 325 428 z "},"B":{"ha":711,"x_min":86,"x_max":671,"o":"m 125 -10 q 94 4 103 -10 q 86 43 86 18 l 88 351 l 88 418 q 92 514 88 471 l 96 683 q 97 770 96 713 q 100 843 99 828 q 101 882 101 854 q 97 951 101 931 q 96 958 96 954 q 111 971 96 967 q 185 983 125 975 q 293 990 244 990 q 502 938 425 990 q 579 738 579 885 q 499 529 579 604 q 419 483 463 499 q 585 385 500 454 q 671 181 671 317 q 608 51 671 92 q 480 2 544 10 q 344 -6 415 -6 l 210 -8 l 125 -10 m 275 501 q 361 517 303 501 q 474 582 419 532 q 528 726 528 632 q 493 875 528 826 q 406 937 458 924 q 274 950 354 950 l 271 861 q 268 713 268 761 l 268 554 q 267 530 268 540 q 265 514 265 519 q 267 503 265 506 q 275 501 268 501 m 311 21 q 515 65 447 21 q 583 182 583 108 q 424 435 583 368 q 264 460 353 461 q 263 449 263 456 q 261 417 261 442 l 264 328 l 267 253 q 265 225 267 233 l 264 189 l 267 107 l 269 43 q 276 23 269 26 q 294 20 282 19 q 311 21 306 21 z "},"C":{"ha":715,"x_min":51,"x_max":688,"o":"m 407 -17 q 234 51 317 -17 q 101 235 151 118 q 51 492 51 351 q 99 742 51 631 q 222 915 147 853 q 376 978 297 978 q 535 937 475 978 q 622 858 596 896 q 633 843 628 850 q 638 829 638 836 q 622 807 638 821 q 531 719 558 757 q 507 692 517 701 q 488 683 497 683 q 465 697 478 683 q 420 742 436 729 q 382 756 404 756 q 313 726 347 756 q 256 630 279 697 q 232 457 232 563 q 262 294 232 354 q 330 210 292 233 q 396 186 368 186 q 447 203 421 186 q 493 240 474 221 q 502 250 496 243 q 514 257 508 257 q 531 251 521 257 l 649 186 q 666 178 654 183 q 683 169 678 174 q 688 158 688 165 q 683 143 688 151 q 588 38 653 92 q 407 -17 522 -17 z "},"Ć":{"ha":715,"x_min":51,"x_max":688,"o":"m 407 -17 q 234 51 317 -17 q 101 235 151 118 q 51 492 51 351 q 99 742 51 631 q 222 915 147 853 q 376 978 297 978 q 535 937 475 978 q 622 858 596 896 q 633 843 628 850 q 638 829 638 836 q 622 807 638 821 q 531 719 558 757 q 507 692 517 701 q 488 683 497 683 q 465 697 478 683 q 420 742 436 729 q 382 756 404 756 q 313 726 347 756 q 256 630 279 697 q 232 457 232 563 q 262 294 232 354 q 330 210 292 233 q 396 186 368 186 q 447 203 421 186 q 493 240 474 221 q 502 250 496 243 q 514 257 508 257 q 531 251 521 257 l 649 186 q 666 178 654 183 q 683 169 678 174 q 688 158 688 165 q 683 143 688 151 q 588 38 653 92 q 407 -17 522 -17 z "},"Č":{"ha":715,"x_min":51,"x_max":688,"o":"m 407 -17 q 234 51 317 -17 q 101 235 151 118 q 51 492 51 351 q 99 742 51 631 q 222 915 147 853 q 376 978 297 978 q 535 937 475 978 q 622 858 596 896 q 633 843 628 850 q 638 829 638 836 q 622 807 638 821 q 531 719 558 757 q 507 692 517 701 q 488 683 497 683 q 465 697 478 683 q 420 742 436 729 q 382 756 404 756 q 313 726 347 756 q 256 630 279 697 q 232 457 232 563 q 262 294 232 354 q 330 210 292 233 q 396 186 368 186 q 447 203 421 186 q 493 240 474 221 q 502 250 496 243 q 514 257 508 257 q 531 251 521 257 l 649 186 q 666 178 654 183 q 683 169 678 174 q 688 158 688 165 q 683 143 688 151 q 588 38 653 92 q 407 -17 522 -17 z "},"Ç":{"ha":707,"x_min":51,"x_max":688,"o":"m 349 -219 q 285 -212 314 -219 q 256 -193 256 -204 q 267 -125 256 -176 q 271 -119 267 -119 q 284 -126 274 -119 q 304 -137 294 -132 q 357 -146 332 -146 q 399 -138 389 -143 q 414 -110 408 -133 q 381 -64 414 -64 q 353 -74 368 -64 q 335 -83 339 -83 q 301 -81 310 -83 q 292 -72 293 -79 q 295 -43 292 -56 q 301 -22 299 -31 q 321 42 304 -1 q 161 171 231 75 q 81 332 111 239 q 51 519 51 425 q 81 690 51 600 q 156 843 110 779 q 260 942 201 907 q 376 978 318 978 q 535 937 475 978 q 622 858 596 896 q 633 843 628 850 q 638 829 638 836 q 622 807 638 821 q 531 719 558 757 q 507 692 517 701 q 488 683 497 683 q 465 697 478 683 q 420 742 436 729 q 382 756 404 756 q 283 692 328 756 q 247 599 261 657 q 232 485 232 542 q 263 335 232 394 q 332 250 293 276 q 396 228 371 224 q 447 245 421 228 q 493 282 474 263 q 502 292 496 285 q 514 299 508 299 q 531 293 521 299 l 649 228 q 666 220 654 225 q 683 211 678 215 q 688 200 688 207 q 683 185 688 193 q 588 79 653 133 q 407 25 522 25 q 379 26 388 25 q 347 -31 354 -7 q 373 -20 363 -22 q 414 -18 383 -18 q 500 -115 500 -18 q 488 -159 499 -144 q 457 -190 476 -174 q 436 -206 450 -197 q 405 -216 419 -212 q 349 -219 390 -219 z "},"Ĉ":{"ha":715,"x_min":51,"x_max":688,"o":"m 407 -17 q 234 51 317 -17 q 101 235 151 118 q 51 492 51 351 q 99 742 51 631 q 222 915 147 853 q 376 978 297 978 q 535 937 475 978 q 622 858 596 896 q 633 843 628 850 q 638 829 638 836 q 622 807 638 821 q 531 719 558 757 q 507 692 517 701 q 488 683 497 683 q 465 697 478 683 q 420 742 436 729 q 382 756 404 756 q 313 726 347 756 q 256 630 279 697 q 232 457 232 563 q 262 294 232 354 q 330 210 292 233 q 396 186 368 186 q 447 203 421 186 q 493 240 474 221 q 502 250 496 243 q 514 257 508 257 q 531 251 521 257 l 649 186 q 666 178 654 183 q 683 169 678 174 q 688 158 688 165 q 683 143 688 151 q 588 38 653 92 q 407 -17 522 -17 z "},"Ċ":{"ha":715,"x_min":51,"x_max":688,"o":"m 407 -17 q 234 51 317 -17 q 101 235 151 118 q 51 492 51 351 q 99 742 51 631 q 222 915 147 853 q 376 978 297 978 q 535 937 475 978 q 622 858 596 896 q 633 843 628 850 q 638 829 638 836 q 622 807 638 821 q 531 719 558 757 q 507 692 517 701 q 488 683 497 683 q 465 697 478 683 q 420 742 436 729 q 382 756 404 756 q 313 726 347 756 q 256 630 279 697 q 232 457 232 563 q 262 294 232 354 q 330 210 292 233 q 396 186 368 186 q 447 203 421 186 q 493 240 474 221 q 502 250 496 243 q 514 257 508 257 q 531 251 521 257 l 649 186 q 666 178 654 183 q 683 169 678 174 q 688 158 688 165 q 683 143 688 151 q 588 38 653 92 q 407 -17 522 -17 m 404 1029 q 336 1053 360 1029 q 313 1121 313 1078 q 335 1183 313 1161 q 397 1206 357 1206 q 458 1185 436 1206 q 479 1126 479 1164 q 459 1055 479 1081 q 404 1029 439 1029 z "},"D":{"ha":801,"x_min":86,"x_max":753,"o":"m 122 0 q 96 47 96 0 l 97 83 l 94 153 l 93 215 l 92 257 q 86 421 86 329 q 92 564 86 475 q 97 710 97 653 l 96 896 q 94 946 94 918 q 115 965 94 961 q 157 967 135 968 q 188 967 179 967 l 238 969 q 332 972 296 972 q 513 927 417 972 q 681 763 608 882 q 753 438 753 643 q 663 153 753 250 q 475 30 574 57 q 311 3 376 3 l 197 1 q 122 0 167 0 m 335 297 q 404 347 372 315 q 474 506 474 414 q 407 646 474 593 q 342 679 378 668 q 344 632 344 649 q 342 556 344 606 q 339 486 339 508 q 336 369 339 450 q 335 297 335 346 z "},"Ǳ":{"ha":1692,"x_min":86,"x_max":1622,"o":"m 122 0 q 96 47 96 0 l 97 83 l 94 153 l 93 215 l 92 257 q 86 421 86 329 q 92 564 86 475 q 97 710 97 653 l 96 896 q 94 946 94 918 q 115 965 94 961 q 157 967 135 968 q 188 967 179 967 l 238 969 q 332 972 296 972 q 513 927 417 972 q 681 763 608 882 q 753 438 753 643 q 663 153 753 250 q 475 30 574 57 q 311 3 376 3 l 197 1 q 122 0 167 0 m 335 297 q 404 347 372 315 q 474 506 474 414 q 407 646 474 593 q 342 679 378 668 q 344 632 344 649 q 342 556 344 606 q 339 486 339 508 q 336 369 339 450 q 335 297 335 346 m 1306 -3 q 1239 -1 1279 -1 l 899 -1 q 861 8 868 -1 q 855 28 854 17 q 856 44 856 40 l 858 99 q 863 167 863 139 q 872 192 863 178 q 900 225 882 206 l 922 250 q 1028 392 960 300 q 1114 514 1097 485 q 1182 612 1131 544 q 1246 697 1233 679 l 1263 719 q 1313 810 1283 750 l 1338 864 q 1325 865 1329 864 l 1297 868 l 1150 869 q 1111 868 1125 869 l 1065 867 q 1040 868 1046 867 q 942 871 1028 871 l 883 871 q 869 875 872 872 q 867 882 867 878 q 868 889 868 886 q 864 943 868 904 q 870 960 863 957 q 889 963 878 964 q 906 963 900 963 q 982 965 926 963 q 1081 968 1049 968 l 1228 965 l 1314 963 l 1396 963 q 1535 965 1515 963 l 1544 967 q 1560 962 1557 967 q 1563 951 1563 957 q 1563 944 1563 946 q 1563 917 1563 943 q 1550 872 1564 892 q 1358 597 1394 647 q 1189 364 1258 456 l 1057 183 q 1114 176 1096 178 q 1214 171 1157 171 l 1293 172 q 1365 174 1317 174 q 1510 179 1404 174 l 1596 182 q 1617 174 1613 182 q 1622 154 1621 165 q 1622 139 1622 143 l 1619 38 l 1619 29 q 1617 13 1619 15 q 1600 8 1614 10 l 1572 6 q 1496 -1 1542 6 q 1415 -4 1476 -4 l 1306 -3 z "},"Ǆ":{"ha":1692,"x_min":86,"x_max":1622,"o":"m 122 0 q 96 47 96 0 l 97 83 l 94 153 l 93 215 l 92 257 q 86 421 86 329 q 92 564 86 475 q 97 710 97 653 l 96 896 q 94 946 94 918 q 115 965 94 961 q 157 967 135 968 q 188 967 179 967 l 238 969 q 332 972 296 972 q 513 927 417 972 q 681 763 608 882 q 753 438 753 643 q 663 153 753 250 q 475 30 574 57 q 311 3 376 3 l 197 1 q 122 0 167 0 m 335 297 q 404 347 372 315 q 474 506 474 414 q 407 646 474 593 q 342 679 378 668 q 344 632 344 649 q 342 556 344 606 q 339 486 339 508 q 336 369 339 450 q 335 297 335 346 m 1306 -3 q 1239 -1 1279 -1 l 899 -1 q 861 8 868 -1 q 855 28 854 17 q 856 44 856 40 l 858 99 q 863 167 863 139 q 872 192 863 178 q 900 225 882 206 l 922 250 q 1028 392 960 300 q 1114 514 1097 485 q 1182 612 1131 544 q 1246 697 1233 679 l 1263 719 q 1313 810 1283 750 l 1338 864 q 1325 865 1329 864 l 1297 868 l 1150 869 q 1111 868 1125 869 l 1065 867 q 1040 868 1046 867 q 942 871 1028 871 l 883 871 q 869 875 872 872 q 867 882 867 878 q 868 889 868 886 q 864 943 868 904 q 870 960 863 957 q 889 963 878 964 q 906 963 900 963 q 982 965 926 963 q 1081 968 1049 968 l 1228 965 l 1314 963 l 1396 963 q 1535 965 1515 963 l 1544 967 q 1560 962 1557 967 q 1563 951 1563 957 q 1563 944 1563 946 q 1563 917 1563 943 q 1550 872 1564 892 q 1358 597 1394 647 q 1189 364 1258 456 l 1057 183 q 1114 176 1096 178 q 1214 171 1157 171 l 1293 172 q 1365 174 1317 174 q 1510 179 1404 174 l 1596 182 q 1617 174 1613 182 q 1622 154 1621 165 q 1622 139 1622 143 l 1619 38 l 1619 29 q 1617 13 1619 15 q 1600 8 1614 10 l 1572 6 q 1496 -1 1542 6 q 1415 -4 1476 -4 l 1306 -3 z "},"Ð":{"ha":856,"x_min":50,"x_max":800,"o":"m 169 0 q 143 47 143 0 l 144 83 l 142 153 l 140 215 l 139 257 q 133 421 133 329 l 133 431 l 81 433 q 60 437 64 433 q 58 447 57 440 q 58 456 58 453 l 56 483 q 53 536 50 531 q 67 544 53 544 l 85 542 l 138 542 q 140 579 138 554 q 142 635 140 596 q 144 710 144 674 l 143 896 q 142 946 142 918 q 162 965 142 961 q 204 967 182 968 q 235 967 226 967 l 285 969 q 379 972 343 972 q 560 927 464 972 q 728 763 656 882 q 800 438 800 643 q 710 153 800 250 q 522 30 621 57 q 358 3 424 3 l 244 1 q 169 0 214 0 m 382 86 q 617 218 514 131 q 696 367 683 300 q 708 506 708 436 q 674 646 704 579 q 568 788 643 713 q 389 865 476 858 q 392 667 392 782 q 390 583 392 600 l 388 546 l 521 546 q 533 535 533 546 l 532 522 l 532 451 q 519 440 532 440 l 500 442 q 462 440 490 442 q 413 438 433 438 l 385 438 q 383 369 385 392 q 382 86 382 346 z "},"Ď":{"ha":801,"x_min":86,"x_max":753,"o":"m 122 0 q 96 47 96 0 l 97 83 l 94 153 l 93 215 l 92 257 q 86 421 86 329 q 92 564 86 475 q 97 710 97 653 l 96 896 q 94 946 94 918 q 115 965 94 961 q 157 967 135 968 q 188 967 179 967 l 238 969 q 332 972 296 972 q 513 927 417 972 q 681 763 608 882 q 753 438 753 643 q 663 153 753 250 q 475 30 574 57 q 311 3 376 3 l 197 1 q 122 0 167 0 m 335 297 q 404 347 372 315 q 474 506 474 414 q 407 646 474 593 q 342 679 378 668 q 344 632 344 649 q 342 556 344 606 q 339 486 339 508 q 336 369 339 450 q 335 297 335 346 z "},"Đ":{"ha":801,"x_min":3,"x_max":753,"o":"m 122 0 q 96 47 96 0 l 97 83 l 94 153 l 93 215 l 92 257 q 86 421 86 329 l 86 456 l 85 456 q 14 451 21 456 q 5 456 7 451 q 3 469 3 460 l 3 507 q 6 527 3 521 q 18 533 10 533 l 90 533 q 93 572 90 547 q 95 632 93 590 q 97 710 97 674 l 96 896 q 94 946 94 918 q 115 965 94 961 q 157 967 135 968 q 188 967 179 967 l 238 969 q 332 972 296 972 q 513 927 417 972 q 681 763 608 882 q 753 438 753 643 q 663 153 753 250 q 475 30 574 57 q 311 3 376 3 l 197 1 q 122 0 167 0 m 279 297 q 406 325 361 308 q 483 388 458 344 q 508 504 507 431 q 407 658 508 619 q 290 678 353 676 q 294 628 294 656 q 289 533 294 594 l 390 533 l 400 535 q 413 529 410 535 q 415 511 415 524 l 415 469 q 410 456 415 460 q 385 451 404 451 l 324 454 l 286 456 l 282 369 q 279 297 279 322 z "},"Ḍ":{"ha":801,"x_min":86,"x_max":753,"o":"m 122 0 q 96 47 96 0 l 97 83 l 94 153 l 93 215 l 92 257 q 86 421 86 329 q 92 564 86 475 q 97 710 97 653 l 96 896 q 94 946 94 918 q 115 965 94 961 q 157 967 135 968 q 188 967 179 967 l 238 969 q 332 972 296 972 q 513 927 417 972 q 681 763 608 882 q 753 438 753 643 q 663 153 753 250 q 475 30 574 57 q 311 3 376 3 l 197 1 q 122 0 167 0 m 335 297 q 404 347 372 315 q 474 506 474 414 q 407 646 474 593 q 342 679 378 668 q 344 632 344 649 q 342 556 344 606 q 339 486 339 508 q 336 369 339 450 q 335 297 335 346 m 389 -225 q 331 -201 357 -225 q 304 -140 304 -176 q 328 -84 304 -110 q 383 -58 351 -58 q 451 -78 421 -58 q 481 -133 481 -99 q 451 -200 481 -175 q 389 -225 421 -225 z "},"ǅ":{"ha":1465,"x_min":86,"x_max":1435,"o":"m 122 0 q 96 47 96 0 l 97 83 l 94 153 l 93 215 l 92 257 q 86 421 86 329 q 92 564 86 475 q 97 710 97 653 l 96 896 q 94 946 94 918 q 115 965 94 961 q 157 967 135 968 q 188 967 179 967 l 238 969 q 332 972 296 972 q 513 927 417 972 q 681 763 608 882 q 753 438 753 643 q 663 153 753 250 q 475 30 574 57 q 311 3 376 3 l 197 1 q 122 0 167 0 m 335 297 q 404 347 372 315 q 474 506 474 414 q 407 646 474 593 q 342 679 378 668 q 344 632 344 649 q 342 556 344 606 q 339 486 339 508 q 336 369 339 450 q 335 297 335 346 m 1190 -3 q 1139 -1 1169 -1 l 876 -1 q 848 6 853 -1 q 844 24 843 14 q 844 38 844 33 l 846 83 l 849 139 q 856 159 849 147 q 874 182 864 171 l 894 210 q 976 328 924 251 q 1043 431 1029 406 q 1129 563 1058 460 l 1157 603 q 1196 679 1172 626 l 1215 725 q 1206 726 1208 725 l 1183 728 l 1071 729 l 1004 728 l 986 728 q 910 731 976 731 l 865 731 q 855 734 857 732 q 853 740 853 736 q 854 746 854 743 q 850 790 854 757 l 850 793 q 865 808 850 808 q 922 810 900 808 l 1018 811 l 1131 808 l 1197 807 l 1260 807 q 1367 808 1351 807 l 1375 810 q 1387 806 1385 810 q 1389 792 1389 801 q 1379 732 1389 747 l 1358 699 q 1232 501 1258 542 q 1101 306 1136 356 l 999 153 q 1043 147 1013 150 q 1121 142 1075 142 l 1181 143 q 1238 144 1199 144 q 1295 146 1265 144 q 1347 149 1325 147 l 1414 151 q 1431 145 1428 151 q 1434 129 1433 139 q 1435 115 1435 119 l 1432 31 l 1432 24 q 1430 10 1432 13 q 1418 7 1428 7 q 1388 4 1413 6 q 1336 -1 1363 3 q 1275 -4 1322 -4 l 1190 -3 z "},"E":{"ha":714,"x_min":88,"x_max":647,"o":"m 103 -3 q 93 2 94 -3 q 92 21 92 7 q 90 72 90 36 q 89 97 90 83 q 88 132 88 110 l 88 322 q 90 376 88 350 q 92 415 92 403 q 97 538 97 479 q 93 651 97 610 q 90 738 90 699 q 94 942 90 825 q 101 966 94 960 q 121 972 108 972 l 142 971 q 182 969 154 971 q 250 967 210 967 q 358 974 296 967 q 458 979 433 979 q 563 975 515 979 l 613 974 q 636 965 631 974 q 642 935 642 957 q 644 892 642 922 q 647 829 647 856 q 643 778 647 801 q 624 757 642 757 q 608 760 618 757 q 593 764 599 763 q 472 768 572 768 l 419 769 q 367 771 401 771 q 329 769 342 771 q 256 767 288 767 l 182 768 q 169 763 171 768 q 168 740 168 758 q 167 697 168 715 q 164 607 164 642 l 164 525 q 165 481 164 496 q 203 479 176 479 q 300 478 226 478 q 389 481 331 478 q 447 483 433 483 q 486 481 467 483 q 515 479 506 479 q 533 463 533 479 q 532 447 533 457 q 531 419 531 436 l 532 346 q 529 328 532 333 q 519 324 526 324 q 508 326 515 324 q 494 328 500 328 q 448 329 482 328 q 356 331 414 331 q 247 325 293 331 q 192 319 201 319 q 174 321 176 319 q 165 322 167 321 l 165 183 q 181 185 175 183 l 219 186 l 383 188 q 463 186 433 188 l 558 185 l 617 186 q 639 178 633 186 q 644 157 644 171 l 643 129 l 642 32 q 632 5 642 10 q 604 1 622 0 q 575 1 586 1 q 472 3 515 1 l 331 4 q 164 0 314 4 l 111 -1 l 103 -3 z "},"É":{"ha":714,"x_min":88,"x_max":647,"o":"m 103 -3 q 93 2 94 -3 q 92 21 92 7 q 90 72 90 36 q 89 97 90 83 q 88 132 88 110 l 88 322 q 90 376 88 350 q 92 415 92 403 q 97 538 97 479 q 93 651 97 610 q 90 738 90 699 q 94 942 90 825 q 101 966 94 960 q 121 972 108 972 l 142 971 q 182 969 154 971 q 250 967 210 967 q 358 974 296 967 q 458 979 433 979 q 563 975 515 979 l 613 974 q 636 965 631 974 q 642 935 642 957 q 644 892 642 922 q 647 829 647 856 q 643 778 647 801 q 624 757 642 757 q 608 760 618 757 q 593 764 599 763 q 472 768 572 768 l 419 769 q 367 771 401 771 q 329 769 342 771 q 256 767 288 767 l 182 768 q 169 763 171 768 q 168 740 168 758 q 167 697 168 715 q 164 607 164 642 l 164 525 q 165 481 164 496 q 203 479 176 479 q 300 478 226 478 q 389 481 331 478 q 447 483 433 483 q 486 481 467 483 q 515 479 506 479 q 533 463 533 479 q 532 447 533 457 q 531 419 531 436 l 532 346 q 529 328 532 333 q 519 324 526 324 q 508 326 515 324 q 494 328 500 328 q 448 329 482 328 q 356 331 414 331 q 247 325 293 331 q 192 319 201 319 q 174 321 176 319 q 165 322 167 321 l 165 183 q 181 185 175 183 l 219 186 l 383 188 q 463 186 433 188 l 558 185 l 617 186 q 639 178 633 186 q 644 157 644 171 l 643 129 l 642 32 q 632 5 642 10 q 604 1 622 0 q 575 1 586 1 q 472 3 515 1 l 331 4 q 164 0 314 4 l 111 -1 l 103 -3 z "},"Ĕ":{"ha":714,"x_min":88,"x_max":647,"o":"m 103 -3 q 93 2 94 -3 q 92 21 92 7 q 90 72 90 36 q 89 97 90 83 q 88 132 88 110 l 88 322 q 90 376 88 350 q 92 415 92 403 q 97 538 97 479 q 93 651 97 610 q 90 738 90 699 q 94 942 90 825 q 101 966 94 960 q 121 972 108 972 l 142 971 q 182 969 154 971 q 250 967 210 967 q 358 974 296 967 q 458 979 433 979 q 563 975 515 979 l 613 974 q 636 965 631 974 q 642 935 642 957 q 644 892 642 922 q 647 829 647 856 q 643 778 647 801 q 624 757 642 757 q 608 760 618 757 q 593 764 599 763 q 472 768 572 768 l 419 769 q 367 771 401 771 q 329 769 342 771 q 256 767 288 767 l 182 768 q 169 763 171 768 q 168 740 168 758 q 167 697 168 715 q 164 607 164 642 l 164 525 q 165 481 164 496 q 203 479 176 479 q 300 478 226 478 q 389 481 331 478 q 447 483 433 483 q 486 481 467 483 q 515 479 506 479 q 533 463 533 479 q 532 447 533 457 q 531 419 531 436 l 532 346 q 529 328 532 333 q 519 324 526 324 q 508 326 515 324 q 494 328 500 328 q 448 329 482 328 q 356 331 414 331 q 247 325 293 331 q 192 319 201 319 q 174 321 176 319 q 165 322 167 321 l 165 183 q 181 185 175 183 l 219 186 l 383 188 q 463 186 433 188 l 558 185 l 617 186 q 639 178 633 186 q 644 157 644 171 l 643 129 l 642 32 q 632 5 642 10 q 604 1 622 0 q 575 1 586 1 q 472 3 515 1 l 331 4 q 164 0 314 4 l 111 -1 l 103 -3 z "},"Ě":{"ha":714,"x_min":88,"x_max":647,"o":"m 103 -3 q 93 2 94 -3 q 92 21 92 7 q 90 72 90 36 q 89 97 90 83 q 88 132 88 110 l 88 322 q 90 376 88 350 q 92 415 92 403 q 97 538 97 479 q 93 651 97 610 q 90 738 90 699 q 94 942 90 825 q 101 966 94 960 q 121 972 108 972 l 142 971 q 182 969 154 971 q 250 967 210 967 q 358 974 296 967 q 458 979 433 979 q 563 975 515 979 l 613 974 q 636 965 631 974 q 642 935 642 957 q 644 892 642 922 q 647 829 647 856 q 643 778 647 801 q 624 757 642 757 q 608 760 618 757 q 593 764 599 763 q 472 768 572 768 l 419 769 q 367 771 401 771 q 329 769 342 771 q 256 767 288 767 l 182 768 q 169 763 171 768 q 168 740 168 758 q 167 697 168 715 q 164 607 164 642 l 164 525 q 165 481 164 496 q 203 479 176 479 q 300 478 226 478 q 389 481 331 478 q 447 483 433 483 q 486 481 467 483 q 515 479 506 479 q 533 463 533 479 q 532 447 533 457 q 531 419 531 436 l 532 346 q 529 328 532 333 q 519 324 526 324 q 508 326 515 324 q 494 328 500 328 q 448 329 482 328 q 356 331 414 331 q 247 325 293 331 q 192 319 201 319 q 174 321 176 319 q 165 322 167 321 l 165 183 q 181 185 175 183 l 219 186 l 383 188 q 463 186 433 188 l 558 185 l 617 186 q 639 178 633 186 q 644 157 644 171 l 643 129 l 642 32 q 632 5 642 10 q 604 1 622 0 q 575 1 586 1 q 472 3 515 1 l 331 4 q 164 0 314 4 l 111 -1 l 103 -3 z "},"Ê":{"ha":714,"x_min":88,"x_max":647,"o":"m 103 -3 q 93 2 94 -3 q 92 21 92 7 q 90 72 90 36 q 89 97 90 83 q 88 132 88 110 l 88 322 q 90 376 88 350 q 92 415 92 403 q 97 538 97 479 q 93 651 97 610 q 90 738 90 699 q 94 942 90 825 q 101 966 94 960 q 121 972 108 972 l 142 971 q 182 969 154 971 q 250 967 210 967 q 358 974 296 967 q 458 979 433 979 q 563 975 515 979 l 613 974 q 636 965 631 974 q 642 935 642 957 q 644 892 642 922 q 647 829 647 856 q 643 778 647 801 q 624 757 642 757 q 608 760 618 757 q 593 764 599 763 q 472 768 572 768 l 419 769 q 367 771 401 771 q 329 769 342 771 q 256 767 288 767 l 182 768 q 169 763 171 768 q 168 740 168 758 q 167 697 168 715 q 164 607 164 642 l 164 525 q 165 481 164 496 q 203 479 176 479 q 300 478 226 478 q 389 481 331 478 q 447 483 433 483 q 486 481 467 483 q 515 479 506 479 q 533 463 533 479 q 532 447 533 457 q 531 419 531 436 l 532 346 q 529 328 532 333 q 519 324 526 324 q 508 326 515 324 q 494 328 500 328 q 448 329 482 328 q 356 331 414 331 q 247 325 293 331 q 192 319 201 319 q 174 321 176 319 q 165 322 167 321 l 165 183 q 181 185 175 183 l 219 186 l 383 188 q 463 186 433 188 l 558 185 l 617 186 q 639 178 633 186 q 644 157 644 171 l 643 129 l 642 32 q 632 5 642 10 q 604 1 622 0 q 575 1 586 1 q 472 3 515 1 l 331 4 q 164 0 314 4 l 111 -1 l 103 -3 z "},"Ế":{"ha":714,"x_min":88,"x_max":647,"o":"m 103 -3 q 93 2 94 -3 q 92 21 92 7 q 90 72 90 36 q 89 97 90 83 q 88 132 88 110 l 88 322 q 90 376 88 350 q 92 415 92 403 q 97 538 97 479 q 93 651 97 610 q 90 738 90 699 q 94 942 90 825 q 101 966 94 960 q 121 972 108 972 l 142 971 q 182 969 154 971 q 250 967 210 967 q 358 974 296 967 q 458 979 433 979 q 563 975 515 979 l 613 974 q 636 965 631 974 q 642 935 642 957 q 644 892 642 922 q 647 829 647 856 q 643 778 647 801 q 624 757 642 757 q 608 760 618 757 q 593 764 599 763 q 472 768 572 768 l 419 769 q 367 771 401 771 q 329 769 342 771 q 256 767 288 767 l 182 768 q 169 763 171 768 q 168 740 168 758 q 167 697 168 715 q 164 607 164 642 l 164 525 q 165 481 164 496 q 203 479 176 479 q 300 478 226 478 q 389 481 331 478 q 447 483 433 483 q 486 481 467 483 q 515 479 506 479 q 533 463 533 479 q 532 447 533 457 q 531 419 531 436 l 532 346 q 529 328 532 333 q 519 324 526 324 q 508 326 515 324 q 494 328 500 328 q 448 329 482 328 q 356 331 414 331 q 247 325 293 331 q 192 319 201 319 q 174 321 176 319 q 165 322 167 321 l 165 183 q 181 185 175 183 l 219 186 l 383 188 q 463 186 433 188 l 558 185 l 617 186 q 639 178 633 186 q 644 157 644 171 l 643 129 l 642 32 q 632 5 642 10 q 604 1 622 0 q 575 1 586 1 q 472 3 515 1 l 331 4 q 164 0 314 4 l 111 -1 l 103 -3 z "},"Ệ":{"ha":714,"x_min":88,"x_max":647,"o":"m 103 -3 q 93 2 94 -3 q 92 21 92 7 q 90 72 90 36 q 89 97 90 83 q 88 132 88 110 l 88 322 q 90 376 88 350 q 92 415 92 403 q 97 538 97 479 q 93 651 97 610 q 90 738 90 699 q 94 942 90 825 q 101 966 94 960 q 121 972 108 972 l 142 971 q 182 969 154 971 q 250 967 210 967 q 358 974 296 967 q 458 979 433 979 q 563 975 515 979 l 613 974 q 636 965 631 974 q 642 935 642 957 q 644 892 642 922 q 647 829 647 856 q 643 778 647 801 q 624 757 642 757 q 608 760 618 757 q 593 764 599 763 q 472 768 572 768 l 419 769 q 367 771 401 771 q 329 769 342 771 q 256 767 288 767 l 182 768 q 169 763 171 768 q 168 740 168 758 q 167 697 168 715 q 164 607 164 642 l 164 525 q 165 481 164 496 q 203 479 176 479 q 300 478 226 478 q 389 481 331 478 q 447 483 433 483 q 486 481 467 483 q 515 479 506 479 q 533 463 533 479 q 532 447 533 457 q 531 419 531 436 l 532 346 q 529 328 532 333 q 519 324 526 324 q 508 326 515 324 q 494 328 500 328 q 448 329 482 328 q 356 331 414 331 q 247 325 293 331 q 192 319 201 319 q 174 321 176 319 q 165 322 167 321 l 165 183 q 181 185 175 183 l 219 186 l 383 188 q 463 186 433 188 l 558 185 l 617 186 q 639 178 633 186 q 644 157 644 171 l 643 129 l 642 32 q 632 5 642 10 q 604 1 622 0 q 575 1 586 1 q 472 3 515 1 l 331 4 q 164 0 314 4 l 111 -1 l 103 -3 m 371 -225 q 313 -201 339 -225 q 286 -140 286 -176 q 310 -84 286 -110 q 365 -58 333 -58 q 433 -78 403 -58 q 463 -133 463 -99 q 433 -200 463 -175 q 371 -225 403 -225 z "},"Ề":{"ha":714,"x_min":88,"x_max":647,"o":"m 103 -3 q 93 2 94 -3 q 92 21 92 7 q 90 72 90 36 q 89 97 90 83 q 88 132 88 110 l 88 322 q 90 376 88 350 q 92 415 92 403 q 97 538 97 479 q 93 651 97 610 q 90 738 90 699 q 94 942 90 825 q 101 966 94 960 q 121 972 108 972 l 142 971 q 182 969 154 971 q 250 967 210 967 q 358 974 296 967 q 458 979 433 979 q 563 975 515 979 l 613 974 q 636 965 631 974 q 642 935 642 957 q 644 892 642 922 q 647 829 647 856 q 643 778 647 801 q 624 757 642 757 q 608 760 618 757 q 593 764 599 763 q 472 768 572 768 l 419 769 q 367 771 401 771 q 329 769 342 771 q 256 767 288 767 l 182 768 q 169 763 171 768 q 168 740 168 758 q 167 697 168 715 q 164 607 164 642 l 164 525 q 165 481 164 496 q 203 479 176 479 q 300 478 226 478 q 389 481 331 478 q 447 483 433 483 q 486 481 467 483 q 515 479 506 479 q 533 463 533 479 q 532 447 533 457 q 531 419 531 436 l 532 346 q 529 328 532 333 q 519 324 526 324 q 508 326 515 324 q 494 328 500 328 q 448 329 482 328 q 356 331 414 331 q 247 325 293 331 q 192 319 201 319 q 174 321 176 319 q 165 322 167 321 l 165 183 q 181 185 175 183 l 219 186 l 383 188 q 463 186 433 188 l 558 185 l 617 186 q 639 178 633 186 q 644 157 644 171 l 643 129 l 642 32 q 632 5 642 10 q 604 1 622 0 q 575 1 586 1 q 472 3 515 1 l 331 4 q 164 0 314 4 l 111 -1 l 103 -3 z "},"Ể":{"ha":714,"x_min":88,"x_max":647,"o":"m 103 -3 q 93 2 94 -3 q 92 21 92 7 q 90 72 90 36 q 89 97 90 83 q 88 132 88 110 l 88 322 q 90 376 88 350 q 92 415 92 403 q 97 538 97 479 q 93 651 97 610 q 90 738 90 699 q 94 942 90 825 q 101 966 94 960 q 121 972 108 972 l 142 971 q 182 969 154 971 q 250 967 210 967 q 358 974 296 967 q 458 979 433 979 q 563 975 515 979 l 613 974 q 636 965 631 974 q 642 935 642 957 q 644 892 642 922 q 647 829 647 856 q 643 778 647 801 q 624 757 642 757 q 608 760 618 757 q 593 764 599 763 q 472 768 572 768 l 419 769 q 367 771 401 771 q 329 769 342 771 q 256 767 288 767 l 182 768 q 169 763 171 768 q 168 740 168 758 q 167 697 168 715 q 164 607 164 642 l 164 525 q 165 481 164 496 q 203 479 176 479 q 300 478 226 478 q 389 481 331 478 q 447 483 433 483 q 486 481 467 483 q 515 479 506 479 q 533 463 533 479 q 532 447 533 457 q 531 419 531 436 l 532 346 q 529 328 532 333 q 519 324 526 324 q 508 326 515 324 q 494 328 500 328 q 448 329 482 328 q 356 331 414 331 q 247 325 293 331 q 192 319 201 319 q 174 321 176 319 q 165 322 167 321 l 165 183 q 181 185 175 183 l 219 186 l 383 188 q 463 186 433 188 l 558 185 l 617 186 q 639 178 633 186 q 644 157 644 171 l 643 129 l 642 32 q 632 5 642 10 q 604 1 622 0 q 575 1 586 1 q 472 3 515 1 l 331 4 q 164 0 314 4 l 111 -1 l 103 -3 m 365 1193 q 348 1207 357 1193 q 339 1228 339 1221 q 347 1246 339 1239 q 371 1261 356 1253 q 406 1284 394 1272 q 418 1319 418 1296 q 407 1351 418 1339 q 375 1364 396 1364 q 338 1351 356 1364 q 317 1338 321 1338 q 281 1364 307 1338 q 273 1372 281 1364 q 271 1386 265 1379 q 310 1419 288 1404 q 349 1438 326 1431 q 390 1446 372 1446 q 441 1435 417 1446 q 481 1404 465 1425 q 501 1318 501 1376 q 460 1228 501 1264 q 365 1193 419 1193 z "},"Ễ":{"ha":714,"x_min":88,"x_max":647,"o":"m 103 -3 q 93 2 94 -3 q 92 21 92 7 q 90 72 90 36 q 89 97 90 83 q 88 132 88 110 l 88 322 q 90 376 88 350 q 92 415 92 403 q 97 538 97 479 q 93 651 97 610 q 90 738 90 699 q 94 942 90 825 q 101 966 94 960 q 121 972 108 972 l 142 971 q 182 969 154 971 q 250 967 210 967 q 358 974 296 967 q 458 979 433 979 q 563 975 515 979 l 613 974 q 636 965 631 974 q 642 935 642 957 q 644 892 642 922 q 647 829 647 856 q 643 778 647 801 q 624 757 642 757 q 608 760 618 757 q 593 764 599 763 q 472 768 572 768 l 419 769 q 367 771 401 771 q 329 769 342 771 q 256 767 288 767 l 182 768 q 169 763 171 768 q 168 740 168 758 q 167 697 168 715 q 164 607 164 642 l 164 525 q 165 481 164 496 q 203 479 176 479 q 300 478 226 478 q 389 481 331 478 q 447 483 433 483 q 486 481 467 483 q 515 479 506 479 q 533 463 533 479 q 532 447 533 457 q 531 419 531 436 l 532 346 q 529 328 532 333 q 519 324 526 324 q 508 326 515 324 q 494 328 500 328 q 448 329 482 328 q 356 331 414 331 q 247 325 293 331 q 192 319 201 319 q 174 321 176 319 q 165 322 167 321 l 165 183 q 181 185 175 183 l 219 186 l 383 188 q 463 186 433 188 l 558 185 l 617 186 q 639 178 633 186 q 644 157 644 171 l 643 129 l 642 32 q 632 5 642 10 q 604 1 622 0 q 575 1 586 1 q 472 3 515 1 l 331 4 q 164 0 314 4 l 111 -1 l 103 -3 z "},"Ȅ":{"ha":714,"x_min":61,"x_max":647,"o":"m 103 -3 q 93 2 94 -3 q 92 21 92 7 q 90 72 90 36 q 89 97 90 83 q 88 132 88 110 l 88 322 q 90 376 88 350 q 92 415 92 403 q 97 538 97 479 q 93 651 97 610 q 90 738 90 699 q 94 942 90 825 q 101 966 94 960 q 121 972 108 972 l 142 971 q 182 969 154 971 q 250 967 210 967 q 358 974 296 967 q 458 979 433 979 q 563 975 515 979 l 613 974 q 636 965 631 974 q 642 935 642 957 q 644 892 642 922 q 647 829 647 856 q 643 778 647 801 q 624 757 642 757 q 608 760 618 757 q 593 764 599 763 q 472 768 572 768 l 419 769 q 367 771 401 771 q 329 769 342 771 q 256 767 288 767 l 182 768 q 169 763 171 768 q 168 740 168 758 q 167 697 168 715 q 164 607 164 642 l 164 525 q 165 481 164 496 q 203 479 176 479 q 300 478 226 478 q 389 481 331 478 q 447 483 433 483 q 486 481 467 483 q 515 479 506 479 q 533 463 533 479 q 532 447 533 457 q 531 419 531 436 l 532 346 q 529 328 532 333 q 519 324 526 324 q 508 326 515 324 q 494 328 500 328 q 448 329 482 328 q 356 331 414 331 q 247 325 293 331 q 192 319 201 319 q 174 321 176 319 q 165 322 167 321 l 165 183 q 181 185 175 183 l 219 186 l 383 188 q 463 186 433 188 l 558 185 l 617 186 q 639 178 633 186 q 644 157 644 171 l 643 129 l 642 32 q 632 5 642 10 q 604 1 622 0 q 575 1 586 1 q 472 3 515 1 l 331 4 q 164 0 314 4 l 111 -1 l 103 -3 m 293 1021 q 269 1026 283 1021 q 249 1033 254 1032 q 176 1063 210 1051 q 131 1079 143 1075 q 63 1126 69 1101 q 61 1142 61 1132 q 86 1165 61 1165 l 114 1163 q 163 1153 144 1158 l 193 1142 q 247 1122 225 1128 q 278 1110 269 1115 q 319 1094 293 1106 q 347 1075 346 1082 q 350 1061 350 1064 q 322 1031 350 1040 q 293 1021 307 1021 m 568 1021 q 544 1026 558 1021 q 524 1033 529 1032 q 406 1079 468 1057 q 338 1126 344 1101 q 336 1142 336 1132 q 361 1165 336 1165 l 389 1163 q 438 1153 419 1158 l 468 1142 q 522 1122 500 1128 q 553 1110 544 1115 q 594 1094 568 1106 q 622 1075 621 1082 q 625 1061 625 1064 q 597 1031 625 1040 q 568 1021 582 1021 z "},"Ë":{"ha":714,"x_min":88,"x_max":647,"o":"m 103 -3 q 93 2 94 -3 q 92 21 92 7 q 90 72 90 36 q 89 97 90 83 q 88 132 88 110 l 88 322 q 90 376 88 350 q 92 415 92 403 q 97 538 97 479 q 93 651 97 610 q 90 738 90 699 q 94 942 90 825 q 101 966 94 960 q 121 972 108 972 l 142 971 q 182 969 154 971 q 250 967 210 967 q 358 974 296 967 q 458 979 433 979 q 563 975 515 979 l 613 974 q 636 965 631 974 q 642 935 642 957 q 644 892 642 922 q 647 829 647 856 q 643 778 647 801 q 624 757 642 757 q 608 760 618 757 q 593 764 599 763 q 472 768 572 768 l 419 769 q 367 771 401 771 q 329 769 342 771 q 256 767 288 767 l 182 768 q 169 763 171 768 q 168 740 168 758 q 167 697 168 715 q 164 607 164 642 l 164 525 q 165 481 164 496 q 203 479 176 479 q 300 478 226 478 q 389 481 331 478 q 447 483 433 483 q 486 481 467 483 q 515 479 506 479 q 533 463 533 479 q 532 447 533 457 q 531 419 531 436 l 532 346 q 529 328 532 333 q 519 324 526 324 q 508 326 515 324 q 494 328 500 328 q 448 329 482 328 q 356 331 414 331 q 247 325 293 331 q 192 319 201 319 q 174 321 176 319 q 165 322 167 321 l 165 183 q 181 185 175 183 l 219 186 l 383 188 q 463 186 433 188 l 558 185 l 617 186 q 639 178 633 186 q 644 157 644 171 l 643 129 l 642 32 q 632 5 642 10 q 604 1 622 0 q 575 1 586 1 q 472 3 515 1 l 331 4 q 164 0 314 4 l 111 -1 l 103 -3 m 536 1015 q 473 1042 496 1015 q 450 1118 450 1069 q 473 1162 450 1146 q 536 1178 496 1178 q 592 1155 572 1178 q 611 1090 611 1132 q 591 1035 611 1056 q 536 1015 571 1015 m 251 1010 q 184 1028 208 1010 q 160 1081 160 1047 q 183 1144 160 1121 q 246 1167 206 1167 q 306 1146 285 1167 q 326 1086 326 1125 q 307 1030 326 1050 q 251 1010 288 1010 z "},"Ė":{"ha":714,"x_min":88,"x_max":647,"o":"m 103 -3 q 93 2 94 -3 q 92 21 92 7 q 90 72 90 36 q 89 97 90 83 q 88 132 88 110 l 88 322 q 90 376 88 350 q 92 415 92 403 q 97 538 97 479 q 93 651 97 610 q 90 738 90 699 q 94 942 90 825 q 101 966 94 960 q 121 972 108 972 l 142 971 q 182 969 154 971 q 250 967 210 967 q 358 974 296 967 q 458 979 433 979 q 563 975 515 979 l 613 974 q 636 965 631 974 q 642 935 642 957 q 644 892 642 922 q 647 829 647 856 q 643 778 647 801 q 624 757 642 757 q 608 760 618 757 q 593 764 599 763 q 472 768 572 768 l 419 769 q 367 771 401 771 q 329 769 342 771 q 256 767 288 767 l 182 768 q 169 763 171 768 q 168 740 168 758 q 167 697 168 715 q 164 607 164 642 l 164 525 q 165 481 164 496 q 203 479 176 479 q 300 478 226 478 q 389 481 331 478 q 447 483 433 483 q 486 481 467 483 q 515 479 506 479 q 533 463 533 479 q 532 447 533 457 q 531 419 531 436 l 532 346 q 529 328 532 333 q 519 324 526 324 q 508 326 515 324 q 494 328 500 328 q 448 329 482 328 q 356 331 414 331 q 247 325 293 331 q 192 319 201 319 q 174 321 176 319 q 165 322 167 321 l 165 183 q 181 185 175 183 l 219 186 l 383 188 q 463 186 433 188 l 558 185 l 617 186 q 639 178 633 186 q 644 157 644 171 l 643 129 l 642 32 q 632 5 642 10 q 604 1 622 0 q 575 1 586 1 q 472 3 515 1 l 331 4 q 164 0 314 4 l 111 -1 l 103 -3 m 394 1006 q 326 1030 350 1006 q 303 1097 303 1054 q 325 1160 303 1138 q 388 1182 347 1182 q 448 1161 426 1182 q 469 1103 469 1140 q 449 1031 469 1057 q 394 1006 429 1006 z "},"Ẹ":{"ha":714,"x_min":88,"x_max":647,"o":"m 103 -3 q 93 2 94 -3 q 92 21 92 7 q 90 72 90 36 q 89 97 90 83 q 88 132 88 110 l 88 322 q 90 376 88 350 q 92 415 92 403 q 97 538 97 479 q 93 651 97 610 q 90 738 90 699 q 94 942 90 825 q 101 966 94 960 q 121 972 108 972 l 142 971 q 182 969 154 971 q 250 967 210 967 q 358 974 296 967 q 458 979 433 979 q 563 975 515 979 l 613 974 q 636 965 631 974 q 642 935 642 957 q 644 892 642 922 q 647 829 647 856 q 643 778 647 801 q 624 757 642 757 q 608 760 618 757 q 593 764 599 763 q 472 768 572 768 l 419 769 q 367 771 401 771 q 329 769 342 771 q 256 767 288 767 l 182 768 q 169 763 171 768 q 168 740 168 758 q 167 697 168 715 q 164 607 164 642 l 164 525 q 165 481 164 496 q 203 479 176 479 q 300 478 226 478 q 389 481 331 478 q 447 483 433 483 q 486 481 467 483 q 515 479 506 479 q 533 463 533 479 q 532 447 533 457 q 531 419 531 436 l 532 346 q 529 328 532 333 q 519 324 526 324 q 508 326 515 324 q 494 328 500 328 q 448 329 482 328 q 356 331 414 331 q 247 325 293 331 q 192 319 201 319 q 174 321 176 319 q 165 322 167 321 l 165 183 q 181 185 175 183 l 219 186 l 383 188 q 463 186 433 188 l 558 185 l 617 186 q 639 178 633 186 q 644 157 644 171 l 643 129 l 642 32 q 632 5 642 10 q 604 1 622 0 q 575 1 586 1 q 472 3 515 1 l 331 4 q 164 0 314 4 l 111 -1 l 103 -3 m 371 -225 q 313 -201 339 -225 q 286 -140 286 -176 q 310 -84 286 -110 q 365 -58 333 -58 q 433 -78 403 -58 q 463 -133 463 -99 q 433 -200 463 -175 q 371 -225 403 -225 z "},"È":{"ha":714,"x_min":88,"x_max":647,"o":"m 103 -3 q 93 2 94 -3 q 92 21 92 7 q 90 72 90 36 q 89 97 90 83 q 88 132 88 110 l 88 322 q 90 376 88 350 q 92 415 92 403 q 97 538 97 479 q 93 651 97 610 q 90 738 90 699 q 94 942 90 825 q 101 966 94 960 q 121 972 108 972 l 142 971 q 182 969 154 971 q 250 967 210 967 q 358 974 296 967 q 458 979 433 979 q 563 975 515 979 l 613 974 q 636 965 631 974 q 642 935 642 957 q 644 892 642 922 q 647 829 647 856 q 643 778 647 801 q 624 757 642 757 q 608 760 618 757 q 593 764 599 763 q 472 768 572 768 l 419 769 q 367 771 401 771 q 329 769 342 771 q 256 767 288 767 l 182 768 q 169 763 171 768 q 168 740 168 758 q 167 697 168 715 q 164 607 164 642 l 164 525 q 165 481 164 496 q 203 479 176 479 q 300 478 226 478 q 389 481 331 478 q 447 483 433 483 q 486 481 467 483 q 515 479 506 479 q 533 463 533 479 q 532 447 533 457 q 531 419 531 436 l 532 346 q 529 328 532 333 q 519 324 526 324 q 508 326 515 324 q 494 328 500 328 q 448 329 482 328 q 356 331 414 331 q 247 325 293 331 q 192 319 201 319 q 174 321 176 319 q 165 322 167 321 l 165 183 q 181 185 175 183 l 219 186 l 383 188 q 463 186 433 188 l 558 185 l 617 186 q 639 178 633 186 q 644 157 644 171 l 643 129 l 642 32 q 632 5 642 10 q 604 1 622 0 q 575 1 586 1 q 472 3 515 1 l 331 4 q 164 0 314 4 l 111 -1 l 103 -3 z "},"Ẻ":{"ha":714,"x_min":88,"x_max":647,"o":"m 103 -3 q 93 2 94 -3 q 92 21 92 7 q 90 72 90 36 q 89 97 90 83 q 88 132 88 110 l 88 322 q 90 376 88 350 q 92 415 92 403 q 97 538 97 479 q 93 651 97 610 q 90 738 90 699 q 94 942 90 825 q 101 966 94 960 q 121 972 108 972 l 142 971 q 182 969 154 971 q 250 967 210 967 q 358 974 296 967 q 458 979 433 979 q 563 975 515 979 l 613 974 q 636 965 631 974 q 642 935 642 957 q 644 892 642 922 q 647 829 647 856 q 643 778 647 801 q 624 757 642 757 q 608 760 618 757 q 593 764 599 763 q 472 768 572 768 l 419 769 q 367 771 401 771 q 329 769 342 771 q 256 767 288 767 l 182 768 q 169 763 171 768 q 168 740 168 758 q 167 697 168 715 q 164 607 164 642 l 164 525 q 165 481 164 496 q 203 479 176 479 q 300 478 226 478 q 389 481 331 478 q 447 483 433 483 q 486 481 467 483 q 515 479 506 479 q 533 463 533 479 q 532 447 533 457 q 531 419 531 436 l 532 346 q 529 328 532 333 q 519 324 526 324 q 508 326 515 324 q 494 328 500 328 q 448 329 482 328 q 356 331 414 331 q 247 325 293 331 q 192 319 201 319 q 174 321 176 319 q 165 322 167 321 l 165 183 q 181 185 175 183 l 219 186 l 383 188 q 463 186 433 188 l 558 185 l 617 186 q 639 178 633 186 q 644 157 644 171 l 643 129 l 642 32 q 632 5 642 10 q 604 1 622 0 q 575 1 586 1 q 472 3 515 1 l 331 4 q 164 0 314 4 l 111 -1 l 103 -3 m 365 1011 q 348 1025 357 1011 q 339 1046 339 1039 q 347 1064 339 1057 q 371 1079 356 1071 q 406 1102 394 1090 q 418 1138 418 1114 q 407 1169 418 1157 q 375 1182 396 1182 q 338 1169 356 1182 q 317 1156 321 1156 q 281 1182 307 1156 q 273 1190 281 1182 q 271 1204 265 1197 q 310 1238 288 1222 q 349 1256 326 1249 q 390 1264 372 1264 q 441 1253 417 1264 q 481 1222 465 1243 q 501 1136 501 1194 q 460 1047 501 1082 q 365 1011 419 1011 z "},"Ȇ":{"ha":714,"x_min":88,"x_max":647,"o":"m 103 -3 q 93 2 94 -3 q 92 21 92 7 q 90 72 90 36 q 89 97 90 83 q 88 132 88 110 l 88 322 q 90 376 88 350 q 92 415 92 403 q 97 538 97 479 q 93 651 97 610 q 90 738 90 699 q 94 942 90 825 q 101 966 94 960 q 121 972 108 972 l 142 971 q 182 969 154 971 q 250 967 210 967 q 358 974 296 967 q 458 979 433 979 q 563 975 515 979 l 613 974 q 636 965 631 974 q 642 935 642 957 q 644 892 642 922 q 647 829 647 856 q 643 778 647 801 q 624 757 642 757 q 608 760 618 757 q 593 764 599 763 q 472 768 572 768 l 419 769 q 367 771 401 771 q 329 769 342 771 q 256 767 288 767 l 182 768 q 169 763 171 768 q 168 740 168 758 q 167 697 168 715 q 164 607 164 642 l 164 525 q 165 481 164 496 q 203 479 176 479 q 300 478 226 478 q 389 481 331 478 q 447 483 433 483 q 486 481 467 483 q 515 479 506 479 q 533 463 533 479 q 532 447 533 457 q 531 419 531 436 l 532 346 q 529 328 532 333 q 519 324 526 324 q 508 326 515 324 q 494 328 500 328 q 448 329 482 328 q 356 331 414 331 q 247 325 293 331 q 192 319 201 319 q 174 321 176 319 q 165 322 167 321 l 165 183 q 181 185 175 183 l 219 186 l 383 188 q 463 186 433 188 l 558 185 l 617 186 q 639 178 633 186 q 644 157 644 171 l 643 129 l 642 32 q 632 5 642 10 q 604 1 622 0 q 575 1 586 1 q 472 3 515 1 l 331 4 q 164 0 314 4 l 111 -1 l 103 -3 m 524 1014 q 492 1016 497 1014 q 483 1028 486 1018 q 446 1082 475 1064 q 379 1100 417 1100 q 327 1081 351 1100 q 294 1039 303 1061 q 283 1019 289 1024 q 261 1015 278 1014 q 216 1021 226 1018 q 206 1032 206 1024 q 213 1074 206 1047 q 235 1117 221 1100 q 302 1172 268 1160 q 388 1183 336 1183 q 483 1167 444 1183 q 543 1110 521 1151 q 560 1069 557 1086 q 564 1031 564 1051 q 556 1017 564 1021 q 524 1014 549 1014 z "},"Ē":{"ha":714,"x_min":88,"x_max":647,"o":"m 103 -3 q 93 2 94 -3 q 92 21 92 7 q 90 72 90 36 q 89 97 90 83 q 88 132 88 110 l 88 322 q 90 376 88 350 q 92 415 92 403 q 97 538 97 479 q 93 651 97 610 q 90 738 90 699 q 94 942 90 825 q 101 966 94 960 q 121 972 108 972 l 142 971 q 182 969 154 971 q 250 967 210 967 q 358 974 296 967 q 458 979 433 979 q 563 975 515 979 l 613 974 q 636 965 631 974 q 642 935 642 957 q 644 892 642 922 q 647 829 647 856 q 643 778 647 801 q 624 757 642 757 q 608 760 618 757 q 593 764 599 763 q 472 768 572 768 l 419 769 q 367 771 401 771 q 329 769 342 771 q 256 767 288 767 l 182 768 q 169 763 171 768 q 168 740 168 758 q 167 697 168 715 q 164 607 164 642 l 164 525 q 165 481 164 496 q 203 479 176 479 q 300 478 226 478 q 389 481 331 478 q 447 483 433 483 q 486 481 467 483 q 515 479 506 479 q 533 463 533 479 q 532 447 533 457 q 531 419 531 436 l 532 346 q 529 328 532 333 q 519 324 526 324 q 508 326 515 324 q 494 328 500 328 q 448 329 482 328 q 356 331 414 331 q 247 325 293 331 q 192 319 201 319 q 174 321 176 319 q 165 322 167 321 l 165 183 q 181 185 175 183 l 219 186 l 383 188 q 463 186 433 188 l 558 185 l 617 186 q 639 178 633 186 q 644 157 644 171 l 643 129 l 642 32 q 632 5 642 10 q 604 1 622 0 q 575 1 586 1 q 472 3 515 1 l 331 4 q 164 0 314 4 l 111 -1 l 103 -3 z "},"Ę":{"ha":714,"x_min":88,"x_max":647,"o":"m 617 186 q 639 178 633 186 q 644 157 644 171 l 643 129 l 642 32 q 635 8 642 14 q 613 0 628 1 q 527 -60 551 -37 q 503 -104 503 -82 q 515 -131 503 -115 q 542 -147 528 -147 q 594 -138 581 -147 q 613 -129 608 -129 q 629 -143 618 -129 q 640 -164 640 -157 q 600 -212 640 -190 q 518 -236 560 -233 q 439 -218 478 -236 q 415 -190 424 -211 q 407 -136 407 -168 q 419 -90 407 -111 q 458 -40 432 -69 q 522 1 476 -21 l 331 4 q 164 0 314 4 l 111 -1 l 103 -3 q 93 2 94 -3 q 92 21 92 7 q 90 72 90 36 q 89 97 90 83 q 88 132 88 110 l 88 322 q 90 376 88 350 q 92 415 92 403 q 97 538 97 479 q 93 651 97 610 q 90 738 90 699 q 94 942 90 825 q 101 966 94 960 q 121 972 108 972 l 142 971 q 182 969 154 971 q 250 967 210 967 q 358 974 296 967 q 458 979 433 979 q 563 975 515 979 l 613 974 q 636 965 631 974 q 642 935 642 957 q 644 892 642 922 q 647 829 647 856 q 643 778 647 801 q 624 757 642 757 q 608 760 618 757 q 593 764 599 763 q 472 768 572 768 l 419 769 q 367 771 401 771 q 329 769 342 771 q 256 767 288 767 l 182 768 q 169 763 171 768 q 168 740 168 758 q 167 697 168 715 q 164 607 164 642 l 164 525 q 165 481 164 496 q 203 479 176 479 q 300 478 226 478 q 389 481 331 478 q 447 483 433 483 q 486 481 467 483 q 515 479 506 479 q 533 463 533 479 q 532 447 533 457 q 531 419 531 436 l 532 346 q 529 328 532 333 q 519 324 526 324 q 508 326 515 324 q 494 328 500 328 q 448 329 482 328 q 356 331 414 331 q 247 325 293 331 q 192 319 201 319 q 174 321 176 319 q 165 322 167 321 l 165 183 q 181 185 175 183 l 219 186 l 383 188 q 463 186 433 188 l 558 185 l 617 186 z "},"Ẽ":{"ha":714,"x_min":88,"x_max":647,"o":"m 103 -3 q 93 2 94 -3 q 92 21 92 7 q 90 72 90 36 q 89 97 90 83 q 88 132 88 110 l 88 322 q 90 376 88 350 q 92 415 92 403 q 97 538 97 479 q 93 651 97 610 q 90 738 90 699 q 94 942 90 825 q 101 966 94 960 q 121 972 108 972 l 142 971 q 182 969 154 971 q 250 967 210 967 q 358 974 296 967 q 458 979 433 979 q 563 975 515 979 l 613 974 q 636 965 631 974 q 642 935 642 957 q 644 892 642 922 q 647 829 647 856 q 643 778 647 801 q 624 757 642 757 q 608 760 618 757 q 593 764 599 763 q 472 768 572 768 l 419 769 q 367 771 401 771 q 329 769 342 771 q 256 767 288 767 l 182 768 q 169 763 171 768 q 168 740 168 758 q 167 697 168 715 q 164 607 164 642 l 164 525 q 165 481 164 496 q 203 479 176 479 q 300 478 226 478 q 389 481 331 478 q 447 483 433 483 q 486 481 467 483 q 515 479 506 479 q 533 463 533 479 q 532 447 533 457 q 531 419 531 436 l 532 346 q 529 328 532 333 q 519 324 526 324 q 508 326 515 324 q 494 328 500 328 q 448 329 482 328 q 356 331 414 331 q 247 325 293 331 q 192 319 201 319 q 174 321 176 319 q 165 322 167 321 l 165 183 q 181 185 175 183 l 219 186 l 383 188 q 463 186 433 188 l 558 185 l 617 186 q 639 178 633 186 q 644 157 644 171 l 643 129 l 642 32 q 632 5 642 10 q 604 1 622 0 q 575 1 586 1 q 472 3 515 1 l 331 4 q 164 0 314 4 l 111 -1 l 103 -3 z "},"F":{"ha":661,"x_min":86,"x_max":658,"o":"m 297 3 q 265 6 290 3 q 214 7 253 7 l 113 6 q 94 11 97 7 q 90 23 90 15 q 90 33 90 31 l 89 107 q 88 140 89 126 l 86 235 q 88 277 86 256 q 90 308 90 299 q 94 381 94 340 l 93 539 l 94 631 q 97 728 97 694 q 94 919 97 806 q 101 953 94 944 q 119 961 107 961 q 137 960 128 961 q 158 958 146 958 l 264 961 l 353 964 q 390 965 369 964 q 432 968 411 967 q 510 972 479 972 l 626 971 q 658 950 658 971 l 658 881 q 653 866 658 868 q 633 864 649 864 q 601 865 615 864 l 513 867 q 410 861 460 867 l 342 857 l 338 832 q 335 783 335 801 l 333 660 l 332 589 l 332 556 q 375 557 361 556 l 442 558 l 497 560 q 551 561 517 561 q 581 556 574 561 q 589 538 589 550 l 588 492 q 581 476 588 481 q 556 472 575 472 q 514 474 531 472 l 458 475 l 329 475 q 331 422 329 439 l 332 335 l 331 267 q 328 199 328 222 l 329 35 q 322 10 329 17 q 297 3 314 3 z "},"G":{"ha":822,"x_min":57,"x_max":775,"o":"m 439 -19 q 287 21 375 -19 q 128 171 199 61 q 57 469 57 281 q 124 806 57 689 q 274 961 190 924 q 432 999 357 999 q 628 933 563 999 q 724 810 694 868 q 735 781 729 796 q 744 754 740 765 q 746 747 746 751 q 742 740 746 743 q 733 735 739 738 q 721 729 728 733 l 689 713 q 621 678 640 686 q 571 646 590 660 l 544 628 q 518 610 536 621 q 507 606 513 606 q 496 603 499 603 q 484 613 489 603 q 475 628 479 622 q 464 644 472 632 q 444 666 456 657 q 417 675 432 675 q 351 610 375 675 q 328 475 328 546 q 331 370 328 410 q 353 297 335 331 q 415 264 372 264 q 493 333 471 264 q 503 403 503 363 l 475 408 q 426 415 442 414 q 400 435 400 418 q 411 489 400 444 q 425 515 418 511 q 446 518 432 519 q 478 513 453 517 q 560 504 504 510 l 636 493 q 740 481 714 482 q 772 456 764 479 q 774 432 775 442 q 709 159 764 260 q 582 19 654 58 q 439 -19 510 -19 z "},"Ğ":{"ha":822,"x_min":57,"x_max":775,"o":"m 439 -19 q 287 21 375 -19 q 128 171 199 61 q 57 469 57 281 q 124 806 57 689 q 274 961 190 924 q 432 999 357 999 q 628 933 563 999 q 724 810 694 868 q 735 781 729 796 q 744 754 740 765 q 746 747 746 751 q 742 740 746 743 q 733 735 739 738 q 721 729 728 733 l 689 713 q 621 678 640 686 q 571 646 590 660 l 544 628 q 518 610 536 621 q 507 606 513 606 q 496 603 499 603 q 484 613 489 603 q 475 628 479 622 q 464 644 472 632 q 444 666 456 657 q 417 675 432 675 q 351 610 375 675 q 328 475 328 546 q 331 370 328 410 q 353 297 335 331 q 415 264 372 264 q 493 333 471 264 q 503 403 503 363 l 475 408 q 426 415 442 414 q 400 435 400 418 q 411 489 400 444 q 425 515 418 511 q 446 518 432 519 q 478 513 453 517 q 560 504 504 510 l 636 493 q 740 481 714 482 q 772 456 764 479 q 774 432 775 442 q 709 159 764 260 q 582 19 654 58 q 439 -19 510 -19 z "},"Ǧ":{"ha":822,"x_min":57,"x_max":775,"o":"m 439 -19 q 287 21 375 -19 q 128 171 199 61 q 57 469 57 281 q 124 806 57 689 q 274 961 190 924 q 432 999 357 999 q 628 933 563 999 q 724 810 694 868 q 735 781 729 796 q 744 754 740 765 q 746 747 746 751 q 742 740 746 743 q 733 735 739 738 q 721 729 728 733 l 689 713 q 621 678 640 686 q 571 646 590 660 l 544 628 q 518 610 536 621 q 507 606 513 606 q 496 603 499 603 q 484 613 489 603 q 475 628 479 622 q 464 644 472 632 q 444 666 456 657 q 417 675 432 675 q 351 610 375 675 q 328 475 328 546 q 331 370 328 410 q 353 297 335 331 q 415 264 372 264 q 493 333 471 264 q 503 403 503 363 l 475 408 q 426 415 442 414 q 400 435 400 418 q 411 489 400 444 q 425 515 418 511 q 446 518 432 519 q 478 513 453 517 q 560 504 504 510 l 636 493 q 740 481 714 482 q 772 456 764 479 q 774 432 775 442 q 709 159 764 260 q 582 19 654 58 q 439 -19 510 -19 z "},"Ĝ":{"ha":822,"x_min":57,"x_max":775,"o":"m 439 -19 q 287 21 375 -19 q 128 171 199 61 q 57 469 57 281 q 124 806 57 689 q 274 961 190 924 q 432 999 357 999 q 628 933 563 999 q 724 810 694 868 q 735 781 729 796 q 744 754 740 765 q 746 747 746 751 q 742 740 746 743 q 733 735 739 738 q 721 729 728 733 l 689 713 q 621 678 640 686 q 571 646 590 660 l 544 628 q 518 610 536 621 q 507 606 513 606 q 496 603 499 603 q 484 613 489 603 q 475 628 479 622 q 464 644 472 632 q 444 666 456 657 q 417 675 432 675 q 351 610 375 675 q 328 475 328 546 q 331 370 328 410 q 353 297 335 331 q 415 264 372 264 q 493 333 471 264 q 503 403 503 363 l 475 408 q 426 415 442 414 q 400 435 400 418 q 411 489 400 444 q 425 515 418 511 q 446 518 432 519 q 478 513 453 517 q 560 504 504 510 l 636 493 q 740 481 714 482 q 772 456 764 479 q 774 432 775 442 q 709 159 764 260 q 582 19 654 58 q 439 -19 510 -19 z "},"Ģ":{"ha":822,"x_min":57,"x_max":775,"o":"m 439 -19 q 287 21 375 -19 q 128 171 199 61 q 57 469 57 281 q 124 806 57 689 q 274 961 190 924 q 432 999 357 999 q 628 933 563 999 q 724 810 694 868 q 735 781 729 796 q 744 754 740 765 q 746 747 746 751 q 742 740 746 743 q 733 735 739 738 q 721 729 728 733 l 689 713 q 621 678 640 686 q 571 646 590 660 l 544 628 q 518 610 536 621 q 507 606 513 606 q 496 603 499 603 q 484 613 489 603 q 475 628 479 622 q 464 644 472 632 q 444 666 456 657 q 417 675 432 675 q 351 610 375 675 q 328 475 328 546 q 331 370 328 410 q 353 297 335 331 q 415 264 372 264 q 493 333 471 264 q 503 403 503 363 l 475 408 q 426 415 442 414 q 400 435 400 418 q 411 489 400 444 q 425 515 418 511 q 446 518 432 519 q 478 513 453 517 q 560 504 504 510 l 636 493 q 740 481 714 482 q 772 456 764 479 q 774 432 775 442 q 709 159 764 260 q 582 19 654 58 q 439 -19 510 -19 m 379 -294 q 335 -293 342 -294 q 328 -290 329 -293 q 326 -284 326 -287 q 326 -279 326 -281 l 369 -143 l 381 -99 l 390 -71 q 411 -57 392 -57 l 489 -57 q 496 -68 503 -57 q 489 -92 494 -83 q 483 -110 488 -97 q 475 -133 479 -122 l 458 -186 q 439 -244 446 -226 q 432 -275 432 -269 q 421 -293 428 -287 q 379 -294 417 -294 z "},"Ġ":{"ha":822,"x_min":57,"x_max":775,"o":"m 439 -19 q 287 21 375 -19 q 128 171 199 61 q 57 469 57 281 q 124 806 57 689 q 274 961 190 924 q 432 999 357 999 q 628 933 563 999 q 724 810 694 868 q 735 781 729 796 q 744 754 740 765 q 746 747 746 751 q 742 740 746 743 q 733 735 739 738 q 721 729 728 733 l 689 713 q 621 678 640 686 q 571 646 590 660 l 544 628 q 518 610 536 621 q 507 606 513 606 q 496 603 499 603 q 484 613 489 603 q 475 628 479 622 q 464 644 472 632 q 444 666 456 657 q 417 675 432 675 q 351 610 375 675 q 328 475 328 546 q 331 370 328 410 q 353 297 335 331 q 415 264 372 264 q 493 333 471 264 q 503 403 503 363 l 475 408 q 426 415 442 414 q 400 435 400 418 q 411 489 400 444 q 425 515 418 511 q 446 518 432 519 q 478 513 453 517 q 560 504 504 510 l 636 493 q 740 481 714 482 q 772 456 764 479 q 774 432 775 442 q 709 159 764 260 q 582 19 654 58 q 439 -19 510 -19 m 460 1006 q 392 1030 415 1006 q 368 1097 368 1054 q 390 1160 368 1138 q 453 1182 413 1182 q 513 1161 492 1182 q 535 1103 535 1140 q 515 1031 535 1057 q 460 1006 494 1006 z "},"H":{"ha":947,"x_min":89,"x_max":869,"o":"m 856 982 q 869 968 869 978 l 867 957 q 863 920 865 947 q 854 838 860 893 q 847 648 850 796 q 844 417 844 500 q 839 214 844 358 l 836 122 l 835 67 q 838 26 835 46 l 839 18 q 833 9 839 10 q 825 8 826 8 q 775 6 811 6 q 764 17 764 6 l 765 222 q 765 269 764 244 q 765 313 765 293 l 765 371 l 765 474 l 653 471 q 492 469 593 469 l 361 469 q 279 471 308 469 q 278 435 279 447 q 275 350 275 390 l 274 200 q 281 56 274 90 q 283 35 283 39 q 273 10 283 15 q 251 6 263 6 q 235 7 239 7 q 124 3 186 10 q 95 14 100 0 q 91 53 90 28 q 92 90 92 78 l 89 571 l 92 931 q 98 966 92 958 q 118 974 104 974 l 149 972 q 181 975 156 972 q 204 976 188 976 l 240 975 q 271 974 251 974 q 290 965 286 974 q 292 946 293 956 q 292 932 292 936 q 286 767 292 868 l 281 629 l 276 547 l 360 544 l 411 543 q 504 540 478 540 q 669 542 613 540 q 774 543 738 542 l 774 585 l 772 661 q 778 878 772 714 l 781 975 q 796 988 782 988 l 811 986 q 832 985 817 985 q 856 982 849 985 m 764 19 l 764 17 l 764 19 z "},"Ħ":{"ha":947,"x_min":7,"x_max":940,"o":"m 926 808 q 938 803 936 808 q 940 793 940 799 q 939 785 939 788 l 939 719 q 924 708 939 708 l 903 710 l 849 707 q 844 417 844 543 q 839 214 844 358 l 836 122 l 835 67 q 838 26 835 46 l 839 18 q 833 9 839 10 q 825 8 826 8 q 775 6 811 6 q 764 17 764 6 l 765 222 q 765 269 764 244 q 765 313 765 293 l 765 371 l 765 474 l 653 471 q 492 469 593 469 l 361 469 q 279 471 308 469 q 278 435 279 447 q 275 350 275 390 l 274 200 q 281 56 274 90 q 283 35 283 39 q 273 10 283 15 q 251 6 263 6 q 235 7 239 7 q 124 3 186 10 q 95 14 100 0 q 91 53 90 28 q 92 90 92 78 l 89 571 q 90 700 89 649 l 40 701 q 18 704 22 701 q 15 713 14 707 q 15 724 15 719 l 13 753 q 10 799 7 793 q 25 807 10 807 q 46 804 29 807 l 90 804 q 92 931 92 865 q 98 966 92 958 q 118 974 104 974 l 149 972 q 181 975 156 972 q 204 976 188 976 l 240 975 q 271 974 251 974 q 290 965 286 974 q 292 946 293 956 q 292 932 292 936 q 288 808 292 899 l 329 808 l 776 808 l 781 975 q 796 988 782 988 l 811 986 q 832 985 817 985 q 856 982 849 985 q 869 968 869 978 l 867 957 q 863 920 865 947 q 854 838 860 893 l 853 808 l 926 808 m 774 585 l 772 661 q 774 706 772 685 q 572 704 735 704 q 286 703 326 704 l 283 703 l 281 629 l 276 547 l 360 544 l 411 543 q 504 540 478 540 q 669 542 613 540 q 774 543 738 542 l 774 585 m 764 19 l 764 17 l 764 19 z "},"Ĥ":{"ha":947,"x_min":89,"x_max":869,"o":"m 856 982 q 869 968 869 978 l 867 957 q 863 920 865 947 q 854 838 860 893 q 847 648 850 796 q 844 417 844 500 q 839 214 844 358 l 836 122 l 835 67 q 838 26 835 46 l 839 18 q 833 9 839 10 q 825 8 826 8 q 775 6 811 6 q 764 17 764 6 l 765 222 q 765 269 764 244 q 765 313 765 293 l 765 371 l 765 474 l 653 471 q 492 469 593 469 l 361 469 q 279 471 308 469 q 278 435 279 447 q 275 350 275 390 l 274 200 q 281 56 274 90 q 283 35 283 39 q 273 10 283 15 q 251 6 263 6 q 235 7 239 7 q 124 3 186 10 q 95 14 100 0 q 91 53 90 28 q 92 90 92 78 l 89 571 l 92 931 q 98 966 92 958 q 118 974 104 974 l 149 972 q 181 975 156 972 q 204 976 188 976 l 240 975 q 271 974 251 974 q 290 965 286 974 q 292 946 293 956 q 292 932 292 936 q 286 767 292 868 l 281 629 l 276 547 l 360 544 l 411 543 q 504 540 478 540 q 669 542 613 540 q 774 543 738 542 l 774 585 l 772 661 q 778 878 772 714 l 781 975 q 796 988 782 988 l 811 986 q 832 985 817 985 q 856 982 849 985 m 764 19 l 764 17 l 764 19 z "},"Ḥ":{"ha":947,"x_min":89,"x_max":869,"o":"m 856 982 q 869 968 869 978 l 867 957 q 863 920 865 947 q 854 838 860 893 q 847 648 850 796 q 844 417 844 500 q 839 214 844 358 l 836 122 l 835 67 q 838 26 835 46 l 839 18 q 833 9 839 10 q 825 8 826 8 q 775 6 811 6 q 764 17 764 6 l 765 222 q 765 269 764 244 q 765 313 765 293 l 765 371 l 765 474 l 653 471 q 492 469 593 469 l 361 469 q 279 471 308 469 q 278 435 279 447 q 275 350 275 390 l 274 200 q 281 56 274 90 q 283 35 283 39 q 273 10 283 15 q 251 6 263 6 q 235 7 239 7 q 124 3 186 10 q 95 14 100 0 q 91 53 90 28 q 92 90 92 78 l 89 571 l 92 931 q 98 966 92 958 q 118 974 104 974 l 149 972 q 181 975 156 972 q 204 976 188 976 l 240 975 q 271 974 251 974 q 290 965 286 974 q 292 946 293 956 q 292 932 292 936 q 286 767 292 868 l 281 629 l 276 547 l 360 544 l 411 543 q 504 540 478 540 q 669 542 613 540 q 774 543 738 542 l 774 585 l 772 661 q 778 878 772 714 l 781 975 q 796 988 782 988 l 811 986 q 832 985 817 985 q 856 982 849 985 m 764 19 l 764 17 l 764 19 m 519 -225 q 461 -201 488 -225 q 435 -140 435 -176 q 458 -84 435 -110 q 514 -58 482 -58 q 581 -78 551 -58 q 611 -133 611 -99 q 581 -200 611 -175 q 519 -225 551 -225 z "},"I":{"ha":213,"x_min":61,"x_max":164,"o":"m 96 -10 q 78 -10 90 -10 q 64 -7 67 -10 q 61 4 61 -4 l 63 49 l 65 231 l 68 522 q 74 711 68 564 q 78 824 75 746 q 78 917 81 903 l 76 946 q 99 982 76 982 l 150 981 q 164 961 164 981 q 163 945 164 954 q 161 928 161 936 q 154 771 157 897 q 149 574 154 732 q 143 388 143 421 q 146 184 143 307 q 151 38 149 61 q 153 18 153 29 q 149 4 153 8 q 139 -4 146 0 q 96 -10 131 -10 z "},"Ĳ":{"ha":947,"x_min":61,"x_max":850,"o":"m 583 -10 q 372 59 446 -10 q 274 208 297 128 q 251 343 251 288 l 253 463 q 254 522 254 489 q 258 544 254 540 q 275 546 263 547 q 361 556 290 546 q 386 531 386 557 q 383 507 386 522 q 381 479 381 492 q 401 271 381 344 q 455 170 421 197 q 539 143 489 143 q 630 173 594 143 q 681 244 665 203 q 696 324 696 286 l 700 707 q 697 799 697 749 l 699 933 q 706 977 696 968 q 733 986 715 986 q 760 990 742 988 q 793 992 778 992 q 815 990 808 992 q 844 981 839 989 q 849 944 850 974 l 846 519 q 845 498 844 510 q 846 476 846 486 l 846 432 q 583 -10 846 -10 m 96 -10 q 78 -10 90 -10 q 64 -7 67 -10 q 61 4 61 -4 l 63 49 l 65 231 l 68 522 q 74 711 68 564 q 78 824 75 746 q 78 917 81 903 l 76 946 q 99 982 76 982 l 150 981 q 164 961 164 981 q 163 945 164 954 q 161 928 161 936 q 154 771 157 897 q 149 574 154 732 q 143 388 143 421 q 146 184 143 307 q 151 38 149 61 q 153 18 153 29 q 149 4 153 8 q 139 -4 146 0 q 96 -10 131 -10 z "},"Í":{"ha":213,"x_min":-8,"x_max":281,"o":"m 96 -10 q 78 -10 90 -10 q 64 -7 67 -10 q 61 4 61 -4 l 63 49 l 65 231 l 68 522 q 74 711 68 564 q 78 824 75 746 q 78 917 81 903 l 76 946 q 99 982 76 982 l 150 981 q 164 961 164 981 q 163 945 164 954 q 161 928 161 936 q 154 771 157 897 q 149 574 154 732 q 143 388 143 421 q 146 184 143 307 q 151 38 149 61 q 153 18 153 29 q 149 4 153 8 q 139 -4 146 0 q 96 -10 131 -10 z "},"Ĭ":{"ha":213,"x_min":-71,"x_max":343,"o":"m 96 -10 q 78 -10 90 -10 q 64 -7 67 -10 q 61 4 61 -4 l 63 49 l 65 231 l 68 522 q 74 711 68 564 q 78 824 75 746 q 78 917 81 903 l 76 946 q 99 982 76 982 l 150 981 q 164 961 164 981 q 163 945 164 954 q 161 928 161 936 q 154 771 157 897 q 149 574 154 732 q 143 388 143 421 q 146 184 143 307 q 151 38 149 61 q 153 18 153 29 q 149 4 153 8 q 139 -4 146 0 q 96 -10 131 -10 z "},"Ǐ":{"ha":213,"x_min":-79,"x_max":346,"o":"m 96 -10 q 78 -10 90 -10 q 64 -7 67 -10 q 61 4 61 -4 l 63 49 l 65 231 l 68 522 q 74 711 68 564 q 78 824 75 746 q 78 917 81 903 l 76 946 q 99 982 76 982 l 150 981 q 164 961 164 981 q 163 945 164 954 q 161 928 161 936 q 154 771 157 897 q 149 574 154 732 q 143 388 143 421 q 146 184 143 307 q 151 38 149 61 q 153 18 153 29 q 149 4 153 8 q 139 -4 146 0 q 96 -10 131 -10 z "},"Î":{"ha":213,"x_min":-74,"x_max":351,"o":"m 96 -10 q 78 -10 90 -10 q 64 -7 67 -10 q 61 4 61 -4 l 63 49 l 65 231 l 68 522 q 74 711 68 564 q 78 824 75 746 q 78 917 81 903 l 76 946 q 99 982 76 982 l 150 981 q 164 961 164 981 q 163 945 164 954 q 161 928 161 936 q 154 771 157 897 q 149 574 154 732 q 143 388 143 421 q 146 184 143 307 q 151 38 149 61 q 153 18 153 29 q 149 4 153 8 q 139 -4 146 0 q 96 -10 131 -10 z "},"Ȉ":{"ha":213,"x_min":-187,"x_max":376,"o":"m 96 -10 q 78 -10 90 -10 q 64 -7 67 -10 q 61 4 61 -4 l 63 49 l 65 231 l 68 522 q 74 711 68 564 q 78 824 75 746 q 78 917 81 903 l 76 946 q 99 982 76 982 l 150 981 q 164 961 164 981 q 163 945 164 954 q 161 928 161 936 q 154 771 157 897 q 149 574 154 732 q 143 388 143 421 q 146 184 143 307 q 151 38 149 61 q 153 18 153 29 q 149 4 153 8 q 139 -4 146 0 q 96 -10 131 -10 m 44 1021 q 20 1026 35 1021 q 0 1033 6 1032 q -72 1063 -39 1051 q -118 1079 -106 1075 q -186 1126 -179 1101 q -187 1142 -187 1132 q -162 1165 -187 1165 l -135 1163 q -86 1153 -104 1158 l -56 1142 q -1 1122 -24 1128 q 29 1110 21 1115 q 71 1094 44 1106 q 99 1075 97 1082 q 101 1061 101 1064 q 74 1031 101 1040 q 44 1021 58 1021 m 319 1021 q 295 1026 310 1021 q 275 1033 281 1032 q 157 1079 219 1057 q 89 1126 96 1101 q 88 1142 88 1132 q 113 1165 88 1165 l 140 1163 q 189 1153 171 1158 l 219 1142 q 274 1122 251 1128 q 304 1110 296 1115 q 346 1094 319 1106 q 374 1075 372 1082 q 376 1061 376 1064 q 349 1031 376 1040 q 319 1021 333 1021 z "},"Ï":{"ha":213,"x_min":-89,"x_max":363,"o":"m 96 -10 q 78 -10 90 -10 q 64 -7 67 -10 q 61 4 61 -4 l 63 49 l 65 231 l 68 522 q 74 711 68 564 q 78 824 75 746 q 78 917 81 903 l 76 946 q 99 982 76 982 l 150 981 q 164 961 164 981 q 163 945 164 954 q 161 928 161 936 q 154 771 157 897 q 149 574 154 732 q 143 388 143 421 q 146 184 143 307 q 151 38 149 61 q 153 18 153 29 q 149 4 153 8 q 139 -4 146 0 q 96 -10 131 -10 m 288 1015 q 224 1042 247 1015 q 201 1118 201 1069 q 224 1162 201 1146 q 288 1178 247 1178 q 343 1155 324 1178 q 363 1090 363 1132 q 342 1035 363 1056 q 288 1015 322 1015 m 3 1010 q -65 1028 -40 1010 q -89 1081 -89 1047 q -66 1144 -89 1121 q -3 1167 -43 1167 q 57 1146 36 1167 q 78 1086 78 1125 q 58 1030 78 1050 q 3 1010 39 1010 z "},"İ":{"ha":213,"x_min":54,"x_max":221,"o":"m 96 -10 q 78 -10 90 -10 q 64 -7 67 -10 q 61 4 61 -4 l 63 49 l 65 231 l 68 522 q 74 711 68 564 q 78 824 75 746 q 78 917 81 903 l 76 946 q 99 982 76 982 l 150 981 q 164 961 164 981 q 163 945 164 954 q 161 928 161 936 q 154 771 157 897 q 149 574 154 732 q 143 388 143 421 q 146 184 143 307 q 151 38 149 61 q 153 18 153 29 q 149 4 153 8 q 139 -4 146 0 q 96 -10 131 -10 m 146 1006 q 78 1030 101 1006 q 54 1097 54 1054 q 76 1160 54 1138 q 139 1182 99 1182 q 199 1161 178 1182 q 221 1103 221 1140 q 201 1031 221 1057 q 146 1006 181 1006 z "},"Ị":{"ha":213,"x_min":15,"x_max":192,"o":"m 96 18 q 78 18 90 18 q 64 21 67 18 q 61 32 61 24 l 63 76 l 65 247 l 68 522 q 74 711 68 564 q 78 824 75 746 q 78 917 81 903 l 76 946 q 99 982 76 982 l 150 981 q 164 961 164 981 q 163 945 164 954 q 161 928 161 936 q 154 771 157 897 q 149 574 154 732 q 143 388 143 421 q 145 200 143 311 q 151 65 147 89 q 153 46 153 57 q 150 33 153 36 q 144 27 147 29 q 139 24 140 25 q 96 18 131 18 m 100 -225 q 42 -201 68 -225 q 15 -140 15 -176 q 39 -84 15 -110 q 94 -58 63 -58 q 162 -78 132 -58 q 192 -133 192 -99 q 162 -200 192 -175 q 100 -225 132 -225 z "},"Ì":{"ha":213,"x_min":-31,"x_max":261,"o":"m 96 -10 q 78 -10 90 -10 q 64 -7 67 -10 q 61 4 61 -4 l 63 49 l 65 231 l 68 522 q 74 711 68 564 q 78 824 75 746 q 78 917 81 903 l 76 946 q 99 982 76 982 l 150 981 q 164 961 164 981 q 163 945 164 954 q 161 928 161 936 q 154 771 157 897 q 149 574 154 732 q 143 388 143 421 q 146 184 143 307 q 151 38 149 61 q 153 18 153 29 q 149 4 153 8 q 139 -4 146 0 q 96 -10 131 -10 z "},"Ỉ":{"ha":213,"x_min":17,"x_max":253,"o":"m 96 -10 q 78 -10 90 -10 q 64 -7 67 -10 q 61 4 61 -4 l 63 49 l 65 231 l 68 522 q 74 711 68 564 q 78 824 75 746 q 78 917 81 903 l 76 946 q 99 982 76 982 l 150 981 q 164 961 164 981 q 163 945 164 954 q 161 928 161 936 q 154 771 157 897 q 149 574 154 732 q 143 388 143 421 q 146 184 143 307 q 151 38 149 61 q 153 18 153 29 q 149 4 153 8 q 139 -4 146 0 q 96 -10 131 -10 m 117 1011 q 99 1025 108 1011 q 90 1046 90 1039 q 99 1064 90 1057 q 122 1079 107 1071 q 158 1102 146 1090 q 169 1138 169 1114 q 158 1169 169 1157 q 126 1182 147 1182 q 90 1169 107 1182 q 68 1156 72 1156 q 32 1182 58 1156 q 24 1190 32 1182 q 22 1204 17 1197 q 61 1238 39 1222 q 101 1256 78 1249 q 142 1264 124 1264 q 192 1253 168 1264 q 232 1222 217 1243 q 253 1136 253 1194 q 212 1047 253 1082 q 117 1011 171 1011 z "},"Ȋ":{"ha":213,"x_min":-43,"x_max":315,"o":"m 96 -10 q 78 -10 90 -10 q 64 -7 67 -10 q 61 4 61 -4 l 63 49 l 65 231 l 68 522 q 74 711 68 564 q 78 824 75 746 q 78 917 81 903 l 76 946 q 99 982 76 982 l 150 981 q 164 961 164 981 q 163 945 164 954 q 161 928 161 936 q 154 771 157 897 q 149 574 154 732 q 143 388 143 421 q 146 184 143 307 q 151 38 149 61 q 153 18 153 29 q 149 4 153 8 q 139 -4 146 0 q 96 -10 131 -10 m 275 1014 q 243 1016 249 1014 q 235 1028 238 1018 q 197 1082 226 1064 q 131 1100 168 1100 q 78 1081 103 1100 q 46 1039 54 1061 q 35 1019 40 1024 q 13 1015 29 1014 q -33 1021 -22 1018 q -43 1032 -43 1024 q -35 1074 -43 1047 q -14 1117 -28 1100 q 53 1172 19 1160 q 139 1183 88 1183 q 234 1167 196 1183 q 294 1110 272 1151 q 312 1069 308 1086 q 315 1031 315 1051 q 308 1017 315 1021 q 275 1014 300 1014 z "},"Ī":{"ha":213,"x_min":-71,"x_max":342,"o":"m 96 -10 q 78 -10 90 -10 q 64 -7 67 -10 q 61 4 61 -4 l 63 49 l 65 231 l 68 522 q 74 711 68 564 q 78 824 75 746 q 78 917 81 903 l 76 946 q 99 982 76 982 l 150 981 q 164 961 164 981 q 163 945 164 954 q 161 928 161 936 q 154 771 157 897 q 149 574 154 732 q 143 388 143 421 q 146 184 143 307 q 151 38 149 61 q 153 18 153 29 q 149 4 153 8 q 139 -4 146 0 q 96 -10 131 -10 z "},"Į":{"ha":213,"x_min":-68,"x_max":165,"o":"m 138 -135 q 154 -149 143 -135 q 165 -169 165 -162 q 125 -217 165 -196 q 43 -242 85 -239 q -36 -224 3 -242 q -60 -195 -51 -217 q -68 -142 -68 -174 q -56 -96 -68 -117 q -17 -46 -43 -75 q 27 -15 -1 -31 q 61 4 56 1 l 63 49 l 65 231 l 68 522 q 74 711 68 564 q 78 824 75 746 q 78 917 81 903 l 76 946 q 99 982 76 982 l 150 981 q 164 961 164 981 q 163 945 164 954 q 161 928 161 936 q 154 771 157 897 q 149 574 154 732 q 143 388 143 421 q 146 184 143 307 q 151 38 149 61 q 153 18 153 29 q 149 4 153 8 q 139 -4 146 0 q 52 -65 76 -43 q 28 -110 28 -87 q 40 -137 28 -121 q 67 -153 53 -153 q 119 -144 106 -153 q 138 -135 133 -135 z "},"Ĩ":{"ha":213,"x_min":-107,"x_max":351,"o":"m 96 -10 q 78 -10 90 -10 q 64 -7 67 -10 q 61 4 61 -4 l 63 49 l 65 231 l 68 522 q 74 711 68 564 q 78 824 75 746 q 78 917 81 903 l 76 946 q 99 982 76 982 l 150 981 q 164 961 164 981 q 163 945 164 954 q 161 928 161 936 q 154 771 157 897 q 149 574 154 732 q 143 388 143 421 q 146 184 143 307 q 151 38 149 61 q 153 18 153 29 q 149 4 153 8 q 139 -4 146 0 q 96 -10 131 -10 z "},"J":{"ha":682,"x_min":7,"x_max":606,"o":"m 339 -10 q 127 59 201 -10 q 30 208 53 128 q 7 343 7 288 l 8 463 q 10 522 10 489 q 14 544 10 540 q 31 546 18 547 q 117 556 46 546 q 142 531 142 557 q 139 507 142 522 q 136 479 136 492 q 156 271 136 344 q 210 170 176 197 q 294 143 244 143 q 385 173 350 143 q 436 244 421 203 q 451 324 451 286 l 456 707 q 453 799 453 749 l 454 933 q 461 977 451 968 q 489 986 471 986 q 515 990 497 988 q 549 992 533 992 q 571 990 564 992 q 600 981 594 989 q 604 944 606 974 l 601 519 q 601 498 600 510 q 601 476 601 486 l 601 432 q 339 -10 601 -10 z "},"Ĵ":{"ha":682,"x_min":7,"x_max":758,"o":"m 339 -10 q 127 59 201 -10 q 30 208 53 128 q 7 343 7 288 l 8 463 q 10 522 10 489 q 14 544 10 540 q 31 546 18 547 q 117 556 46 546 q 142 531 142 557 q 139 507 142 522 q 136 479 136 492 q 156 271 136 344 q 210 170 176 197 q 294 143 244 143 q 385 173 350 143 q 436 244 421 203 q 451 324 451 286 l 456 707 q 453 799 453 749 l 454 933 q 461 977 451 968 q 489 986 471 986 q 515 990 497 988 q 549 992 533 992 q 571 990 564 992 q 600 981 594 989 q 604 944 606 974 l 601 519 q 601 498 600 510 q 601 476 601 486 l 601 432 q 339 -10 601 -10 z "},"K":{"ha":835,"x_min":85,"x_max":804,"o":"m 594 -6 q 566 0 578 -6 q 540 19 554 6 q 467 111 531 28 q 397 200 417 179 q 324 282 372 222 l 274 339 q 272 279 274 297 l 269 190 l 268 94 q 272 28 268 43 q 274 18 274 24 q 269 6 274 8 q 254 4 264 4 l 199 4 l 165 3 q 113 0 129 0 q 96 1 99 0 q 86 10 86 1 q 92 31 86 14 q 89 75 94 40 q 86 96 88 83 q 85 122 85 108 q 90 366 86 199 q 97 557 93 533 q 101 696 101 594 q 100 761 101 749 q 99 819 99 772 q 101 902 99 861 q 106 956 103 943 q 121 969 107 969 q 135 967 128 969 q 149 965 142 965 q 189 964 175 965 q 215 963 200 964 q 251 964 231 963 l 260 964 q 274 960 271 964 q 278 947 278 956 l 278 896 l 278 854 l 278 797 q 272 590 278 635 q 269 542 269 560 l 271 496 l 274 449 l 296 472 q 336 514 303 481 q 397 577 353 529 q 467 653 442 625 q 519 714 478 668 q 596 794 561 760 q 639 840 618 819 q 726 940 721 931 q 756 964 740 961 q 773 965 760 964 q 794 964 786 965 q 804 954 804 963 q 797 942 804 949 q 761 905 794 939 q 710 856 728 871 q 628 761 696 843 q 549 661 561 679 q 461 567 513 621 l 386 489 q 435 432 379 499 q 508 350 474 385 q 592 253 522 336 q 690 140 681 149 q 765 54 704 128 l 793 21 q 797 10 797 15 q 774 -1 797 -1 l 594 -6 z "},"Ķ":{"ha":835,"x_min":85,"x_max":804,"o":"m 594 -6 q 566 0 578 -6 q 540 19 554 6 q 467 111 531 28 q 397 200 417 179 q 324 282 372 222 l 274 339 q 272 279 274 297 l 269 190 l 268 94 q 272 28 268 43 q 274 18 274 24 q 269 6 274 8 q 254 4 264 4 l 199 4 l 165 3 q 113 0 129 0 q 96 1 99 0 q 86 10 86 1 q 92 31 86 14 q 89 75 94 40 q 86 96 88 83 q 85 122 85 108 q 90 366 86 199 q 97 557 93 533 q 101 696 101 594 q 100 761 101 749 q 99 819 99 772 q 101 902 99 861 q 106 956 103 943 q 121 969 107 969 q 135 967 128 969 q 149 965 142 965 q 189 964 175 965 q 215 963 200 964 q 251 964 231 963 l 260 964 q 274 960 271 964 q 278 947 278 956 l 278 896 l 278 854 l 278 797 q 272 590 278 635 q 269 542 269 560 l 271 496 l 274 449 l 296 472 q 336 514 303 481 q 397 577 353 529 q 467 653 442 625 q 519 714 478 668 q 596 794 561 760 q 639 840 618 819 q 726 940 721 931 q 756 964 740 961 q 773 965 760 964 q 794 964 786 965 q 804 954 804 963 q 797 942 804 949 q 761 905 794 939 q 710 856 728 871 q 628 761 696 843 q 549 661 561 679 q 461 567 513 621 l 386 489 q 435 432 379 499 q 508 350 474 385 q 592 253 522 336 q 690 140 681 149 q 765 54 704 128 l 793 21 q 797 10 797 15 q 774 -1 797 -1 l 594 -6 m 365 -294 q 321 -293 328 -294 q 314 -290 315 -293 q 313 -284 313 -287 q 313 -279 313 -281 l 356 -143 l 367 -99 l 376 -71 q 397 -57 378 -57 l 475 -57 q 482 -68 489 -57 q 475 -92 481 -83 q 469 -110 474 -97 q 461 -133 465 -122 l 444 -186 q 425 -244 432 -226 q 418 -275 418 -269 q 407 -293 414 -287 q 365 -294 403 -294 z "},"L":{"ha":728,"x_min":88,"x_max":728,"o":"m 125 -11 q 94 17 94 -11 l 94 125 l 100 590 q 93 782 100 643 l 88 953 q 106 976 88 976 q 129 972 113 976 q 156 968 146 968 q 249 963 194 963 q 319 967 286 963 q 349 964 340 969 q 357 946 357 958 q 355 926 357 936 q 353 903 353 915 l 350 828 q 344 657 344 714 l 347 447 q 349 344 349 397 l 346 193 l 344 165 l 346 126 l 349 78 l 547 71 l 713 69 l 715 69 q 725 67 724 69 q 726 59 726 64 q 725 51 725 54 q 726 31 724 46 q 728 3 728 15 q 721 -10 728 -7 q 703 -12 714 -12 q 688 -11 693 -11 l 614 -7 q 476 1 517 1 q 251 -7 432 1 l 125 -11 z "},"Ǉ":{"ha":1410,"x_min":88,"x_max":1333,"o":"m 1067 -10 q 855 59 929 -10 q 758 208 781 128 q 735 343 735 288 l 736 463 q 738 522 738 489 q 742 544 738 540 q 758 546 746 547 q 844 556 774 546 q 869 531 869 557 q 867 507 869 522 q 864 479 864 492 q 884 271 864 344 q 938 170 904 197 q 1022 143 972 143 q 1113 173 1078 143 q 1164 244 1149 203 q 1179 324 1179 286 l 1183 707 q 1181 799 1181 749 l 1182 933 q 1189 977 1179 968 q 1217 986 1199 986 q 1243 990 1225 988 q 1276 992 1261 992 q 1299 990 1292 992 q 1328 981 1322 989 q 1332 944 1333 974 l 1329 519 q 1328 498 1328 510 q 1329 476 1329 486 l 1329 432 q 1067 -10 1329 -10 m 125 -11 q 94 17 94 -11 l 94 125 l 100 590 q 93 782 100 643 l 88 953 q 106 976 88 976 q 129 972 113 976 q 156 968 146 968 q 249 963 194 963 q 319 967 286 963 q 349 964 340 969 q 357 946 357 958 q 355 926 357 936 q 353 903 353 915 l 350 828 q 344 657 344 714 l 347 447 q 349 344 349 397 l 346 193 l 344 165 l 346 126 l 349 78 l 547 71 l 713 69 l 715 69 q 725 67 724 69 q 726 59 726 64 q 725 51 725 54 q 726 31 724 46 q 728 3 728 15 q 721 -10 728 -7 q 703 -12 714 -12 q 688 -11 693 -11 l 614 -7 q 476 1 517 1 q 251 -7 432 1 l 125 -11 z "},"Ĺ":{"ha":728,"x_min":79,"x_max":728,"o":"m 125 -11 q 94 17 94 -11 l 94 125 l 100 590 q 93 782 100 643 l 88 953 q 106 976 88 976 q 129 972 113 976 q 156 968 146 968 q 249 963 194 963 q 319 967 286 963 q 349 964 340 969 q 357 946 357 958 q 355 926 357 936 q 353 903 353 915 l 350 828 q 344 657 344 714 l 347 447 q 349 344 349 397 l 346 193 l 344 165 l 346 126 l 349 78 l 547 71 l 713 69 l 715 69 q 725 67 724 69 q 726 59 726 64 q 725 51 725 54 q 726 31 724 46 q 728 3 728 15 q 721 -10 728 -7 q 703 -12 714 -12 q 688 -11 693 -11 l 614 -7 q 476 1 517 1 q 251 -7 432 1 l 125 -11 z "},"Ľ":{"ha":728,"x_min":88,"x_max":728,"o":"m 125 -11 q 94 17 94 -11 l 94 125 l 100 590 q 93 782 100 643 l 88 953 q 106 976 88 976 q 129 972 113 976 q 156 968 146 968 q 249 963 194 963 q 319 967 286 963 q 349 964 340 969 q 357 946 357 958 q 355 926 357 936 q 353 903 353 915 l 350 828 q 344 657 344 714 l 347 447 q 349 344 349 397 l 346 193 l 344 165 l 346 126 l 349 78 l 547 71 l 713 69 l 715 69 q 725 67 724 69 q 726 59 726 64 q 725 51 725 54 q 726 31 724 46 q 728 3 728 15 q 721 -10 728 -7 q 703 -12 714 -12 q 688 -11 693 -11 l 614 -7 q 476 1 517 1 q 251 -7 432 1 l 125 -11 m 492 675 q 447 678 475 675 q 432 682 435 678 q 430 692 429 686 q 431 700 431 697 l 463 803 l 488 872 l 506 917 q 517 933 507 928 q 544 939 528 939 l 614 939 q 631 931 631 939 q 626 919 631 926 q 614 883 615 888 q 603 856 613 875 l 588 818 q 566 756 579 800 q 553 707 553 713 q 545 693 551 704 q 531 678 539 682 q 492 675 514 675 z "},"Ļ":{"ha":728,"x_min":88,"x_max":728,"o":"m 125 -11 q 94 17 94 -11 l 94 125 l 100 590 q 93 782 100 643 l 88 953 q 106 976 88 976 q 129 972 113 976 q 156 968 146 968 q 249 963 194 963 q 319 967 286 963 q 349 964 340 969 q 357 946 357 958 q 355 926 357 936 q 353 903 353 915 l 350 828 q 344 657 344 714 l 347 447 q 349 344 349 397 l 346 193 l 344 165 l 346 126 l 349 78 l 547 71 l 713 69 l 715 69 q 725 67 724 69 q 726 59 726 64 q 725 51 725 54 q 726 31 724 46 q 728 3 728 15 q 721 -10 728 -7 q 703 -12 714 -12 q 688 -11 693 -11 l 614 -7 q 476 1 517 1 q 251 -7 432 1 l 125 -11 m 342 -294 q 297 -293 304 -294 q 290 -290 292 -293 q 289 -284 289 -287 q 289 -279 289 -281 l 332 -143 l 343 -99 l 353 -71 q 374 -57 354 -57 l 451 -57 q 458 -68 465 -57 q 451 -92 457 -83 q 446 -110 450 -97 q 438 -133 442 -122 l 421 -186 q 401 -244 408 -226 q 394 -275 394 -269 q 383 -293 390 -287 q 342 -294 379 -294 z "},"Ŀ":{"ha":728,"x_min":88,"x_max":728,"o":"m 125 -11 q 94 17 94 -11 l 94 125 l 100 590 q 93 782 100 643 l 88 953 q 106 976 88 976 q 129 972 113 976 q 156 968 146 968 q 249 963 194 963 q 319 967 286 963 q 349 964 340 969 q 357 946 357 958 q 355 926 357 936 q 353 903 353 915 l 350 828 q 344 657 344 714 l 347 447 q 349 344 349 397 l 346 193 l 344 165 l 346 126 l 349 78 l 547 71 l 713 69 l 715 69 q 725 67 724 69 q 726 59 726 64 q 725 51 725 54 q 726 31 724 46 q 728 3 728 15 q 721 -10 728 -7 q 703 -12 714 -12 q 688 -11 693 -11 l 614 -7 q 476 1 517 1 q 251 -7 432 1 l 125 -11 m 535 425 q 464 453 493 425 q 435 536 435 482 q 463 611 435 592 q 535 631 492 631 q 640 507 640 631 q 608 449 640 474 q 535 425 575 425 z "},"ǈ":{"ha":958,"x_min":88,"x_max":936,"o":"m 125 -11 q 94 17 94 -11 l 94 125 l 100 590 q 93 782 100 643 l 88 953 q 106 976 88 976 q 129 972 113 976 q 156 968 146 968 q 249 963 194 963 q 319 967 286 963 q 349 964 340 969 q 357 946 357 958 q 355 926 357 936 q 353 903 353 915 l 350 828 q 344 657 344 714 l 347 447 q 349 344 349 397 l 346 193 l 344 165 l 346 126 l 349 78 l 547 71 l 713 69 l 715 69 q 725 67 724 69 q 726 59 726 64 q 725 51 725 54 q 726 31 724 46 q 728 3 728 15 q 721 -10 728 -7 q 703 -12 714 -12 q 688 -11 693 -11 l 614 -7 q 476 1 517 1 q 251 -7 432 1 l 125 -11 m 854 876 q 800 897 817 876 q 783 947 783 918 q 813 1011 783 994 q 881 1028 843 1028 q 921 1003 906 1028 q 936 947 936 979 q 915 897 936 918 q 854 876 893 876 m 750 -221 q 660 -193 704 -221 q 658 -183 656 -189 l 667 -161 q 670 -151 667 -160 q 686 -142 674 -142 q 702 -144 692 -142 q 726 -146 713 -146 q 792 -58 788 -146 l 792 -31 q 794 171 794 29 l 806 501 q 808 624 808 549 q 803 754 808 710 q 802 773 801 764 q 803 786 803 782 q 831 810 803 806 q 847 812 836 813 q 861 811 858 811 l 875 813 q 897 774 897 813 l 896 756 l 896 696 l 894 643 q 894 601 896 625 q 893 565 893 576 l 885 296 q 883 229 883 286 l 885 10 l 883 -39 q 875 -144 882 -110 q 840 -200 868 -179 q 750 -221 811 -221 z "},"Ł":{"ha":744,"x_min":-24,"x_max":744,"o":"m 142 -11 q 111 17 111 -11 l 111 125 l 114 389 l 76 371 q 49 363 60 363 q 24 379 35 363 l -15 451 q 35 497 -24 475 q 78 517 60 510 l 117 531 l 117 590 q 110 782 117 643 l 104 953 q 122 976 104 976 q 146 972 129 976 q 172 968 163 968 q 265 963 211 963 q 336 967 303 963 q 365 964 357 969 q 374 946 374 958 q 372 926 374 936 q 369 903 369 915 l 367 828 q 361 657 361 714 l 361 638 l 396 653 q 431 672 399 654 q 456 686 447 685 l 460 686 q 481 671 474 686 l 500 600 q 503 582 503 586 q 481 554 503 565 l 363 503 l 365 344 l 363 193 l 361 165 l 363 126 l 365 78 l 564 71 l 729 69 l 732 69 q 741 67 739 69 q 742 59 743 64 q 742 51 742 54 q 742 31 740 46 q 744 3 744 15 q 738 -10 744 -7 q 720 -12 731 -12 q 704 -11 710 -11 l 631 -7 q 493 1 533 1 q 268 -7 449 1 l 142 -11 z "},"M":{"ha":978,"x_min":86,"x_max":899,"o":"m 117 0 q 92 9 96 0 q 90 47 89 18 q 89 135 90 93 l 86 306 q 89 387 86 344 q 93 463 92 429 q 100 603 100 563 l 103 864 l 101 939 q 108 994 101 988 q 118 999 113 999 q 128 997 121 999 q 143 994 135 994 l 186 996 q 225 993 213 996 q 243 973 238 989 q 253 937 249 957 q 260 906 257 917 q 292 801 267 868 q 342 685 318 735 q 394 577 361 651 q 440 460 426 503 q 464 404 449 438 l 485 354 l 514 289 q 572 404 554 368 l 663 585 l 725 710 q 790 839 774 810 q 846 940 817 893 q 888 986 875 986 q 899 968 899 986 q 892 924 899 951 l 886 889 q 881 556 881 851 q 877 397 881 490 q 871 274 874 304 q 868 167 868 238 l 869 32 l 869 25 q 861 11 869 8 l 858 11 q 842 10 851 11 q 824 8 833 8 q 816 15 818 10 q 814 35 814 21 l 814 117 q 817 283 814 258 q 823 392 819 313 q 826 519 826 471 q 828 597 825 532 l 829 647 l 832 747 q 815 718 822 733 q 789 667 801 694 l 775 639 q 721 531 751 593 q 668 426 690 469 q 605 298 643 376 q 546 174 567 219 q 504 89 510 89 q 492 103 500 89 q 481 121 483 117 q 450 185 471 136 q 417 272 429 235 q 344 413 408 297 q 293 513 294 508 q 256 606 279 540 q 232 667 240 640 l 229 606 l 226 511 l 224 238 l 222 21 q 215 6 222 8 q 199 3 208 3 q 183 4 189 4 l 153 3 q 117 0 128 0 z "},"N":{"ha":939,"x_min":82,"x_max":854,"o":"m 126 -17 q 99 -9 106 -17 q 90 8 92 -1 q 88 22 89 18 q 82 83 82 47 q 83 140 82 117 q 86 309 83 213 q 93 447 89 406 l 100 546 q 117 806 117 776 q 121 969 117 915 q 160 1007 124 1007 q 181 1006 171 1007 q 196 1004 190 1004 l 314 1006 q 359 999 344 1006 q 382 978 374 993 q 417 903 396 949 l 468 792 l 533 649 q 581 546 551 610 q 622 457 610 482 q 653 397 646 408 l 692 321 l 735 236 l 732 317 l 726 453 l 726 494 q 729 649 726 571 q 728 743 729 707 l 726 849 l 732 982 q 753 1003 732 1003 q 781 999 760 1003 q 807 996 793 996 q 829 996 821 996 q 844 993 840 996 q 847 983 847 990 q 846 971 847 978 q 844 956 844 964 l 843 836 l 840 556 l 839 515 q 840 429 839 468 q 843 365 842 390 q 847 265 847 306 q 851 100 847 271 l 854 22 l 854 19 q 828 -6 854 -8 q 811 -4 824 -4 l 771 -6 l 763 -6 q 748 -1 753 -6 q 732 22 743 3 q 721 50 728 32 q 704 90 714 68 q 618 294 644 240 q 464 629 588 353 q 401 750 436 686 l 361 822 l 365 690 l 367 608 q 369 488 369 517 q 374 258 369 374 l 375 150 q 378 65 375 121 l 381 17 l 381 14 q 374 -4 381 0 q 354 -8 367 -8 l 324 -10 q 261 -14 294 -14 q 197 -15 222 -14 l 126 -17 z "},"Ǌ":{"ha":1621,"x_min":82,"x_max":1544,"o":"m 126 -17 q 99 -9 106 -17 q 90 8 92 -1 q 88 22 89 18 q 82 83 82 47 q 83 140 82 117 q 86 309 83 213 q 93 447 89 406 l 100 546 q 117 806 117 776 q 121 969 117 915 q 160 1007 124 1007 q 181 1006 171 1007 q 196 1004 190 1004 l 314 1006 q 359 999 344 1006 q 382 978 374 993 q 417 903 396 949 l 468 792 l 533 649 q 581 546 551 610 q 622 457 610 482 q 653 397 646 408 l 692 321 l 735 236 l 732 317 l 726 453 l 726 494 q 729 649 726 571 q 728 743 729 707 l 726 849 l 732 982 q 753 1003 732 1003 q 781 999 760 1003 q 807 996 793 996 q 829 996 821 996 q 844 993 840 996 q 847 983 847 990 q 846 971 847 978 q 844 956 844 964 l 843 836 l 840 556 l 839 515 q 840 429 839 468 q 843 365 842 390 q 847 265 847 306 q 851 100 847 271 l 854 22 l 854 19 q 828 -6 854 -8 q 811 -4 824 -4 l 771 -6 l 763 -6 q 748 -1 753 -6 q 732 22 743 3 q 721 50 728 32 q 704 90 714 68 q 618 294 644 240 q 464 629 588 353 q 401 750 436 686 l 361 822 l 365 690 l 367 608 q 369 488 369 517 q 374 258 369 374 l 375 150 q 378 65 375 121 l 381 17 l 381 14 q 374 -4 381 0 q 354 -8 367 -8 l 324 -10 q 261 -14 294 -14 q 197 -15 222 -14 l 126 -17 m 1278 -10 q 1066 59 1140 -10 q 969 208 992 128 q 946 343 946 288 l 947 463 q 949 522 949 489 q 953 544 949 540 q 969 546 957 547 q 1056 556 985 546 q 1081 531 1081 557 q 1078 507 1081 522 q 1075 479 1075 492 q 1095 271 1075 344 q 1149 170 1115 197 q 1233 143 1183 143 q 1324 173 1289 143 q 1375 244 1360 203 q 1390 324 1390 286 l 1394 707 q 1392 799 1392 749 l 1393 933 q 1400 977 1390 968 q 1428 986 1410 986 q 1454 990 1436 988 q 1488 992 1472 992 q 1510 990 1503 992 q 1539 981 1533 989 q 1543 944 1544 974 l 1540 519 q 1540 498 1539 510 q 1540 476 1540 486 l 1540 432 q 1278 -10 1540 -10 z "},"Ń":{"ha":939,"x_min":82,"x_max":854,"o":"m 126 -17 q 99 -9 106 -17 q 90 8 92 -1 q 88 22 89 18 q 82 83 82 47 q 83 140 82 117 q 86 309 83 213 q 93 447 89 406 l 100 546 q 117 806 117 776 q 121 969 117 915 q 160 1007 124 1007 q 181 1006 171 1007 q 196 1004 190 1004 l 314 1006 q 359 999 344 1006 q 382 978 374 993 q 417 903 396 949 l 468 792 l 533 649 q 581 546 551 610 q 622 457 610 482 q 653 397 646 408 l 692 321 l 735 236 l 732 317 l 726 453 l 726 494 q 729 649 726 571 q 728 743 729 707 l 726 849 l 732 982 q 753 1003 732 1003 q 781 999 760 1003 q 807 996 793 996 q 829 996 821 996 q 844 993 840 996 q 847 983 847 990 q 846 971 847 978 q 844 956 844 964 l 843 836 l 840 556 l 839 515 q 840 429 839 468 q 843 365 842 390 q 847 265 847 306 q 851 100 847 271 l 854 22 l 854 19 q 828 -6 854 -8 q 811 -4 824 -4 l 771 -6 l 763 -6 q 748 -1 753 -6 q 732 22 743 3 q 721 50 728 32 q 704 90 714 68 q 618 294 644 240 q 464 629 588 353 q 401 750 436 686 l 361 822 l 365 690 l 367 608 q 369 488 369 517 q 374 258 369 374 l 375 150 q 378 65 375 121 l 381 17 l 381 14 q 374 -4 381 0 q 354 -8 367 -8 l 324 -10 q 261 -14 294 -14 q 197 -15 222 -14 l 126 -17 z "},"Ň":{"ha":939,"x_min":82,"x_max":854,"o":"m 126 -17 q 99 -9 106 -17 q 90 8 92 -1 q 88 22 89 18 q 82 83 82 47 q 83 140 82 117 q 86 309 83 213 q 93 447 89 406 l 100 546 q 117 806 117 776 q 121 969 117 915 q 160 1007 124 1007 q 181 1006 171 1007 q 196 1004 190 1004 l 314 1006 q 359 999 344 1006 q 382 978 374 993 q 417 903 396 949 l 468 792 l 533 649 q 581 546 551 610 q 622 457 610 482 q 653 397 646 408 l 692 321 l 735 236 l 732 317 l 726 453 l 726 494 q 729 649 726 571 q 728 743 729 707 l 726 849 l 732 982 q 753 1003 732 1003 q 781 999 760 1003 q 807 996 793 996 q 829 996 821 996 q 844 993 840 996 q 847 983 847 990 q 846 971 847 978 q 844 956 844 964 l 843 836 l 840 556 l 839 515 q 840 429 839 468 q 843 365 842 390 q 847 265 847 306 q 851 100 847 271 l 854 22 l 854 19 q 828 -6 854 -8 q 811 -4 824 -4 l 771 -6 l 763 -6 q 748 -1 753 -6 q 732 22 743 3 q 721 50 728 32 q 704 90 714 68 q 618 294 644 240 q 464 629 588 353 q 401 750 436 686 l 361 822 l 365 690 l 367 608 q 369 488 369 517 q 374 258 369 374 l 375 150 q 378 65 375 121 l 381 17 l 381 14 q 374 -4 381 0 q 354 -8 367 -8 l 324 -10 q 261 -14 294 -14 q 197 -15 222 -14 l 126 -17 z "},"Ņ":{"ha":939,"x_min":82,"x_max":854,"o":"m 126 -17 q 99 -9 106 -17 q 90 8 92 -1 q 88 22 89 18 q 82 83 82 47 q 83 140 82 117 q 86 309 83 213 q 93 447 89 406 l 100 546 q 117 806 117 776 q 121 969 117 915 q 160 1007 124 1007 q 181 1006 171 1007 q 196 1004 190 1004 l 314 1006 q 359 999 344 1006 q 382 978 374 993 q 417 903 396 949 l 468 792 l 533 649 q 581 546 551 610 q 622 457 610 482 q 653 397 646 408 l 692 321 l 735 236 l 732 317 l 726 453 l 726 494 q 729 649 726 571 q 728 743 729 707 l 726 849 l 732 982 q 753 1003 732 1003 q 781 999 760 1003 q 807 996 793 996 q 829 996 821 996 q 844 993 840 996 q 847 983 847 990 q 846 971 847 978 q 844 956 844 964 l 843 836 l 840 556 l 839 515 q 840 429 839 468 q 843 365 842 390 q 847 265 847 306 q 851 100 847 271 l 854 22 l 854 19 q 828 -6 854 -8 q 811 -4 824 -4 l 771 -6 l 763 -6 q 748 -1 753 -6 q 732 22 743 3 q 721 50 728 32 q 704 90 714 68 q 618 294 644 240 q 464 629 588 353 q 401 750 436 686 l 361 822 l 365 690 l 367 608 q 369 488 369 517 q 374 258 369 374 l 375 150 q 378 65 375 121 l 381 17 l 381 14 q 374 -4 381 0 q 354 -8 367 -8 l 324 -10 q 261 -14 294 -14 q 197 -15 222 -14 l 126 -17 m 479 -294 q 435 -293 442 -294 q 428 -290 429 -293 q 426 -284 426 -287 q 426 -279 426 -281 l 469 -143 l 481 -99 l 490 -71 q 511 -57 492 -57 l 589 -57 q 596 -68 603 -57 q 589 -92 594 -83 q 583 -110 588 -97 q 575 -133 579 -122 l 558 -186 q 539 -244 546 -226 q 532 -275 532 -269 q 521 -293 528 -287 q 479 -294 517 -294 z "},"Ṅ":{"ha":939,"x_min":82,"x_max":854,"o":"m 126 -17 q 99 -9 106 -17 q 90 8 92 -1 q 88 22 89 18 q 82 83 82 47 q 83 140 82 117 q 86 309 83 213 q 93 447 89 406 l 100 546 q 117 806 117 776 q 121 969 117 915 q 160 1007 124 1007 q 181 1006 171 1007 q 196 1004 190 1004 l 314 1006 q 359 999 344 1006 q 382 978 374 993 q 417 903 396 949 l 468 792 l 533 649 q 581 546 551 610 q 622 457 610 482 q 653 397 646 408 l 692 321 l 735 236 l 732 317 l 726 453 l 726 494 q 729 649 726 571 q 728 743 729 707 l 726 849 l 732 982 q 753 1003 732 1003 q 781 999 760 1003 q 807 996 793 996 q 829 996 821 996 q 844 993 840 996 q 847 983 847 990 q 846 971 847 978 q 844 956 844 964 l 843 836 l 840 556 l 839 515 q 840 429 839 468 q 843 365 842 390 q 847 265 847 306 q 851 100 847 271 l 854 22 l 854 19 q 828 -6 854 -8 q 811 -4 824 -4 l 771 -6 l 763 -6 q 748 -1 753 -6 q 732 22 743 3 q 721 50 728 32 q 704 90 714 68 q 618 294 644 240 q 464 629 588 353 q 401 750 436 686 l 361 822 l 365 690 l 367 608 q 369 488 369 517 q 374 258 369 374 l 375 150 q 378 65 375 121 l 381 17 l 381 14 q 374 -4 381 0 q 354 -8 367 -8 l 324 -10 q 261 -14 294 -14 q 197 -15 222 -14 l 126 -17 m 554 1006 q 486 1030 510 1006 q 463 1097 463 1054 q 485 1160 463 1138 q 547 1182 507 1182 q 608 1161 586 1182 q 629 1103 629 1140 q 609 1031 629 1057 q 554 1006 589 1006 z "},"Ŋ":{"ha":939,"x_min":82,"x_max":853,"o":"m 594 -310 q 475 -282 543 -310 q 376 -212 408 -254 q 321 -76 343 -168 q 369 -28 328 -32 q 453 -33 415 -25 q 496 -67 492 -43 q 526 -156 503 -126 q 592 -189 549 -186 q 672 -125 650 -181 q 693 40 693 -69 q 679 150 693 117 l 618 294 q 464 629 588 353 q 401 750 436 686 l 361 822 l 365 690 l 367 608 q 369 488 369 517 q 372 311 369 411 l 374 261 q 375 232 375 250 q 378 147 375 203 l 381 99 l 381 96 q 374 78 381 82 q 354 74 367 74 l 324 72 q 261 68 294 68 q 197 67 222 68 l 126 65 q 99 73 106 65 q 90 90 92 81 q 88 104 89 100 q 82 165 82 129 q 83 222 82 199 q 85 267 83 257 q 86 313 86 276 q 93 447 90 421 l 100 546 q 117 806 117 776 q 121 969 117 915 q 160 1007 124 1007 q 181 1006 171 1007 q 196 1004 190 1004 l 314 1006 q 359 999 344 1006 q 382 978 374 993 q 417 903 396 949 l 468 792 l 533 649 q 581 546 551 610 q 622 457 610 482 q 653 397 646 408 l 692 321 l 735 236 l 732 317 l 726 453 l 726 494 q 729 649 726 571 q 728 743 729 707 l 726 849 l 732 982 q 753 1003 732 1003 q 781 999 760 1003 q 807 996 793 996 q 829 996 821 996 q 844 993 840 996 q 847 983 847 990 q 846 971 847 978 q 844 956 844 964 l 843 836 l 840 556 l 839 515 q 840 429 839 468 q 843 365 842 390 q 847 265 847 306 q 849 213 847 233 l 850 131 q 851 36 851 115 l 853 -57 q 838 -137 853 -94 q 793 -215 824 -179 q 705 -283 761 -257 q 594 -310 649 -310 z "},"Ɲ":{"ha":933,"x_min":-106,"x_max":849,"o":"m 50 -310 q -21 -299 17 -310 q -82 -269 -58 -287 q -100 -253 -94 -260 q -106 -237 -106 -247 q -90 -201 -106 -225 q -56 -157 -72 -175 q -21 -139 -39 -139 q -3 -143 -10 -139 q 8 -153 4 -147 q 14 -160 13 -158 q 27 -175 21 -169 q 44 -181 33 -181 q 78 -111 68 -181 q 88 8 88 -42 l 86 83 q 88 140 86 117 q 86 243 88 204 l 85 376 q 86 447 85 431 q 88 496 88 458 q 83 701 88 501 l 81 806 q 88 969 81 879 q 126 1007 90 1007 q 149 1006 139 1007 q 167 1004 160 1004 l 172 1004 q 191 1002 176 1004 q 221 994 206 1000 q 242 978 236 988 q 276 903 256 949 l 328 792 l 393 649 q 440 546 411 610 q 482 457 469 482 q 513 397 506 408 l 551 321 l 594 236 l 592 317 l 586 453 l 586 494 q 589 649 586 571 q 588 743 589 707 l 586 849 l 592 982 q 613 1003 592 1003 q 640 999 619 1003 q 753 996 650 996 l 824 996 q 838 993 835 996 q 842 983 842 990 q 840 971 842 978 q 839 956 839 964 l 838 836 l 835 556 l 833 515 q 835 429 833 468 q 838 365 836 390 q 842 265 842 306 q 846 100 842 271 l 849 22 l 849 19 q 841 -3 849 3 q 822 -6 833 -10 q 806 -4 818 -4 l 765 -4 q 624 -6 636 -8 q 607 -1 611 -4 q 592 22 603 3 q 581 50 588 32 q 564 90 574 68 q 478 294 504 240 q 324 629 447 353 q 261 750 296 686 l 221 822 l 225 690 l 226 608 q 229 488 229 517 q 233 258 229 374 l 235 150 l 236 93 l 239 -57 q 215 -185 239 -128 q 147 -276 190 -243 q 50 -310 104 -310 z "},"ǋ":{"ha":1169,"x_min":82,"x_max":1147,"o":"m 126 -17 q 99 -9 106 -17 q 90 8 92 -1 q 88 22 89 18 q 82 83 82 47 q 83 140 82 117 q 86 309 83 213 q 93 447 89 406 l 100 546 q 117 806 117 776 q 121 969 117 915 q 160 1007 124 1007 q 181 1006 171 1007 q 196 1004 190 1004 l 314 1006 q 359 999 344 1006 q 382 978 374 993 q 417 903 396 949 l 468 792 l 533 649 q 581 546 551 610 q 622 457 610 482 q 653 397 646 408 l 692 321 l 735 236 l 732 317 l 726 453 l 726 494 q 729 649 726 571 q 728 743 729 707 l 726 849 l 732 982 q 753 1003 732 1003 q 781 999 760 1003 q 807 996 793 996 q 829 996 821 996 q 844 993 840 996 q 847 983 847 990 q 846 971 847 978 q 844 956 844 964 l 843 836 l 840 556 l 839 515 q 840 429 839 468 q 843 365 842 390 q 847 265 847 306 q 851 100 847 271 l 854 22 l 854 19 q 828 -6 854 -8 q 811 -4 824 -4 l 771 -6 l 763 -6 q 748 -1 753 -6 q 732 22 743 3 q 721 50 728 32 q 704 90 714 68 q 618 294 644 240 q 464 629 588 353 q 401 750 436 686 l 361 822 l 365 690 l 367 608 q 369 488 369 517 q 374 258 369 374 l 375 150 q 378 65 375 121 l 381 17 l 381 14 q 374 -4 381 0 q 354 -8 367 -8 l 324 -10 q 261 -14 294 -14 q 197 -15 222 -14 l 126 -17 m 1065 876 q 1011 897 1028 876 q 994 947 994 918 q 1024 1011 994 994 q 1092 1028 1054 1028 q 1132 1003 1117 1028 q 1147 947 1147 979 q 1126 897 1147 918 q 1065 876 1104 876 m 961 -221 q 871 -193 915 -221 q 869 -183 867 -189 l 878 -161 q 881 -151 878 -160 q 897 -142 885 -142 q 913 -144 903 -142 q 938 -146 924 -146 q 1003 -58 999 -146 l 1003 -31 q 1006 171 1006 29 l 1017 501 q 1019 624 1019 549 q 1014 754 1019 710 q 1013 773 1013 764 q 1014 786 1014 782 q 1042 810 1014 806 q 1058 812 1047 813 q 1072 811 1069 811 l 1086 813 q 1108 774 1108 813 l 1107 756 l 1107 696 l 1106 643 q 1106 601 1107 625 q 1104 565 1104 576 l 1096 296 q 1094 229 1094 286 l 1096 10 l 1094 -39 q 1086 -144 1093 -110 q 1051 -200 1079 -179 q 961 -221 1022 -221 z "},"Ñ":{"ha":939,"x_min":82,"x_max":854,"o":"m 126 -17 q 99 -9 106 -17 q 90 8 92 -1 q 88 22 89 18 q 82 83 82 47 q 83 140 82 117 q 86 309 83 213 q 93 447 89 406 l 100 546 q 117 806 117 776 q 121 969 117 915 q 160 1007 124 1007 q 181 1006 171 1007 q 196 1004 190 1004 l 314 1006 q 359 999 344 1006 q 382 978 374 993 q 417 903 396 949 l 468 792 l 533 649 q 581 546 551 610 q 622 457 610 482 q 653 397 646 408 l 692 321 l 735 236 l 732 317 l 726 453 l 726 494 q 729 649 726 571 q 728 743 729 707 l 726 849 l 732 982 q 753 1003 732 1003 q 781 999 760 1003 q 807 996 793 996 q 829 996 821 996 q 844 993 840 996 q 847 983 847 990 q 846 971 847 978 q 844 956 844 964 l 843 836 l 840 556 l 839 515 q 840 429 839 468 q 843 365 842 390 q 847 265 847 306 q 851 100 847 271 l 854 22 l 854 19 q 828 -6 854 -8 q 811 -4 824 -4 l 771 -6 l 763 -6 q 748 -1 753 -6 q 732 22 743 3 q 721 50 728 32 q 704 90 714 68 q 618 294 644 240 q 464 629 588 353 q 401 750 436 686 l 361 822 l 365 690 l 367 608 q 369 488 369 517 q 374 258 369 374 l 375 150 q 378 65 375 121 l 381 17 l 381 14 q 374 -4 381 0 q 354 -8 367 -8 l 324 -10 q 261 -14 294 -14 q 197 -15 222 -14 l 126 -17 z "},"O":{"ha":756,"x_min":60,"x_max":696,"o":"m 389 -31 q 125 137 190 -31 q 60 496 60 304 q 110 792 60 681 q 234 947 161 903 q 379 992 307 992 q 588 912 518 992 q 676 723 657 832 q 696 476 696 614 q 663 248 696 365 q 560 50 629 131 q 389 -31 490 -31 m 378 322 q 433 364 415 322 q 451 464 451 406 q 434 561 451 519 q 388 603 417 603 q 335 555 353 603 q 318 451 318 507 q 329 358 318 394 q 378 322 340 322 z "},"Ó":{"ha":756,"x_min":60,"x_max":696,"o":"m 389 -31 q 125 137 190 -31 q 60 496 60 304 q 110 792 60 681 q 234 947 161 903 q 379 992 307 992 q 588 912 518 992 q 676 723 657 832 q 696 476 696 614 q 663 248 696 365 q 560 50 629 131 q 389 -31 490 -31 m 378 322 q 433 364 415 322 q 451 464 451 406 q 434 561 451 519 q 388 603 417 603 q 335 555 353 603 q 318 451 318 507 q 329 358 318 394 q 378 322 340 322 z "},"Ŏ":{"ha":756,"x_min":60,"x_max":696,"o":"m 389 -31 q 125 137 190 -31 q 60 496 60 304 q 110 792 60 681 q 234 947 161 903 q 379 992 307 992 q 588 912 518 992 q 676 723 657 832 q 696 476 696 614 q 663 248 696 365 q 560 50 629 131 q 389 -31 490 -31 m 378 322 q 433 364 415 322 q 451 464 451 406 q 434 561 451 519 q 388 603 417 603 q 335 555 353 603 q 318 451 318 507 q 329 358 318 394 q 378 322 340 322 z "},"Ǒ":{"ha":756,"x_min":60,"x_max":696,"o":"m 389 -31 q 125 137 190 -31 q 60 496 60 304 q 110 792 60 681 q 234 947 161 903 q 379 992 307 992 q 588 912 518 992 q 676 723 657 832 q 696 476 696 614 q 663 248 696 365 q 560 50 629 131 q 389 -31 490 -31 m 378 322 q 433 364 415 322 q 451 464 451 406 q 434 561 451 519 q 388 603 417 603 q 335 555 353 603 q 318 451 318 507 q 329 358 318 394 q 378 322 340 322 z "},"Ô":{"ha":756,"x_min":60,"x_max":696,"o":"m 389 -31 q 125 137 190 -31 q 60 496 60 304 q 110 792 60 681 q 234 947 161 903 q 379 992 307 992 q 588 912 518 992 q 676 723 657 832 q 696 476 696 614 q 663 248 696 365 q 560 50 629 131 q 389 -31 490 -31 m 378 322 q 433 364 415 322 q 451 464 451 406 q 434 561 451 519 q 388 603 417 603 q 335 555 353 603 q 318 451 318 507 q 329 358 318 394 q 378 322 340 322 z "},"Ố":{"ha":756,"x_min":60,"x_max":696,"o":"m 389 -31 q 125 137 190 -31 q 60 496 60 304 q 110 792 60 681 q 234 947 161 903 q 379 992 307 992 q 588 912 518 992 q 676 723 657 832 q 696 476 696 614 q 663 248 696 365 q 560 50 629 131 q 389 -31 490 -31 m 378 322 q 433 364 415 322 q 451 464 451 406 q 434 561 451 519 q 388 603 417 603 q 335 555 353 603 q 318 451 318 507 q 329 358 318 394 q 378 322 340 322 z "},"Ộ":{"ha":756,"x_min":60,"x_max":696,"o":"m 389 -31 q 125 137 190 -31 q 60 496 60 304 q 110 792 60 681 q 234 947 161 903 q 379 992 307 992 q 588 912 518 992 q 676 723 657 832 q 696 476 696 614 q 663 248 696 365 q 560 50 629 131 q 389 -31 490 -31 m 378 322 q 433 364 415 322 q 451 464 451 406 q 434 561 451 519 q 388 603 417 603 q 335 555 353 603 q 318 451 318 507 q 329 358 318 394 q 378 322 340 322 m 381 -225 q 322 -201 349 -225 q 296 -140 296 -176 q 319 -84 296 -110 q 375 -58 343 -58 q 442 -78 413 -58 q 472 -133 472 -99 q 442 -200 472 -175 q 381 -225 413 -225 z "},"Ồ":{"ha":756,"x_min":60,"x_max":696,"o":"m 389 -31 q 125 137 190 -31 q 60 496 60 304 q 110 792 60 681 q 234 947 161 903 q 379 992 307 992 q 588 912 518 992 q 676 723 657 832 q 696 476 696 614 q 663 248 696 365 q 560 50 629 131 q 389 -31 490 -31 m 378 322 q 433 364 415 322 q 451 464 451 406 q 434 561 451 519 q 388 603 417 603 q 335 555 353 603 q 318 451 318 507 q 329 358 318 394 q 378 322 340 322 z "},"Ổ":{"ha":756,"x_min":60,"x_max":696,"o":"m 389 -31 q 125 137 190 -31 q 60 496 60 304 q 110 792 60 681 q 234 947 161 903 q 379 992 307 992 q 588 912 518 992 q 676 723 657 832 q 696 476 696 614 q 663 248 696 365 q 560 50 629 131 q 389 -31 490 -31 m 378 322 q 433 364 415 322 q 451 464 451 406 q 434 561 451 519 q 388 603 417 603 q 335 555 353 603 q 318 451 318 507 q 329 358 318 394 q 378 322 340 322 m 383 1193 q 366 1207 375 1193 q 357 1228 357 1221 q 365 1246 357 1239 q 389 1261 374 1253 q 424 1284 413 1272 q 436 1319 436 1296 q 425 1351 436 1339 q 393 1364 414 1364 q 356 1351 374 1364 q 335 1338 339 1338 q 299 1364 325 1338 q 291 1372 299 1364 q 289 1386 283 1379 q 328 1419 306 1404 q 367 1438 344 1431 q 408 1446 390 1446 q 459 1435 435 1446 q 499 1404 483 1425 q 519 1318 519 1376 q 478 1228 519 1264 q 383 1193 438 1193 z "},"Ỗ":{"ha":756,"x_min":60,"x_max":696,"o":"m 389 -31 q 125 137 190 -31 q 60 496 60 304 q 110 792 60 681 q 234 947 161 903 q 379 992 307 992 q 588 912 518 992 q 676 723 657 832 q 696 476 696 614 q 663 248 696 365 q 560 50 629 131 q 389 -31 490 -31 m 378 322 q 433 364 415 322 q 451 464 451 406 q 434 561 451 519 q 388 603 417 603 q 335 555 353 603 q 318 451 318 507 q 329 358 318 394 q 378 322 340 322 z "},"Ȍ":{"ha":756,"x_min":60,"x_max":696,"o":"m 389 -31 q 125 137 190 -31 q 60 496 60 304 q 110 792 60 681 q 234 947 161 903 q 379 992 307 992 q 588 912 518 992 q 676 723 657 832 q 696 476 696 614 q 663 248 696 365 q 560 50 629 131 q 389 -31 490 -31 m 378 322 q 433 364 415 322 q 451 464 451 406 q 434 561 451 519 q 388 603 417 603 q 335 555 353 603 q 318 451 318 507 q 329 358 318 394 q 378 322 340 322 m 311 1021 q 287 1026 301 1021 q 267 1033 272 1032 q 194 1063 228 1051 q 149 1079 161 1075 q 81 1126 88 1101 q 79 1142 79 1132 q 104 1165 79 1165 l 132 1163 q 181 1153 163 1158 l 211 1142 q 265 1122 243 1128 q 296 1110 288 1115 q 338 1094 311 1106 q 365 1075 364 1082 q 368 1061 368 1064 q 340 1031 368 1040 q 311 1021 325 1021 m 586 1021 q 562 1026 576 1021 q 542 1033 547 1032 q 424 1079 486 1057 q 356 1126 363 1101 q 354 1142 354 1132 q 379 1165 354 1165 l 407 1163 q 456 1153 438 1158 l 486 1142 q 540 1122 518 1128 q 571 1110 563 1115 q 613 1094 586 1106 q 640 1075 639 1082 q 643 1061 643 1064 q 615 1031 643 1040 q 586 1021 600 1021 z "},"Ö":{"ha":756,"x_min":60,"x_max":696,"o":"m 389 -31 q 125 137 190 -31 q 60 496 60 304 q 110 792 60 681 q 234 947 161 903 q 379 992 307 992 q 588 912 518 992 q 676 723 657 832 q 696 476 696 614 q 663 248 696 365 q 560 50 629 131 q 389 -31 490 -31 m 378 322 q 433 364 415 322 q 451 464 451 406 q 434 561 451 519 q 388 603 417 603 q 335 555 353 603 q 318 451 318 507 q 329 358 318 394 q 378 322 340 322 m 554 1015 q 491 1042 514 1015 q 468 1118 468 1069 q 491 1162 468 1146 q 554 1178 514 1178 q 610 1155 590 1178 q 629 1090 629 1132 q 609 1035 629 1056 q 554 1015 589 1015 m 269 1010 q 202 1028 226 1010 q 178 1081 178 1047 q 201 1144 178 1121 q 264 1167 224 1167 q 324 1146 303 1167 q 344 1086 344 1125 q 325 1030 344 1050 q 269 1010 306 1010 z "},"Ȫ":{"ha":756,"x_min":60,"x_max":696,"o":"m 389 -31 q 125 137 190 -31 q 60 496 60 304 q 110 792 60 681 q 234 947 161 903 q 379 992 307 992 q 588 912 518 992 q 676 723 657 832 q 696 476 696 614 q 663 248 696 365 q 560 50 629 131 q 389 -31 490 -31 m 378 322 q 433 364 415 322 q 451 464 451 406 q 434 561 451 519 q 388 603 417 603 q 335 555 353 603 q 318 451 318 507 q 329 358 318 394 q 378 322 340 322 m 554 1015 q 491 1042 514 1015 q 468 1118 468 1069 q 491 1162 468 1146 q 554 1178 514 1178 q 610 1155 590 1178 q 629 1090 629 1132 q 609 1035 629 1056 q 554 1015 589 1015 m 269 1010 q 202 1028 226 1010 q 178 1081 178 1047 q 201 1144 178 1121 q 264 1167 224 1167 q 324 1146 303 1167 q 344 1086 344 1125 q 325 1030 344 1050 q 269 1010 306 1010 z "},"Ȱ":{"ha":756,"x_min":60,"x_max":696,"o":"m 389 -31 q 125 137 190 -31 q 60 496 60 304 q 110 792 60 681 q 234 947 161 903 q 379 992 307 992 q 588 912 518 992 q 676 723 657 832 q 696 476 696 614 q 663 248 696 365 q 560 50 629 131 q 389 -31 490 -31 m 378 322 q 433 364 415 322 q 451 464 451 406 q 434 561 451 519 q 388 603 417 603 q 335 555 353 603 q 318 451 318 507 q 329 358 318 394 q 378 322 340 322 m 413 1006 q 344 1030 368 1006 q 321 1097 321 1054 q 343 1160 321 1138 q 406 1182 365 1182 q 466 1161 444 1182 q 488 1103 488 1140 q 467 1031 488 1057 q 413 1006 447 1006 z "},"Ọ":{"ha":756,"x_min":60,"x_max":697,"o":"m 389 25 q 108 219 203 25 q 76 308 86 272 q 60 496 60 385 q 110 792 60 681 q 234 947 161 903 q 379 992 307 992 q 588 912 518 992 q 676 723 657 832 q 696 476 696 614 q 678 315 697 393 q 624 188 660 236 q 520 71 576 117 q 389 25 464 25 m 378 322 q 433 364 415 322 q 451 464 451 406 q 434 561 451 519 q 388 603 417 603 q 335 555 353 603 q 318 451 318 507 q 329 358 318 394 q 378 322 340 322 m 372 -225 q 314 -201 340 -225 q 288 -140 288 -176 q 311 -84 288 -110 q 367 -58 335 -58 q 434 -78 404 -58 q 464 -133 464 -99 q 434 -200 464 -175 q 372 -225 404 -225 z "},"Ò":{"ha":756,"x_min":60,"x_max":696,"o":"m 389 -31 q 125 137 190 -31 q 60 496 60 304 q 110 792 60 681 q 234 947 161 903 q 379 992 307 992 q 588 912 518 992 q 676 723 657 832 q 696 476 696 614 q 663 248 696 365 q 560 50 629 131 q 389 -31 490 -31 m 378 322 q 433 364 415 322 q 451 464 451 406 q 434 561 451 519 q 388 603 417 603 q 335 555 353 603 q 318 451 318 507 q 329 358 318 394 q 378 322 340 322 z "},"Ỏ":{"ha":756,"x_min":60,"x_max":696,"o":"m 389 -31 q 125 137 190 -31 q 60 496 60 304 q 110 792 60 681 q 234 947 161 903 q 379 992 307 992 q 588 912 518 992 q 676 723 657 832 q 696 476 696 614 q 663 248 696 365 q 560 50 629 131 q 389 -31 490 -31 m 378 322 q 433 364 415 322 q 451 464 451 406 q 434 561 451 519 q 388 603 417 603 q 335 555 353 603 q 318 451 318 507 q 329 358 318 394 q 378 322 340 322 m 383 1011 q 366 1025 375 1011 q 357 1046 357 1039 q 365 1064 357 1057 q 389 1079 374 1071 q 424 1102 413 1090 q 436 1138 436 1114 q 425 1169 436 1157 q 393 1182 414 1182 q 356 1169 374 1182 q 335 1156 339 1156 q 299 1182 325 1156 q 291 1190 299 1182 q 289 1204 283 1197 q 328 1238 306 1222 q 367 1256 344 1249 q 408 1264 390 1264 q 459 1253 435 1264 q 499 1222 483 1243 q 519 1136 519 1194 q 478 1047 519 1082 q 383 1011 438 1011 z "},"Ơ":{"ha":756,"x_min":60,"x_max":781,"o":"m 768 1149 q 781 1129 781 1146 q 731 951 781 1014 q 688 919 715 932 q 628 907 661 907 q 594 903 611 907 q 676 723 657 832 q 696 476 696 614 q 663 248 696 365 q 560 50 629 131 q 389 -31 490 -31 q 125 137 190 -31 q 60 496 60 304 q 110 792 60 681 q 234 947 161 903 q 379 992 307 992 q 524 960 464 992 l 556 960 q 658 1011 632 960 q 683 1118 683 1058 q 694 1142 683 1136 q 715 1149 704 1149 q 743 1149 729 1149 q 768 1149 757 1150 m 378 322 q 433 364 415 322 q 451 464 451 406 q 434 561 451 519 q 388 603 417 603 q 335 555 353 603 q 318 451 318 507 q 329 358 318 394 q 378 322 340 322 z "},"Ớ":{"ha":756,"x_min":60,"x_max":781,"o":"m 768 1149 q 781 1129 781 1146 q 731 951 781 1014 q 688 919 715 932 q 628 907 661 907 q 594 903 611 907 q 676 723 657 832 q 696 476 696 614 q 663 248 696 365 q 560 50 629 131 q 389 -31 490 -31 q 125 137 190 -31 q 60 496 60 304 q 110 792 60 681 q 234 947 161 903 q 379 992 307 992 q 524 960 464 992 l 556 960 q 658 1011 632 960 q 683 1118 683 1058 q 694 1142 683 1136 q 715 1149 704 1149 q 743 1149 729 1149 q 768 1149 757 1150 m 378 322 q 433 364 415 322 q 451 464 451 406 q 434 561 451 519 q 388 603 417 603 q 335 555 353 603 q 318 451 318 507 q 329 358 318 394 q 378 322 340 322 z "},"Ợ":{"ha":756,"x_min":60,"x_max":781,"o":"m 768 1149 q 781 1129 781 1146 q 731 951 781 1014 q 688 919 715 932 q 628 907 661 907 q 594 903 611 907 q 676 723 657 832 q 696 476 696 614 q 663 248 696 365 q 560 50 629 131 q 389 -31 490 -31 q 125 137 190 -31 q 60 496 60 304 q 110 792 60 681 q 234 947 161 903 q 379 992 307 992 q 524 960 464 992 l 556 960 q 658 1011 632 960 q 683 1118 683 1058 q 694 1142 683 1136 q 715 1149 704 1149 q 743 1149 729 1149 q 768 1149 757 1150 m 378 322 q 433 364 415 322 q 451 464 451 406 q 434 561 451 519 q 388 603 417 603 q 335 555 353 603 q 318 451 318 507 q 329 358 318 394 q 378 322 340 322 m 381 -225 q 322 -201 349 -225 q 296 -140 296 -176 q 319 -84 296 -110 q 375 -58 343 -58 q 442 -78 413 -58 q 472 -133 472 -99 q 442 -200 472 -175 q 381 -225 413 -225 z "},"Ờ":{"ha":756,"x_min":60,"x_max":781,"o":"m 768 1149 q 781 1129 781 1146 q 731 951 781 1014 q 688 919 715 932 q 628 907 661 907 q 594 903 611 907 q 676 723 657 832 q 696 476 696 614 q 663 248 696 365 q 560 50 629 131 q 389 -31 490 -31 q 125 137 190 -31 q 60 496 60 304 q 110 792 60 681 q 234 947 161 903 q 379 992 307 992 q 524 960 464 992 l 556 960 q 658 1011 632 960 q 683 1118 683 1058 q 694 1142 683 1136 q 715 1149 704 1149 q 743 1149 729 1149 q 768 1149 757 1150 m 378 322 q 433 364 415 322 q 451 464 451 406 q 434 561 451 519 q 388 603 417 603 q 335 555 353 603 q 318 451 318 507 q 329 358 318 394 q 378 322 340 322 z "},"Ở":{"ha":756,"x_min":60,"x_max":781,"o":"m 768 1149 q 781 1129 781 1146 q 731 951 781 1014 q 688 919 715 932 q 628 907 661 907 q 594 903 611 907 q 676 723 657 832 q 696 476 696 614 q 663 248 696 365 q 560 50 629 131 q 389 -31 490 -31 q 125 137 190 -31 q 60 496 60 304 q 110 792 60 681 q 234 947 161 903 q 379 992 307 992 q 524 960 464 992 l 556 960 q 658 1011 632 960 q 683 1118 683 1058 q 694 1142 683 1136 q 715 1149 704 1149 q 743 1149 729 1149 q 768 1149 757 1150 m 378 322 q 433 364 415 322 q 451 464 451 406 q 434 561 451 519 q 388 603 417 603 q 335 555 353 603 q 318 451 318 507 q 329 358 318 394 q 378 322 340 322 m 383 1011 q 366 1025 375 1011 q 357 1046 357 1039 q 365 1064 357 1057 q 389 1079 374 1071 q 424 1102 413 1090 q 436 1138 436 1114 q 425 1169 436 1157 q 393 1182 414 1182 q 356 1169 374 1182 q 335 1156 339 1156 q 299 1182 325 1156 q 291 1190 299 1182 q 289 1204 283 1197 q 328 1238 306 1222 q 367 1256 344 1249 q 408 1264 390 1264 q 459 1253 435 1264 q 499 1222 483 1243 q 519 1136 519 1194 q 478 1047 519 1082 q 383 1011 438 1011 z "},"Ỡ":{"ha":756,"x_min":60,"x_max":781,"o":"m 768 1149 q 781 1129 781 1146 q 731 951 781 1014 q 688 919 715 932 q 628 907 661 907 q 594 903 611 907 q 676 723 657 832 q 696 476 696 614 q 663 248 696 365 q 560 50 629 131 q 389 -31 490 -31 q 125 137 190 -31 q 60 496 60 304 q 110 792 60 681 q 234 947 161 903 q 379 992 307 992 q 524 960 464 992 l 556 960 q 658 1011 632 960 q 683 1118 683 1058 q 694 1142 683 1136 q 715 1149 704 1149 q 743 1149 729 1149 q 768 1149 757 1150 m 378 322 q 433 364 415 322 q 451 464 451 406 q 434 561 451 519 q 388 603 417 603 q 335 555 353 603 q 318 451 318 507 q 329 358 318 394 q 378 322 340 322 z "},"Ő":{"ha":756,"x_min":60,"x_max":713,"o":"m 389 -31 q 125 137 190 -31 q 60 496 60 304 q 110 792 60 681 q 234 947 161 903 q 379 992 307 992 q 588 912 518 992 q 676 723 657 832 q 696 476 696 614 q 663 248 696 365 q 560 50 629 131 q 389 -31 490 -31 m 378 322 q 433 364 415 322 q 451 464 451 406 q 434 561 451 519 q 388 603 417 603 q 335 555 353 603 q 318 451 318 507 q 329 358 318 394 q 378 322 340 322 z "},"Ȏ":{"ha":756,"x_min":60,"x_max":696,"o":"m 389 -31 q 125 137 190 -31 q 60 496 60 304 q 110 792 60 681 q 234 947 161 903 q 379 992 307 992 q 588 912 518 992 q 676 723 657 832 q 696 476 696 614 q 663 248 696 365 q 560 50 629 131 q 389 -31 490 -31 m 378 322 q 433 364 415 322 q 451 464 451 406 q 434 561 451 519 q 388 603 417 603 q 335 555 353 603 q 318 451 318 507 q 329 358 318 394 q 378 322 340 322 m 542 1014 q 510 1016 515 1014 q 501 1028 504 1018 q 464 1082 493 1064 q 397 1100 435 1100 q 345 1081 369 1100 q 313 1039 321 1061 q 301 1019 307 1024 q 279 1015 296 1014 q 234 1021 244 1018 q 224 1032 224 1024 q 231 1074 224 1047 q 253 1117 239 1100 q 320 1172 286 1160 q 406 1183 354 1183 q 501 1167 463 1183 q 561 1110 539 1151 q 578 1069 575 1086 q 582 1031 582 1051 q 574 1017 582 1021 q 542 1014 567 1014 z "},"Ō":{"ha":756,"x_min":60,"x_max":696,"o":"m 389 -31 q 125 137 190 -31 q 60 496 60 304 q 110 792 60 681 q 234 947 161 903 q 379 992 307 992 q 588 912 518 992 q 676 723 657 832 q 696 476 696 614 q 663 248 696 365 q 560 50 629 131 q 389 -31 490 -31 m 378 322 q 433 364 415 322 q 451 464 451 406 q 434 561 451 519 q 388 603 417 603 q 335 555 353 603 q 318 451 318 507 q 329 358 318 394 q 378 322 340 322 z "},"Ǫ":{"ha":756,"x_min":60,"x_max":696,"o":"m 433 -26 q 379 -69 396 -51 q 363 -106 363 -87 q 375 -133 363 -117 q 401 -149 388 -149 q 454 -140 440 -149 q 472 -131 468 -131 q 489 -144 478 -131 q 500 -165 500 -158 q 460 -213 500 -192 q 378 -237 419 -235 q 299 -219 338 -237 q 275 -191 283 -212 q 267 -137 267 -169 q 279 -92 267 -112 q 318 -42 292 -71 q 336 -26 319 -40 q 115 161 169 1 q 60 496 60 321 q 110 792 60 681 q 234 947 161 903 q 379 992 307 992 q 588 912 518 992 q 676 723 657 832 q 696 476 696 614 q 667 265 696 374 q 580 74 639 156 q 433 -26 521 -8 m 388 603 q 335 555 353 603 q 318 451 318 507 q 329 358 318 394 q 378 322 340 322 q 433 364 415 322 q 451 464 451 406 q 434 561 451 519 q 388 603 417 603 z "},"Ø":{"ha":799,"x_min":63,"x_max":746,"o":"m 117 -54 q 82 -49 99 -54 q 63 -36 63 -44 q 68 -19 63 -33 q 78 -7 75 -12 q 97 21 82 -1 l 158 124 q 83 496 83 260 q 134 792 83 681 q 258 947 185 903 q 403 992 331 992 q 610 914 532 992 l 611 917 q 643 965 625 943 q 674 990 661 986 q 736 985 721 990 q 735 953 746 982 q 707 896 725 924 l 667 829 q 709 670 699 758 q 719 476 719 582 q 686 248 719 365 q 583 50 653 131 q 413 -31 514 -31 q 215 46 292 -31 l 193 1 q 178 -26 186 -18 q 163 -37 171 -33 q 153 -43 156 -42 q 117 -54 140 -54 m 278 339 l 310 394 q 504 722 490 701 l 507 726 q 415 792 468 792 q 322 735 358 792 q 268 597 285 679 q 251 436 251 514 q 258 301 251 357 l 278 339 m 392 133 q 522 231 481 133 q 564 465 564 328 q 546 624 564 553 q 371 314 400 357 l 296 186 q 392 133 331 133 z "},"Ǿ":{"ha":799,"x_min":63,"x_max":746,"o":"m 117 -54 q 82 -49 99 -54 q 63 -36 63 -44 q 68 -19 63 -33 q 78 -7 75 -12 q 97 21 82 -1 l 158 124 q 83 496 83 260 q 134 792 83 681 q 258 947 185 903 q 403 992 331 992 q 610 914 532 992 l 611 917 q 643 965 625 943 q 674 990 661 986 q 736 985 721 990 q 735 953 746 982 q 707 896 725 924 l 667 829 q 709 670 699 758 q 719 476 719 582 q 686 248 719 365 q 583 50 653 131 q 413 -31 514 -31 q 215 46 292 -31 l 193 1 q 178 -26 186 -18 q 163 -37 171 -33 q 153 -43 156 -42 q 117 -54 140 -54 m 278 339 l 310 394 q 504 722 490 701 l 507 726 q 415 792 468 792 q 322 735 358 792 q 268 597 285 679 q 251 436 251 514 q 258 301 251 357 l 278 339 m 392 133 q 522 231 481 133 q 564 465 564 328 q 546 624 564 553 q 371 314 400 357 l 296 186 q 392 133 331 133 z "},"Õ":{"ha":756,"x_min":60,"x_max":696,"o":"m 389 -31 q 125 137 190 -31 q 60 496 60 304 q 110 792 60 681 q 234 947 161 903 q 379 992 307 992 q 588 912 518 992 q 676 723 657 832 q 696 476 696 614 q 663 248 696 365 q 560 50 629 131 q 389 -31 490 -31 m 378 322 q 433 364 415 322 q 451 464 451 406 q 434 561 451 519 q 388 603 417 603 q 335 555 353 603 q 318 451 318 507 q 329 358 318 394 q 378 322 340 322 z "},"Ȭ":{"ha":756,"x_min":60,"x_max":696,"o":"m 389 -31 q 125 137 190 -31 q 60 496 60 304 q 110 792 60 681 q 234 947 161 903 q 379 992 307 992 q 588 912 518 992 q 676 723 657 832 q 696 476 696 614 q 663 248 696 365 q 560 50 629 131 q 389 -31 490 -31 m 378 322 q 433 364 415 322 q 451 464 451 406 q 434 561 451 519 q 388 603 417 603 q 335 555 353 603 q 318 451 318 507 q 329 358 318 394 q 378 322 340 322 z "},"Œ":{"ha":1251,"x_min":76,"x_max":1181,"o":"m 393 -31 q 185 49 254 -31 q 96 238 115 129 q 76 485 76 347 q 110 713 76 596 q 213 911 143 831 q 383 992 282 992 q 537 950 472 992 q 639 839 601 908 l 642 942 q 649 966 642 960 q 668 972 656 972 l 689 971 q 729 969 701 971 q 797 967 757 967 q 925 975 839 967 l 992 979 q 1096 975 1047 979 l 1146 974 q 1169 965 1164 974 q 1175 935 1175 957 q 1178 896 1175 924 q 1181 842 1181 865 l 1181 832 q 1176 792 1181 815 q 1157 771 1175 771 q 1142 774 1151 771 q 1126 778 1132 776 q 1006 782 1106 782 l 957 783 q 911 785 942 785 q 876 783 889 785 q 803 781 835 781 l 729 782 q 718 778 721 782 q 715 763 715 774 l 714 686 q 711 607 711 636 l 711 521 l 713 494 q 750 493 724 493 q 847 492 774 492 q 928 494 872 492 l 981 497 q 1019 495 1000 497 q 1049 493 1039 493 q 1067 476 1067 493 q 1065 460 1067 471 q 1064 433 1064 450 q 1065 383 1064 396 l 1065 346 q 1063 328 1065 333 q 1053 324 1060 324 q 1041 326 1049 324 q 1028 328 1033 328 q 989 329 1004 328 q 903 331 975 331 q 794 325 840 331 q 739 319 749 319 q 721 321 724 319 q 713 322 714 321 l 713 183 q 728 185 722 183 l 767 186 l 931 188 l 1006 186 q 1035 185 1014 185 l 1150 186 q 1172 178 1167 186 q 1178 157 1178 171 l 1176 129 l 1175 32 q 1165 5 1175 10 q 1138 1 1156 0 q 1108 1 1119 1 q 1011 3 1049 1 l 878 4 q 711 0 861 4 l 658 -1 l 650 -3 q 640 2 642 -3 q 639 21 639 7 q 638 72 638 36 q 635 117 638 78 q 599 67 619 90 q 499 -7 553 17 q 393 -31 444 -31 m 413 322 q 470 367 449 322 q 492 469 492 411 q 469 576 492 532 q 401 621 447 621 q 341 582 356 621 q 326 485 326 543 q 348 373 326 424 q 413 322 369 322 z "},"P":{"ha":722,"x_min":86,"x_max":715,"o":"m 122 4 q 93 13 100 1 q 86 50 86 25 q 88 106 86 81 l 89 222 l 92 386 q 100 846 100 681 q 99 906 100 896 q 96 942 96 936 q 111 978 96 978 q 140 976 118 978 q 200 975 161 975 q 257 976 211 975 q 353 978 303 978 q 493 974 426 978 q 652 896 589 968 q 715 679 715 824 q 675 529 715 585 q 582 452 635 474 q 489 431 529 431 q 363 422 451 431 q 279 415 311 417 q 276 242 276 288 q 281 46 276 61 q 276 22 283 32 q 256 8 268 11 q 235 8 244 4 q 211 10 231 10 q 122 4 169 10 m 450 531 q 546 561 501 531 q 590 671 590 592 q 556 799 590 756 q 454 856 521 843 q 290 872 350 876 q 289 814 290 833 q 282 703 286 736 q 279 593 276 654 l 282 539 l 347 535 q 450 531 385 531 z "},"Þ":{"ha":721,"x_min":89,"x_max":718,"o":"m 114 3 q 99 38 99 3 q 101 75 99 44 q 103 135 103 85 q 94 594 103 300 l 92 758 l 90 875 q 89 931 89 900 q 96 967 89 956 q 125 976 103 979 q 214 971 172 971 q 238 972 233 971 q 259 973 247 976 q 278 959 271 969 q 283 935 286 949 q 279 881 279 922 q 282 782 279 826 q 365 775 314 781 q 492 767 454 767 q 585 745 532 767 q 678 668 638 724 q 718 518 718 613 q 655 301 718 374 q 496 224 592 229 q 361 221 454 221 l 275 221 l 274 144 l 275 68 q 276 38 276 56 q 267 6 276 7 l 203 6 q 144 4 167 6 q 114 3 122 3 m 293 325 q 457 342 353 321 q 558 398 524 354 q 593 526 593 442 q 549 636 593 606 q 453 667 504 667 q 350 663 388 667 l 285 658 l 282 604 q 285 494 279 543 q 292 383 289 461 q 293 325 293 364 z "},"Q":{"ha":929,"x_min":58,"x_max":874,"o":"m 482 -1 q 251 62 339 -1 q 115 225 163 125 q 58 453 69 321 q 118 776 58 657 q 265 940 178 894 q 449 986 353 986 q 687 916 599 986 q 810 749 775 846 q 844 564 844 653 q 824 356 844 469 q 750 154 804 242 q 854 36 832 54 q 874 10 874 18 q 863 3 874 3 q 843 3 854 4 q 821 3 832 3 q 778 1 807 1 q 742 9 754 1 q 717 39 731 17 q 689 78 713 47 q 482 -1 607 -1 m 468 74 q 639 146 567 74 l 536 283 q 517 313 521 304 q 521 321 514 321 q 599 328 532 321 q 628 322 619 331 q 643 298 638 313 q 653 275 649 283 q 696 219 657 267 q 751 354 732 281 q 769 494 769 428 q 701 785 769 663 q 447 908 632 908 q 319 865 396 908 q 183 730 242 821 q 124 504 124 639 q 215 181 124 289 q 468 74 306 74 z "},"R":{"ha":732,"x_min":85,"x_max":728,"o":"m 125 -22 q 101 -15 107 -22 q 94 8 94 -8 l 96 40 l 93 121 q 85 372 85 265 q 89 449 85 428 q 96 644 96 483 q 90 899 96 813 q 89 929 89 910 q 93 961 89 951 q 102 972 97 971 q 119 972 107 972 l 150 975 q 303 986 246 986 q 537 906 458 986 q 615 699 615 826 q 550 504 615 597 q 486 432 522 464 l 583 256 q 708 39 690 64 q 728 -1 728 8 q 721 -8 728 -7 q 709 -10 714 -10 q 701 -10 704 -10 l 544 -14 q 527 -4 533 -14 q 510 31 521 6 q 485 86 503 51 q 389 274 457 136 l 318 411 l 322 338 l 329 232 q 343 26 338 46 q 344 13 344 21 q 318 -12 344 -12 q 304 -11 310 -12 q 196 -17 282 -8 q 125 -22 138 -22 m 310 596 q 347 604 331 596 q 386 678 386 622 q 374 738 386 718 q 342 757 361 757 q 315 746 326 757 q 315 726 314 744 q 317 690 317 708 q 315 668 317 675 q 310 619 310 644 l 308 607 l 310 596 z "},"Ŕ":{"ha":732,"x_min":85,"x_max":728,"o":"m 125 -22 q 101 -15 107 -22 q 94 8 94 -8 l 96 40 l 93 121 q 85 372 85 265 q 89 449 85 428 q 96 644 96 483 q 90 899 96 813 q 89 929 89 910 q 93 961 89 951 q 102 972 97 971 q 119 972 107 972 l 150 975 q 303 986 246 986 q 537 906 458 986 q 615 699 615 826 q 550 504 615 597 q 486 432 522 464 l 583 256 q 708 39 690 64 q 728 -1 728 8 q 721 -8 728 -7 q 709 -10 714 -10 q 701 -10 704 -10 l 544 -14 q 527 -4 533 -14 q 510 31 521 6 q 485 86 503 51 q 389 274 457 136 l 318 411 l 322 338 l 329 232 q 343 26 338 46 q 344 13 344 21 q 318 -12 344 -12 q 304 -11 310 -12 q 196 -17 282 -8 q 125 -22 138 -22 m 310 596 q 347 604 331 596 q 386 678 386 622 q 374 738 386 718 q 342 757 361 757 q 315 746 326 757 q 315 726 314 744 q 317 690 317 708 q 315 668 317 675 q 310 619 310 644 l 308 607 l 310 596 z "},"Ř":{"ha":732,"x_min":85,"x_max":728,"o":"m 125 -22 q 101 -15 107 -22 q 94 8 94 -8 l 96 40 l 93 121 q 85 372 85 265 q 89 449 85 428 q 96 644 96 483 q 90 899 96 813 q 89 929 89 910 q 93 961 89 951 q 102 972 97 971 q 119 972 107 972 l 150 975 q 303 986 246 986 q 537 906 458 986 q 615 699 615 826 q 550 504 615 597 q 486 432 522 464 l 583 256 q 708 39 690 64 q 728 -1 728 8 q 721 -8 728 -7 q 709 -10 714 -10 q 701 -10 704 -10 l 544 -14 q 527 -4 533 -14 q 510 31 521 6 q 485 86 503 51 q 389 274 457 136 l 318 411 l 322 338 l 329 232 q 343 26 338 46 q 344 13 344 21 q 318 -12 344 -12 q 304 -11 310 -12 q 196 -17 282 -8 q 125 -22 138 -22 m 310 596 q 347 604 331 596 q 386 678 386 622 q 374 738 386 718 q 342 757 361 757 q 315 746 326 757 q 315 726 314 744 q 317 690 317 708 q 315 668 317 675 q 310 619 310 644 l 308 607 l 310 596 z "},"Ŗ":{"ha":732,"x_min":85,"x_max":728,"o":"m 125 -22 q 101 -15 107 -22 q 94 8 94 -8 l 96 40 l 93 121 q 85 372 85 265 q 89 449 85 428 q 96 644 96 483 q 90 899 96 813 q 89 929 89 910 q 93 961 89 951 q 102 972 97 971 q 119 972 107 972 l 150 975 q 303 986 246 986 q 537 906 458 986 q 615 699 615 826 q 550 504 615 597 q 486 432 522 464 l 583 256 q 708 39 690 64 q 728 -1 728 8 q 721 -8 728 -7 q 709 -10 714 -10 q 701 -10 704 -10 l 544 -14 q 527 -4 533 -14 q 510 31 521 6 q 485 86 503 51 q 389 274 457 136 l 318 411 l 322 338 l 329 232 q 343 26 338 46 q 344 13 344 21 q 318 -12 344 -12 q 304 -11 310 -12 q 196 -17 282 -8 q 125 -22 138 -22 m 310 596 q 347 604 331 596 q 386 678 386 622 q 374 738 386 718 q 342 757 361 757 q 315 746 326 757 q 315 726 314 744 q 317 690 317 708 q 315 668 317 675 q 310 619 310 644 l 308 607 l 310 596 m 346 -294 q 301 -293 308 -294 q 294 -290 296 -293 q 293 -284 293 -287 q 293 -279 293 -281 l 336 -143 l 347 -99 l 357 -71 q 378 -57 358 -57 l 456 -57 q 463 -68 469 -57 q 456 -92 461 -83 q 450 -110 454 -97 q 442 -133 446 -122 l 425 -186 q 406 -244 413 -226 q 399 -275 399 -269 q 388 -293 394 -287 q 346 -294 383 -294 z "},"Ȑ":{"ha":732,"x_min":29,"x_max":728,"o":"m 125 -22 q 101 -15 107 -22 q 94 8 94 -8 l 96 40 l 93 121 q 85 372 85 265 q 89 449 85 428 q 96 644 96 483 q 90 899 96 813 q 89 929 89 910 q 93 961 89 951 q 102 972 97 971 q 119 972 107 972 l 150 975 q 303 986 246 986 q 537 906 458 986 q 615 699 615 826 q 550 504 615 597 q 486 432 522 464 l 583 256 q 708 39 690 64 q 728 -1 728 8 q 721 -8 728 -7 q 709 -10 714 -10 q 701 -10 704 -10 l 544 -14 q 527 -4 533 -14 q 510 31 521 6 q 485 86 503 51 q 389 274 457 136 l 318 411 l 322 338 l 329 232 q 343 26 338 46 q 344 13 344 21 q 318 -12 344 -12 q 304 -11 310 -12 q 196 -17 282 -8 q 125 -22 138 -22 m 310 596 q 347 604 331 596 q 386 678 386 622 q 374 738 386 718 q 342 757 361 757 q 315 746 326 757 q 315 726 314 744 q 317 690 317 708 q 315 668 317 675 q 310 619 310 644 l 308 607 l 310 596 m 261 1021 q 237 1026 251 1021 q 217 1033 222 1032 q 144 1063 178 1051 q 99 1079 111 1075 q 31 1126 38 1101 q 29 1142 29 1132 q 54 1165 29 1165 l 82 1163 q 131 1153 113 1158 l 161 1142 q 215 1122 193 1128 q 246 1110 238 1115 q 288 1094 261 1106 q 315 1075 314 1082 q 318 1061 318 1064 q 290 1031 318 1040 q 261 1021 275 1021 m 536 1021 q 512 1026 526 1021 q 492 1033 497 1032 q 374 1079 436 1057 q 306 1126 313 1101 q 304 1142 304 1132 q 329 1165 304 1165 l 357 1163 q 406 1153 388 1158 l 436 1142 q 490 1122 468 1128 q 521 1110 513 1115 q 563 1094 536 1106 q 590 1075 589 1082 q 593 1061 593 1064 q 565 1031 593 1040 q 536 1021 550 1021 z "},"Ṛ":{"ha":732,"x_min":85,"x_max":728,"o":"m 125 -22 q 101 -15 107 -22 q 94 8 94 -8 l 96 40 l 93 121 q 85 372 85 265 q 89 449 85 428 q 96 644 96 483 q 90 899 96 813 q 89 929 89 910 q 93 961 89 951 q 102 972 97 971 q 119 972 107 972 l 150 975 q 303 986 246 986 q 537 906 458 986 q 615 699 615 826 q 550 504 615 597 q 486 432 522 464 l 583 256 q 708 39 690 64 q 728 -1 728 8 q 721 -8 728 -7 q 709 -10 714 -10 q 701 -10 704 -10 l 544 -14 q 527 -4 533 -14 q 510 31 521 6 q 485 86 503 51 q 389 274 457 136 l 318 411 l 322 338 l 329 232 q 343 26 338 46 q 344 13 344 21 q 318 -12 344 -12 q 304 -11 310 -12 q 196 -17 282 -8 q 125 -22 138 -22 m 310 596 q 347 604 331 596 q 386 678 386 622 q 374 738 386 718 q 342 757 361 757 q 315 746 326 757 q 315 726 314 744 q 317 690 317 708 q 315 668 317 675 q 310 619 310 644 l 308 607 l 310 596 m 403 -225 q 344 -201 371 -225 q 318 -140 318 -176 q 342 -84 318 -110 q 397 -58 365 -58 q 465 -78 435 -58 q 494 -133 494 -99 q 465 -200 494 -175 q 403 -225 435 -225 z "},"Ȓ":{"ha":732,"x_min":85,"x_max":728,"o":"m 125 -22 q 101 -15 107 -22 q 94 8 94 -8 l 96 40 l 93 121 q 85 372 85 265 q 89 449 85 428 q 96 644 96 483 q 90 899 96 813 q 89 929 89 910 q 93 961 89 951 q 102 972 97 971 q 119 972 107 972 l 150 975 q 303 986 246 986 q 537 906 458 986 q 615 699 615 826 q 550 504 615 597 q 486 432 522 464 l 583 256 q 708 39 690 64 q 728 -1 728 8 q 721 -8 728 -7 q 709 -10 714 -10 q 701 -10 704 -10 l 544 -14 q 527 -4 533 -14 q 510 31 521 6 q 485 86 503 51 q 389 274 457 136 l 318 411 l 322 338 l 329 232 q 343 26 338 46 q 344 13 344 21 q 318 -12 344 -12 q 304 -11 310 -12 q 196 -17 282 -8 q 125 -22 138 -22 m 310 596 q 347 604 331 596 q 386 678 386 622 q 374 738 386 718 q 342 757 361 757 q 315 746 326 757 q 315 726 314 744 q 317 690 317 708 q 315 668 317 675 q 310 619 310 644 l 308 607 l 310 596 m 492 1014 q 460 1016 465 1014 q 451 1028 454 1018 q 414 1082 443 1064 q 347 1100 385 1100 q 295 1081 319 1100 q 263 1039 271 1061 q 251 1019 257 1024 q 229 1015 246 1014 q 184 1021 194 1018 q 174 1032 174 1024 q 181 1074 174 1047 q 203 1117 189 1100 q 270 1172 236 1160 q 356 1183 304 1183 q 451 1167 413 1183 q 511 1110 489 1151 q 528 1069 525 1086 q 532 1031 532 1051 q 524 1017 532 1021 q 492 1014 517 1014 z "},"S":{"ha":800,"x_min":51,"x_max":744,"o":"m 368 -29 q 114 48 168 -29 q 57 128 60 125 q 51 142 51 135 q 63 160 51 146 q 115 219 81 185 q 126 225 121 225 q 142 215 133 225 q 156 199 150 204 q 342 117 238 117 q 433 137 394 117 q 472 213 472 157 q 321 417 472 308 q 274 444 296 433 q 174 507 215 476 q 100 588 132 538 q 68 704 68 638 q 120 854 68 788 q 245 958 172 921 q 372 996 318 996 q 590 944 504 996 q 722 844 675 892 q 728 832 728 839 q 724 822 728 828 q 719 813 721 815 q 697 778 713 803 q 671 743 681 754 q 662 731 667 738 q 653 722 657 725 q 643 719 650 719 q 630 728 640 719 q 610 744 619 738 q 501 828 554 793 q 400 863 449 863 q 336 845 361 863 q 311 767 311 828 q 356 674 311 707 q 474 610 400 640 q 555 575 481 607 q 687 453 629 543 q 744 238 744 363 q 644 38 744 104 q 368 -29 544 -29 z "},"Ś":{"ha":800,"x_min":51,"x_max":744,"o":"m 368 -29 q 114 48 168 -29 q 57 128 60 125 q 51 142 51 135 q 63 160 51 146 q 115 219 81 185 q 126 225 121 225 q 142 215 133 225 q 156 199 150 204 q 342 117 238 117 q 433 137 394 117 q 472 213 472 157 q 321 417 472 308 q 274 444 296 433 q 174 507 215 476 q 100 588 132 538 q 68 704 68 638 q 120 854 68 788 q 245 958 172 921 q 372 996 318 996 q 590 944 504 996 q 722 844 675 892 q 728 832 728 839 q 724 822 728 828 q 719 813 721 815 q 697 778 713 803 q 671 743 681 754 q 662 731 667 738 q 653 722 657 725 q 643 719 650 719 q 630 728 640 719 q 610 744 619 738 q 501 828 554 793 q 400 863 449 863 q 336 845 361 863 q 311 767 311 828 q 356 674 311 707 q 474 610 400 640 q 555 575 481 607 q 687 453 629 543 q 744 238 744 363 q 644 38 744 104 q 368 -29 544 -29 z "},"Š":{"ha":800,"x_min":51,"x_max":744,"o":"m 368 -29 q 114 48 168 -29 q 57 128 60 125 q 51 142 51 135 q 63 160 51 146 q 115 219 81 185 q 126 225 121 225 q 142 215 133 225 q 156 199 150 204 q 342 117 238 117 q 433 137 394 117 q 472 213 472 157 q 321 417 472 308 q 274 444 296 433 q 174 507 215 476 q 100 588 132 538 q 68 704 68 638 q 120 854 68 788 q 245 958 172 921 q 372 996 318 996 q 590 944 504 996 q 722 844 675 892 q 728 832 728 839 q 724 822 728 828 q 719 813 721 815 q 697 778 713 803 q 671 743 681 754 q 662 731 667 738 q 653 722 657 725 q 643 719 650 719 q 630 728 640 719 q 610 744 619 738 q 501 828 554 793 q 400 863 449 863 q 336 845 361 863 q 311 767 311 828 q 356 674 311 707 q 474 610 400 640 q 555 575 481 607 q 687 453 629 543 q 744 238 744 363 q 644 38 744 104 q 368 -29 544 -29 z "},"Ş":{"ha":800,"x_min":51,"x_max":747,"o":"m 403 -222 q 339 -215 368 -222 q 310 -196 310 -207 q 321 -128 310 -179 q 325 -122 321 -122 q 338 -128 328 -122 q 358 -140 349 -135 q 411 -149 386 -149 q 453 -141 443 -146 q 468 -112 463 -136 q 435 -67 468 -67 q 408 -76 422 -67 q 389 -86 393 -86 q 356 -84 364 -86 q 346 -75 347 -82 q 349 -46 346 -58 q 356 -25 353 -33 q 369 24 360 -3 q 113 97 167 24 q 57 172 60 169 q 51 186 51 179 q 56 195 51 190 q 63 203 60 200 q 115 260 74 218 q 125 264 119 264 q 140 255 132 264 q 156 240 149 246 q 228 188 182 214 q 343 163 274 163 q 474 253 474 163 q 428 356 474 307 q 322 446 383 406 q 271 475 308 454 q 171 535 211 507 q 99 609 131 563 q 68 719 68 656 q 121 860 68 797 q 247 960 174 924 q 374 996 319 996 q 640 926 560 996 q 725 853 721 856 q 731 842 731 847 q 722 822 731 836 q 699 790 715 814 q 674 756 683 767 q 665 745 668 750 q 657 737 661 740 q 646 733 653 733 q 611 758 640 733 q 502 837 556 804 q 401 869 449 869 q 338 853 363 869 q 313 778 313 836 q 338 710 313 739 q 393 667 363 682 q 475 629 424 651 q 597 572 544 601 q 698 468 649 542 q 747 276 747 394 q 665 100 747 163 q 435 26 582 38 q 401 -33 408 -11 q 427 -23 417 -25 q 468 -21 438 -21 q 554 -118 554 -21 q 542 -162 553 -147 q 511 -193 531 -176 q 490 -208 504 -200 q 459 -219 474 -215 q 403 -222 444 -222 z "},"Ŝ":{"ha":800,"x_min":51,"x_max":744,"o":"m 368 -29 q 114 48 168 -29 q 57 128 60 125 q 51 142 51 135 q 63 160 51 146 q 115 219 81 185 q 126 225 121 225 q 142 215 133 225 q 156 199 150 204 q 342 117 238 117 q 433 137 394 117 q 472 213 472 157 q 321 417 472 308 q 274 444 296 433 q 174 507 215 476 q 100 588 132 538 q 68 704 68 638 q 120 854 68 788 q 245 958 172 921 q 372 996 318 996 q 590 944 504 996 q 722 844 675 892 q 728 832 728 839 q 724 822 728 828 q 719 813 721 815 q 697 778 713 803 q 671 743 681 754 q 662 731 667 738 q 653 722 657 725 q 643 719 650 719 q 630 728 640 719 q 610 744 619 738 q 501 828 554 793 q 400 863 449 863 q 336 845 361 863 q 311 767 311 828 q 356 674 311 707 q 474 610 400 640 q 555 575 481 607 q 687 453 629 543 q 744 238 744 363 q 644 38 744 104 q 368 -29 544 -29 z "},"Ș":{"ha":800,"x_min":51,"x_max":744,"o":"m 368 -29 q 114 48 168 -29 q 57 128 60 125 q 51 142 51 135 q 63 160 51 146 q 115 219 81 185 q 126 225 121 225 q 142 215 133 225 q 156 199 150 204 q 342 117 238 117 q 433 137 394 117 q 472 213 472 157 q 321 417 472 308 q 274 444 296 433 q 174 507 215 476 q 100 588 132 538 q 68 704 68 638 q 120 854 68 788 q 245 958 172 921 q 372 996 318 996 q 590 944 504 996 q 722 844 675 892 q 728 832 728 839 q 724 822 728 828 q 719 813 721 815 q 697 778 713 803 q 671 743 681 754 q 662 731 667 738 q 653 722 657 725 q 643 719 650 719 q 630 728 640 719 q 610 744 619 738 q 501 828 554 793 q 400 863 449 863 q 336 845 361 863 q 311 767 311 828 q 356 674 311 707 q 474 610 400 640 q 555 575 481 607 q 687 453 629 543 q 744 238 744 363 q 644 38 744 104 q 368 -29 544 -29 m 357 -294 q 313 -293 319 -294 q 306 -290 307 -293 q 304 -284 304 -287 q 304 -279 304 -281 l 347 -143 l 358 -99 l 368 -71 q 389 -57 369 -57 l 467 -57 q 474 -68 481 -57 q 467 -92 472 -83 q 461 -110 465 -97 q 453 -133 457 -122 l 436 -186 q 417 -244 424 -226 q 410 -275 410 -269 q 399 -293 406 -287 q 357 -294 394 -294 z "},"Ṣ":{"ha":800,"x_min":51,"x_max":744,"o":"m 368 -29 q 114 48 168 -29 q 57 128 60 125 q 51 142 51 135 q 63 160 51 146 q 115 219 81 185 q 126 225 121 225 q 142 215 133 225 q 156 199 150 204 q 342 117 238 117 q 433 137 394 117 q 472 213 472 157 q 321 417 472 308 q 274 444 296 433 q 174 507 215 476 q 100 588 132 538 q 68 704 68 638 q 120 854 68 788 q 245 958 172 921 q 372 996 318 996 q 590 944 504 996 q 722 844 675 892 q 728 832 728 839 q 724 822 728 828 q 719 813 721 815 q 697 778 713 803 q 671 743 681 754 q 662 731 667 738 q 653 722 657 725 q 643 719 650 719 q 630 728 640 719 q 610 744 619 738 q 501 828 554 793 q 400 863 449 863 q 336 845 361 863 q 311 767 311 828 q 356 674 311 707 q 474 610 400 640 q 555 575 481 607 q 687 453 629 543 q 744 238 744 363 q 644 38 744 104 q 368 -29 544 -29 m 414 -225 q 356 -201 382 -225 q 329 -140 329 -176 q 353 -84 329 -110 q 408 -58 376 -58 q 476 -78 446 -58 q 506 -133 506 -99 q 476 -200 506 -175 q 414 -225 446 -225 z "},"ẞ":{"ha":824,"x_min":86,"x_max":790,"o":"m 557 -12 q 489 6 522 -12 q 431 45 456 24 q 406 74 407 67 q 401 96 394 85 q 406 118 403 103 q 413 138 410 133 q 424 154 419 154 l 426 154 q 433 149 429 154 q 444 135 438 143 q 490 98 456 118 q 549 78 524 78 q 631 99 593 78 q 674 135 661 115 q 688 203 688 156 q 660 272 688 242 q 575 343 632 301 q 542 367 564 350 q 446 465 476 419 q 414 524 424 501 q 401 625 401 551 q 440 688 410 642 l 475 739 q 538 818 490 763 q 481 869 513 854 q 392 883 449 883 q 294 846 326 883 q 264 754 267 811 l 264 660 l 263 589 l 260 475 q 261 422 260 439 l 263 335 l 261 267 q 258 199 258 222 l 260 35 q 252 10 260 17 q 228 3 244 3 q 196 6 221 3 q 159 6 176 7 q 129 6 142 6 q 96 10 101 6 q 90 22 90 14 q 90 33 90 31 l 89 107 q 88 140 89 126 l 86 235 q 88 277 86 256 q 90 308 90 299 q 94 381 94 340 l 93 539 l 94 631 q 97 728 97 694 q 96 796 97 783 l 94 818 l 96 844 q 128 913 97 876 q 221 975 160 949 q 351 1000 306 1000 q 538 981 460 1000 q 615 937 582 969 q 686 838 649 904 q 631 754 672 793 q 578 697 600 724 q 536 641 557 669 q 508 601 515 613 q 574 543 532 578 q 647 472 592 528 q 701 421 685 435 q 749 371 731 397 q 781 310 771 339 q 790 232 790 282 q 718 39 790 90 q 557 -12 646 -12 z "},"Ə":{"ha":751,"x_min":49,"x_max":692,"o":"m 349 -44 q 199 -12 271 -44 q 92 125 126 19 q 56 492 56 236 q 315 525 53 528 l 371 525 q 546 519 474 525 q 542 615 549 576 q 527 689 539 658 q 492 744 515 719 q 432 800 468 772 q 317 829 397 829 q 190 815 238 829 q 118 783 143 803 q 64 833 96 764 q 49 892 49 871 q 64 929 49 917 q 173 977 96 958 q 340 996 250 996 q 455 976 396 996 q 544 925 514 956 q 607 853 581 892 q 639 807 633 815 q 682 639 671 738 q 692 500 692 560 q 686 424 692 467 q 667 300 676 351 q 629 167 653 225 q 569 63 608 115 q 481 -17 531 10 q 349 -44 432 -44 m 338 89 q 435 105 403 92 q 483 140 468 118 q 521 208 499 161 q 546 326 546 268 l 544 368 q 403 371 496 371 q 192 363 293 371 q 204 239 192 310 q 240 139 217 169 q 338 89 283 89 z "},"T":{"ha":735,"x_min":19,"x_max":718,"o":"m 310 0 q 290 6 293 0 q 288 26 288 11 q 288 47 288 40 l 293 219 q 301 508 301 444 q 299 617 301 544 l 297 690 q 94 688 197 690 l 51 686 q 26 696 33 686 q 24 718 19 706 l 25 753 q 28 901 28 833 q 26 942 28 935 l 26 951 q 33 969 26 967 q 51 972 39 972 l 189 972 l 267 974 q 368 976 339 976 l 451 975 q 608 972 551 972 q 663 974 650 972 q 706 965 693 975 q 718 942 718 954 q 716 906 718 935 q 714 833 714 876 q 718 728 714 794 q 669 690 718 690 l 425 690 l 422 547 q 421 429 421 524 q 422 240 421 332 q 424 82 424 149 l 425 25 l 425 18 q 422 3 425 6 q 413 0 418 0 q 404 0 407 0 l 310 0 z "},"Ŧ":{"ha":753,"x_min":19,"x_max":718,"o":"m 663 974 q 706 965 693 975 q 718 942 718 954 q 716 906 718 935 q 714 833 714 876 q 718 728 714 794 q 669 690 718 690 l 425 690 l 422 547 q 421 524 422 533 l 607 524 q 619 519 617 524 q 620 508 621 514 q 619 500 619 503 l 619 436 q 604 425 619 425 l 583 426 q 539 424 574 426 q 482 422 504 422 l 421 419 q 422 234 421 324 q 424 81 424 144 l 425 25 l 425 18 q 422 3 425 6 q 413 0 418 0 q 404 0 407 0 l 310 0 q 290 6 293 0 q 288 26 288 11 q 288 47 288 40 l 293 233 l 300 418 l 288 418 q 242 415 275 415 q 185 417 207 415 q 151 418 163 418 q 129 421 133 418 q 126 430 125 424 q 126 440 126 436 l 124 469 q 121 514 118 508 q 136 522 121 522 q 157 519 140 522 l 264 519 l 301 521 q 299 625 301 558 l 297 690 q 94 688 197 690 l 51 686 q 26 696 33 686 q 24 718 19 706 l 25 753 q 28 901 28 833 q 26 942 28 935 l 26 951 q 33 969 26 967 q 51 972 39 972 l 189 972 l 267 974 q 368 976 339 976 l 451 975 q 608 972 551 972 q 663 974 650 972 z "},"Ť":{"ha":735,"x_min":19,"x_max":718,"o":"m 310 0 q 290 6 293 0 q 288 26 288 11 q 288 47 288 40 l 293 219 q 301 508 301 444 q 299 617 301 544 l 297 690 q 94 688 197 690 l 51 686 q 26 696 33 686 q 24 718 19 706 l 25 753 q 28 901 28 833 q 26 942 28 935 l 26 951 q 33 969 26 967 q 51 972 39 972 l 189 972 l 267 974 q 368 976 339 976 l 451 975 q 608 972 551 972 q 663 974 650 972 q 706 965 693 975 q 718 942 718 954 q 716 906 718 935 q 714 833 714 876 q 718 728 714 794 q 669 690 718 690 l 425 690 l 422 547 q 421 429 421 524 q 422 240 421 332 q 424 82 424 149 l 425 25 l 425 18 q 422 3 425 6 q 413 0 418 0 q 404 0 407 0 l 310 0 z "},"Ţ":{"ha":753,"x_min":28,"x_max":726,"o":"m 342 -222 q 278 -215 307 -222 q 249 -196 249 -207 q 260 -128 249 -179 q 264 -122 260 -122 q 277 -128 267 -122 q 297 -140 288 -135 q 350 -149 325 -149 q 392 -141 382 -146 q 407 -112 401 -136 q 374 -67 407 -67 q 347 -76 361 -67 q 328 -86 332 -86 q 294 -84 303 -86 q 285 -75 286 -82 q 288 -46 285 -58 q 294 -25 292 -33 q 313 36 299 0 q 298 43 300 38 q 296 62 296 49 q 296 83 296 75 l 303 283 q 310 508 310 454 q 307 617 310 544 l 306 690 q 103 688 206 690 l 60 686 q 35 696 42 686 q 32 718 28 706 l 33 753 q 36 901 36 833 q 35 942 36 935 l 35 951 q 41 969 35 967 q 60 972 47 972 l 197 972 l 275 974 q 376 976 347 976 l 460 975 q 617 972 560 972 q 671 974 658 972 q 714 965 701 975 q 726 942 726 954 q 724 906 726 935 q 722 833 722 876 q 726 728 722 794 q 678 690 726 690 l 433 690 l 431 547 q 429 476 429 533 l 431 278 q 432 120 431 172 q 433 61 433 68 l 433 54 q 430 39 433 42 q 421 36 426 36 q 413 36 415 36 l 381 36 q 356 -1 365 15 q 340 -33 346 -18 q 366 -23 356 -25 q 407 -21 376 -21 q 493 -118 493 -21 q 481 -162 492 -147 q 450 -193 469 -176 q 429 -208 443 -200 q 398 -219 413 -215 q 342 -222 383 -222 z "},"Ț":{"ha":735,"x_min":19,"x_max":718,"o":"m 310 0 q 290 6 293 0 q 288 26 288 11 q 288 47 288 40 l 293 219 q 301 508 301 444 q 299 617 301 544 l 297 690 q 94 688 197 690 l 51 686 q 26 696 33 686 q 24 718 19 706 l 25 753 q 28 901 28 833 q 26 942 28 935 l 26 951 q 33 969 26 967 q 51 972 39 972 l 189 972 l 267 974 q 368 976 339 976 l 451 975 q 608 972 551 972 q 663 974 650 972 q 706 965 693 975 q 718 942 718 954 q 716 906 718 935 q 714 833 714 876 q 718 728 714 794 q 669 690 718 690 l 425 690 l 422 547 q 421 429 421 524 q 422 240 421 332 q 424 82 424 149 l 425 25 l 425 18 q 422 3 425 6 q 413 0 418 0 q 404 0 407 0 l 310 0 m 299 -294 q 254 -293 261 -294 q 247 -290 249 -293 q 246 -284 246 -287 q 246 -279 246 -281 l 289 -143 l 300 -99 l 310 -71 q 331 -57 311 -57 l 408 -57 q 415 -68 422 -57 q 408 -92 414 -83 q 403 -110 407 -97 q 394 -133 399 -122 l 378 -186 q 358 -244 365 -226 q 351 -275 351 -269 q 340 -293 347 -287 q 299 -294 336 -294 z "},"Ṭ":{"ha":735,"x_min":19,"x_max":718,"o":"m 310 0 q 290 6 293 0 q 288 26 288 11 q 288 47 288 40 l 293 219 q 301 508 301 444 q 299 617 301 544 l 297 690 q 94 688 197 690 l 51 686 q 26 696 33 686 q 24 718 19 706 l 25 753 q 28 901 28 833 q 26 942 28 935 l 26 951 q 33 969 26 967 q 51 972 39 972 l 189 972 l 267 974 q 368 976 339 976 l 451 975 q 608 972 551 972 q 663 974 650 972 q 706 965 693 975 q 718 942 718 954 q 716 906 718 935 q 714 833 714 876 q 718 728 714 794 q 669 690 718 690 l 425 690 l 422 547 q 421 429 421 524 q 422 240 421 332 q 424 82 424 149 l 425 25 l 425 18 q 422 3 425 6 q 413 0 418 0 q 404 0 407 0 l 310 0 m 356 -225 q 297 -201 324 -225 q 271 -140 271 -176 q 294 -84 271 -110 q 350 -58 318 -58 q 417 -78 388 -58 q 447 -133 447 -99 q 417 -200 447 -175 q 356 -225 388 -225 z "},"U":{"ha":678,"x_min":78,"x_max":601,"o":"m 593 824 q 594 707 592 810 q 601 428 601 538 l 601 343 q 516 84 599 164 q 317 4 433 4 q 174 63 228 4 q 97 194 119 122 q 83 294 88 226 q 78 432 78 361 q 82 538 78 511 q 85 667 85 557 q 79 919 85 842 q 78 942 78 928 q 104 974 78 985 l 119 972 q 131 974 125 972 q 144 975 138 975 q 151 967 150 975 q 149 716 150 879 q 147 400 147 553 q 167 256 147 319 q 224 156 188 192 q 304 119 260 119 q 392 155 365 119 q 419 229 419 190 l 422 314 q 426 544 426 522 q 429 671 426 576 q 433 826 433 750 q 428 922 433 894 q 424 949 424 939 q 433 973 424 968 q 451 977 442 978 q 463 976 460 976 q 494 976 476 975 q 525 976 511 976 l 561 976 q 587 970 583 976 q 592 943 590 964 q 594 868 594 913 q 593 824 594 838 m 151 960 l 151 967 l 151 960 z "},"Ú":{"ha":678,"x_min":78,"x_max":601,"o":"m 593 824 q 594 707 592 810 q 601 428 601 538 l 601 343 q 516 84 599 164 q 317 4 433 4 q 174 63 228 4 q 97 194 119 122 q 83 294 88 226 q 78 432 78 361 q 82 538 78 511 q 85 667 85 557 q 79 919 85 842 q 78 942 78 928 q 104 974 78 985 l 119 972 q 131 974 125 972 q 144 975 138 975 q 151 967 150 975 q 149 716 150 879 q 147 400 147 553 q 167 256 147 319 q 224 156 188 192 q 304 119 260 119 q 392 155 365 119 q 419 229 419 190 l 422 314 q 426 544 426 522 q 429 671 426 576 q 433 826 433 750 q 428 922 433 894 q 424 949 424 939 q 433 973 424 968 q 451 977 442 978 q 463 976 460 976 q 494 976 476 975 q 525 976 511 976 l 561 976 q 587 970 583 976 q 592 943 590 964 q 594 868 594 913 q 593 824 594 838 m 151 960 l 151 967 l 151 960 z "},"Ŭ":{"ha":678,"x_min":78,"x_max":601,"o":"m 593 824 q 594 707 592 810 q 601 428 601 538 l 601 343 q 516 84 599 164 q 317 4 433 4 q 174 63 228 4 q 97 194 119 122 q 83 294 88 226 q 78 432 78 361 q 82 538 78 511 q 85 667 85 557 q 79 919 85 842 q 78 942 78 928 q 104 974 78 985 l 119 972 q 131 974 125 972 q 144 975 138 975 q 151 967 150 975 q 149 716 150 879 q 147 400 147 553 q 167 256 147 319 q 224 156 188 192 q 304 119 260 119 q 392 155 365 119 q 419 229 419 190 l 422 314 q 426 544 426 522 q 429 671 426 576 q 433 826 433 750 q 428 922 433 894 q 424 949 424 939 q 433 973 424 968 q 451 977 442 978 q 463 976 460 976 q 494 976 476 975 q 525 976 511 976 l 561 976 q 587 970 583 976 q 592 943 590 964 q 594 868 594 913 q 593 824 594 838 m 151 960 l 151 967 l 151 960 z "},"Ǔ":{"ha":678,"x_min":78,"x_max":601,"o":"m 593 824 q 594 707 592 810 q 601 428 601 538 l 601 343 q 516 84 599 164 q 317 4 433 4 q 174 63 228 4 q 97 194 119 122 q 83 294 88 226 q 78 432 78 361 q 82 538 78 511 q 85 667 85 557 q 79 919 85 842 q 78 942 78 928 q 104 974 78 985 l 119 972 q 131 974 125 972 q 144 975 138 975 q 151 967 150 975 q 149 716 150 879 q 147 400 147 553 q 167 256 147 319 q 224 156 188 192 q 304 119 260 119 q 392 155 365 119 q 419 229 419 190 l 422 314 q 426 544 426 522 q 429 671 426 576 q 433 826 433 750 q 428 922 433 894 q 424 949 424 939 q 433 973 424 968 q 451 977 442 978 q 463 976 460 976 q 494 976 476 975 q 525 976 511 976 l 561 976 q 587 970 583 976 q 592 943 590 964 q 594 868 594 913 q 593 824 594 838 m 151 960 l 151 967 l 151 960 z "},"Û":{"ha":678,"x_min":78,"x_max":601,"o":"m 593 824 q 594 707 592 810 q 601 428 601 538 l 601 343 q 516 84 599 164 q 317 4 433 4 q 174 63 228 4 q 97 194 119 122 q 83 294 88 226 q 78 432 78 361 q 82 538 78 511 q 85 667 85 557 q 79 919 85 842 q 78 942 78 928 q 104 974 78 985 l 119 972 q 131 974 125 972 q 144 975 138 975 q 151 967 150 975 q 149 716 150 879 q 147 400 147 553 q 167 256 147 319 q 224 156 188 192 q 304 119 260 119 q 392 155 365 119 q 419 229 419 190 l 422 314 q 426 544 426 522 q 429 671 426 576 q 433 826 433 750 q 428 922 433 894 q 424 949 424 939 q 433 973 424 968 q 451 977 442 978 q 463 976 460 976 q 494 976 476 975 q 525 976 511 976 l 561 976 q 587 970 583 976 q 592 943 590 964 q 594 868 594 913 q 593 824 594 838 m 151 960 l 151 967 l 151 960 z "},"Ȕ":{"ha":678,"x_min":-24,"x_max":601,"o":"m 593 824 q 594 707 592 810 q 601 428 601 538 l 601 343 q 516 84 599 164 q 317 4 433 4 q 174 63 228 4 q 97 194 119 122 q 83 294 88 226 q 78 432 78 361 q 82 538 78 511 q 85 667 85 557 q 79 919 85 842 q 78 942 78 928 q 104 974 78 985 l 119 972 q 131 974 125 972 q 144 975 138 975 q 151 967 150 975 q 149 716 150 879 q 147 400 147 553 q 167 256 147 319 q 224 156 188 192 q 304 119 260 119 q 392 155 365 119 q 419 229 419 190 l 422 314 q 426 544 426 522 q 429 671 426 576 q 433 826 433 750 q 428 922 433 894 q 424 949 424 939 q 433 973 424 968 q 451 977 442 978 q 463 976 460 976 q 494 976 476 975 q 525 976 511 976 l 561 976 q 587 970 583 976 q 592 943 590 964 q 594 868 594 913 q 593 824 594 838 m 151 960 l 151 967 l 151 960 m 208 1021 q 184 1026 199 1021 q 164 1033 169 1032 q 92 1063 125 1051 q 46 1079 58 1075 q -22 1126 -15 1101 q -24 1142 -24 1132 q 1 1165 -24 1165 l 29 1163 q 78 1153 60 1158 l 108 1142 q 163 1122 140 1128 q 193 1110 185 1115 q 235 1094 208 1106 q 263 1075 261 1082 q 265 1061 265 1064 q 238 1031 265 1040 q 208 1021 222 1021 m 483 1021 q 459 1026 474 1021 q 439 1033 444 1032 q 321 1079 383 1057 q 253 1126 260 1101 q 251 1142 251 1132 q 276 1165 251 1165 l 304 1163 q 353 1153 335 1158 l 383 1142 q 438 1122 415 1128 q 468 1110 460 1115 q 510 1094 483 1106 q 538 1075 536 1082 q 540 1061 540 1064 q 513 1031 540 1040 q 483 1021 497 1021 z "},"Ü":{"ha":678,"x_min":75,"x_max":601,"o":"m 593 824 q 594 707 592 810 q 601 428 601 538 l 601 343 q 516 84 599 164 q 317 4 433 4 q 174 63 228 4 q 97 194 119 122 q 83 294 88 226 q 78 432 78 361 q 82 538 78 511 q 85 667 85 557 q 79 919 85 842 q 78 942 78 928 q 104 974 78 985 l 119 972 q 131 974 125 972 q 144 975 138 975 q 151 967 150 975 q 149 716 150 879 q 147 400 147 553 q 167 256 147 319 q 224 156 188 192 q 304 119 260 119 q 392 155 365 119 q 419 229 419 190 l 422 314 q 426 544 426 522 q 429 671 426 576 q 433 826 433 750 q 428 922 433 894 q 424 949 424 939 q 433 973 424 968 q 451 977 442 978 q 463 976 460 976 q 494 976 476 975 q 525 976 511 976 l 561 976 q 587 970 583 976 q 592 943 590 964 q 594 868 594 913 q 593 824 594 838 m 151 960 l 151 967 l 151 960 m 451 1015 q 388 1042 411 1015 q 365 1118 365 1069 q 388 1162 365 1146 q 451 1178 411 1178 q 507 1155 488 1178 q 526 1090 526 1132 q 506 1035 526 1056 q 451 1015 486 1015 m 167 1010 q 99 1028 124 1010 q 75 1081 75 1047 q 98 1144 75 1121 q 161 1167 121 1167 q 221 1146 200 1167 q 242 1086 242 1125 q 222 1030 242 1050 q 167 1010 203 1010 z "},"Ǘ":{"ha":678,"x_min":75,"x_max":601,"o":"m 593 824 q 594 707 592 810 q 601 428 601 538 l 601 343 q 516 84 599 164 q 317 4 433 4 q 174 63 228 4 q 97 194 119 122 q 83 294 88 226 q 78 432 78 361 q 82 538 78 511 q 85 667 85 557 q 79 919 85 842 q 78 942 78 928 q 104 974 78 985 l 119 972 q 131 974 125 972 q 144 975 138 975 q 151 967 150 975 q 149 716 150 879 q 147 400 147 553 q 167 256 147 319 q 224 156 188 192 q 304 119 260 119 q 392 155 365 119 q 419 229 419 190 l 422 314 q 426 544 426 522 q 429 671 426 576 q 433 826 433 750 q 428 922 433 894 q 424 949 424 939 q 433 973 424 968 q 451 977 442 978 q 463 976 460 976 q 494 976 476 975 q 525 976 511 976 l 561 976 q 587 970 583 976 q 592 943 590 964 q 594 868 594 913 q 593 824 594 838 m 151 960 l 151 967 l 151 960 m 451 1015 q 388 1042 411 1015 q 365 1118 365 1069 q 388 1162 365 1146 q 451 1178 411 1178 q 507 1155 488 1178 q 526 1090 526 1132 q 506 1035 526 1056 q 451 1015 486 1015 m 167 1010 q 99 1028 124 1010 q 75 1081 75 1047 q 98 1144 75 1121 q 161 1167 121 1167 q 221 1146 200 1167 q 242 1086 242 1125 q 222 1030 242 1050 q 167 1010 203 1010 z "},"Ǚ":{"ha":678,"x_min":75,"x_max":601,"o":"m 593 824 q 594 707 592 810 q 601 428 601 538 l 601 343 q 516 84 599 164 q 317 4 433 4 q 174 63 228 4 q 97 194 119 122 q 83 294 88 226 q 78 432 78 361 q 82 538 78 511 q 85 667 85 557 q 79 919 85 842 q 78 942 78 928 q 104 974 78 985 l 119 972 q 131 974 125 972 q 144 975 138 975 q 151 967 150 975 q 149 716 150 879 q 147 400 147 553 q 167 256 147 319 q 224 156 188 192 q 304 119 260 119 q 392 155 365 119 q 419 229 419 190 l 422 314 q 426 544 426 522 q 429 671 426 576 q 433 826 433 750 q 428 922 433 894 q 424 949 424 939 q 433 973 424 968 q 451 977 442 978 q 463 976 460 976 q 494 976 476 975 q 525 976 511 976 l 561 976 q 587 970 583 976 q 592 943 590 964 q 594 868 594 913 q 593 824 594 838 m 151 960 l 151 967 l 151 960 m 451 1015 q 388 1042 411 1015 q 365 1118 365 1069 q 388 1162 365 1146 q 451 1178 411 1178 q 507 1155 488 1178 q 526 1090 526 1132 q 506 1035 526 1056 q 451 1015 486 1015 m 167 1010 q 99 1028 124 1010 q 75 1081 75 1047 q 98 1144 75 1121 q 161 1167 121 1167 q 221 1146 200 1167 q 242 1086 242 1125 q 222 1030 242 1050 q 167 1010 203 1010 z "},"Ǜ":{"ha":678,"x_min":75,"x_max":601,"o":"m 593 824 q 594 707 592 810 q 601 428 601 538 l 601 343 q 516 84 599 164 q 317 4 433 4 q 174 63 228 4 q 97 194 119 122 q 83 294 88 226 q 78 432 78 361 q 82 538 78 511 q 85 667 85 557 q 79 919 85 842 q 78 942 78 928 q 104 974 78 985 l 119 972 q 131 974 125 972 q 144 975 138 975 q 151 967 150 975 q 149 716 150 879 q 147 400 147 553 q 167 256 147 319 q 224 156 188 192 q 304 119 260 119 q 392 155 365 119 q 419 229 419 190 l 422 314 q 426 544 426 522 q 429 671 426 576 q 433 826 433 750 q 428 922 433 894 q 424 949 424 939 q 433 973 424 968 q 451 977 442 978 q 463 976 460 976 q 494 976 476 975 q 525 976 511 976 l 561 976 q 587 970 583 976 q 592 943 590 964 q 594 868 594 913 q 593 824 594 838 m 151 960 l 151 967 l 151 960 m 451 1015 q 388 1042 411 1015 q 365 1118 365 1069 q 388 1162 365 1146 q 451 1178 411 1178 q 507 1155 488 1178 q 526 1090 526 1132 q 506 1035 526 1056 q 451 1015 486 1015 m 167 1010 q 99 1028 124 1010 q 75 1081 75 1047 q 98 1144 75 1121 q 161 1167 121 1167 q 221 1146 200 1167 q 242 1086 242 1125 q 222 1030 242 1050 q 167 1010 203 1010 z "},"Ǖ":{"ha":678,"x_min":75,"x_max":601,"o":"m 593 824 q 594 707 592 810 q 601 428 601 538 l 601 343 q 516 84 599 164 q 317 4 433 4 q 174 63 228 4 q 97 194 119 122 q 83 294 88 226 q 78 432 78 361 q 82 538 78 511 q 85 667 85 557 q 79 919 85 842 q 78 942 78 928 q 104 974 78 985 l 119 972 q 131 974 125 972 q 144 975 138 975 q 151 967 150 975 q 149 716 150 879 q 147 400 147 553 q 167 256 147 319 q 224 156 188 192 q 304 119 260 119 q 392 155 365 119 q 419 229 419 190 l 422 314 q 426 544 426 522 q 429 671 426 576 q 433 826 433 750 q 428 922 433 894 q 424 949 424 939 q 433 973 424 968 q 451 977 442 978 q 463 976 460 976 q 494 976 476 975 q 525 976 511 976 l 561 976 q 587 970 583 976 q 592 943 590 964 q 594 868 594 913 q 593 824 594 838 m 151 960 l 151 967 l 151 960 m 451 1015 q 388 1042 411 1015 q 365 1118 365 1069 q 388 1162 365 1146 q 451 1178 411 1178 q 507 1155 488 1178 q 526 1090 526 1132 q 506 1035 526 1056 q 451 1015 486 1015 m 167 1010 q 99 1028 124 1010 q 75 1081 75 1047 q 98 1144 75 1121 q 161 1167 121 1167 q 221 1146 200 1167 q 242 1086 242 1125 q 222 1030 242 1050 q 167 1010 203 1010 z "},"Ụ":{"ha":678,"x_min":78,"x_max":601,"o":"m 593 824 q 594 707 592 810 q 601 428 601 538 l 601 343 q 516 84 599 164 q 317 4 433 4 q 174 63 228 4 q 97 194 119 122 q 83 294 88 226 q 78 432 78 361 q 82 538 78 511 q 85 667 85 557 q 79 919 85 842 q 78 942 78 928 q 104 974 78 985 l 119 972 q 131 974 125 972 q 144 975 138 975 q 151 967 150 975 q 149 716 150 879 q 147 400 147 553 q 167 256 147 319 q 224 156 188 192 q 304 119 260 119 q 392 155 365 119 q 419 229 419 190 l 422 314 q 426 544 426 522 q 429 671 426 576 q 433 826 433 750 q 428 922 433 894 q 424 949 424 939 q 433 973 424 968 q 451 977 442 978 q 463 976 460 976 q 494 976 476 975 q 525 976 511 976 l 561 976 q 587 970 583 976 q 592 943 590 964 q 594 868 594 913 q 593 824 594 838 m 151 960 l 151 967 l 151 960 m 338 -225 q 279 -201 306 -225 q 253 -140 253 -176 q 276 -84 253 -110 q 332 -58 300 -58 q 399 -78 369 -58 q 429 -133 429 -99 q 399 -200 429 -175 q 338 -225 369 -225 z "},"Ù":{"ha":678,"x_min":78,"x_max":601,"o":"m 593 824 q 594 707 592 810 q 601 428 601 538 l 601 343 q 516 84 599 164 q 317 4 433 4 q 174 63 228 4 q 97 194 119 122 q 83 294 88 226 q 78 432 78 361 q 82 538 78 511 q 85 667 85 557 q 79 919 85 842 q 78 942 78 928 q 104 974 78 985 l 119 972 q 131 974 125 972 q 144 975 138 975 q 151 967 150 975 q 149 716 150 879 q 147 400 147 553 q 167 256 147 319 q 224 156 188 192 q 304 119 260 119 q 392 155 365 119 q 419 229 419 190 l 422 314 q 426 544 426 522 q 429 671 426 576 q 433 826 433 750 q 428 922 433 894 q 424 949 424 939 q 433 973 424 968 q 451 977 442 978 q 463 976 460 976 q 494 976 476 975 q 525 976 511 976 l 561 976 q 587 970 583 976 q 592 943 590 964 q 594 868 594 913 q 593 824 594 838 m 151 960 l 151 967 l 151 960 z "},"Ủ":{"ha":678,"x_min":78,"x_max":601,"o":"m 593 824 q 594 707 592 810 q 601 428 601 538 l 601 343 q 516 84 599 164 q 317 4 433 4 q 174 63 228 4 q 97 194 119 122 q 83 294 88 226 q 78 432 78 361 q 82 538 78 511 q 85 667 85 557 q 79 919 85 842 q 78 942 78 928 q 104 974 78 985 l 119 972 q 131 974 125 972 q 144 975 138 975 q 151 967 150 975 q 149 716 150 879 q 147 400 147 553 q 167 256 147 319 q 224 156 188 192 q 304 119 260 119 q 392 155 365 119 q 419 229 419 190 l 422 314 q 426 544 426 522 q 429 671 426 576 q 433 826 433 750 q 428 922 433 894 q 424 949 424 939 q 433 973 424 968 q 451 977 442 978 q 463 976 460 976 q 494 976 476 975 q 525 976 511 976 l 561 976 q 587 970 583 976 q 592 943 590 964 q 594 868 594 913 q 593 824 594 838 m 151 960 l 151 967 l 151 960 m 281 1011 q 263 1025 272 1011 q 254 1046 254 1039 q 263 1064 254 1057 q 286 1079 271 1071 q 322 1102 310 1090 q 333 1138 333 1114 q 322 1169 333 1157 q 290 1182 311 1182 q 253 1169 271 1182 q 232 1156 236 1156 q 196 1182 222 1156 q 188 1190 196 1182 q 186 1204 181 1197 q 225 1238 203 1222 q 265 1256 242 1249 q 306 1264 288 1264 q 356 1253 332 1264 q 396 1222 381 1243 q 417 1136 417 1194 q 376 1047 417 1082 q 281 1011 335 1011 z "}}}
